SplineFontDB: 3.2
FontName: Gontserrat-Thin
FullName: Gontserrat Thin
FamilyName: Gontserrat
Weight: Light
Copyright: Gontserrat is a derivative work of Montserrat under the Open Font License, version 1.1. Copyright 2020 Gabriel Classon (gabeclasson.com). Montserrat copyright 2011 The Montserrat Project Authors (https://github.com/JulietaUla/Montserrat). 
Version: 7.222
ItalicAngle: 0
UnderlinePosition: -100
UnderlineWidth: 50
Ascent: 800
Descent: 200
InvalidEm: 0
sfntRevision: 0x00010000
LayerCount: 2
Layer: 0 1 "Back" 1
Layer: 1 1 "Fore" 0
XUID: [1021 930 -1503615855 4723]
StyleMap: 0x0040
FSType: 0
OS2Version: 4
OS2_WeightWidthSlopeOnly: 0
OS2_UseTypoMetrics: 1
CreationTime: 1485852831
ModificationTime: 1642923487
PfmFamily: 81
TTFWeight: 250
TTFWidth: 5
LineGap: 0
VLineGap: 0
Panose: 0 0 3 0 0 0 0 0 0 0
OS2TypoAscent: 968
OS2TypoAOffset: 0
OS2TypoDescent: -251
OS2TypoDOffset: 0
OS2TypoLinegap: 0
OS2WinAscent: 1177
OS2WinAOffset: 0
OS2WinDescent: 496
OS2WinDOffset: 0
HheadAscent: 968
HheadAOffset: 0
HheadDescent: -251
HheadDOffset: 0
OS2SubXSize: 650
OS2SubYSize: 600
OS2SubXOff: 0
OS2SubYOff: 75
OS2SupXSize: 650
OS2SupYSize: 600
OS2SupXOff: 0
OS2SupYOff: 350
OS2StrikeYSize: 50
OS2StrikeYPos: 310
OS2CapHeight: 699
OS2XHeight: 517
OS2Vendor: 'ULA '
OS2CodePages: 20000193.00000000
OS2UnicodeRanges: 20000007.00000001.00000000.00000000
Lookup: 1 0 0 "'rtla' Right to Left Alternates in Latin lookup 0" { "'rtla' Right to Left Alternates in Latin lookup 0 subtable"  } ['rtla' ('DFLT' <'dflt' > 'latn' <'dflt' > ) ]
Lookup: 1 0 0 "<10,2> Inferiors lookup 1" { "<10,2> Inferiors lookup 1 subtable" ("inferior") } [<10,2> ('DFLT' <'dflt' > ) 'subs' ('DFLT' <'dflt' > ) ]
Lookup: 1 0 0 "<10,1> Superiors lookup 2" { "<10,1> Superiors lookup 2 subtable" ("superior") } [<10,1> ('DFLT' <'dflt' > ) 'sups' ('DFLT' <'dflt' > ) ]
Lookup: 1 0 0 "<11,2> Diagonal Fractions lookup 3" { "<11,2> Diagonal Fractions lookup 3 subtable"  } [<11,2> ('DFLT' <'dflt' > ) 'frac' ('DFLT' <'dflt' > ) ]

StartChar: .notdef
Encoding: 65536 -1 0
Width: 587
Flags: W
LayerCount: 2
Fore
SplineSet
40 0 m 1,0,-1
 40 700 l 1,1,-1
 547 700 l 1,2,-1
 547 0 l 1,3,-1
 40 0 l 1,0,-1
120 70 m 1,4,-1
 467 70 l 1,5,-1
 467 630 l 1,6,-1
 120 630 l 1,7,-1
 120 70 l 1,4,-1
EndSplineSet
EndChar

StartChar: exclam
Encoding: 33 33 5
Width: 192
Flags: W
LayerCount: 2
Fore
SplineSet
86 682 m 1,0,-1
 106 682 l 1,1,-1
 106 188 l 1,2,-1
 86 188 l 1,3,-1
 86 682 l 1,0,-1
114.5 37.5 m 128,-1,5
 122 30 122 30 122 19 c 0,6,7
 122 9 122 9 114.5 1 c 128,-1,8
 107 -7 107 -7 96 -7 c 0,9,10
 86 -7 86 -7 78 1 c 128,-1,11
 70 9 70 9 70 19 c 0,12,13
 70 30 70 30 78 37.5 c 128,-1,14
 86 45 86 45 96 45 c 0,15,4
 107 45 107 45 114.5 37.5 c 128,-1,5
EndSplineSet
Substitution2: "<3,3> Small Caps in Latin lookup 11 subtable" exclam.sc
EndChar

StartChar: numbersign
Encoding: 35 35 7
Width: 707
Flags: W
LayerCount: 2
Fore
SplineSet
626 228 m 1,0,-1
 627 208 l 1,1,-1
 476 208 l 1,2,-1
 450 0 l 1,3,-1
 430 0 l 1,4,-1
 456 208 l 1,5,-1
 216 208 l 1,6,-1
 190 0 l 1,7,-1
 170 0 l 1,8,-1
 196 208 l 1,9,-1
 47 208 l 1,10,-1
 46 228 l 1,11,-1
 198 228 l 1,12,-1
 228 468 l 1,13,-1
 79 468 l 1,14,-1
 78 488 l 1,15,-1
 230 488 l 1,16,-1
 256 699 l 1,17,-1
 276 699 l 1,18,-1
 250 488 l 1,19,-1
 490 488 l 1,20,-1
 516 699 l 1,21,-1
 536 699 l 1,22,-1
 510 488 l 1,23,-1
 658 488 l 1,24,-1
 659 468 l 1,25,-1
 508 468 l 1,26,-1
 478 228 l 1,27,-1
 626 228 l 1,0,-1
218 228 m 1,28,-1
 458 228 l 1,29,-1
 488 468 l 1,30,-1
 248 468 l 1,31,-1
 218 228 l 1,28,-1
EndSplineSet
EndChar

StartChar: dollar
Encoding: 36 36 8
Width: 593
Flags: W
LayerCount: 2
Fore
SplineSet
126 459 m 128,-1,1
 153 426 153 426 192.5 408.5 c 128,-1,2
 232 391 232 391 300 370 c 0,3,4
 372 348 372 348 415 328.5 c 128,-1,5
 458 309 458 309 487.5 271 c 128,-1,6
 517 233 517 233 517 171 c 0,7,8
 517 96 517 96 458.5 48.5 c 128,-1,9
 400 1 400 1 300 -3 c 1,10,-1
 300 -119 l 1,11,-1
 280 -119 l 1,12,-1
 280 -3 l 1,13,14
 214 -3 214 -3 149.5 24 c 128,-1,15
 85 51 85 51 41 96 c 1,16,-1
 55 110 l 1,17,18
 95 67 95 67 156 42 c 128,-1,19
 217 17 217 17 280 17 c 0,20,21
 379 17 379 17 438 59 c 128,-1,22
 497 101 497 101 497 171 c 0,23,24
 497 226 497 226 469.5 259.5 c 128,-1,25
 442 293 442 293 402 311.5 c 128,-1,26
 362 330 362 330 293 351 c 0,27,28
 222 373 222 373 179.5 392.5 c 128,-1,29
 137 412 137 412 108 449 c 128,-1,30
 79 486 79 486 79 547 c 0,31,32
 79 614 79 614 133.5 655.5 c 128,-1,33
 188 697 188 697 280 702 c 1,34,-1
 280 804 l 1,35,-1
 300 804 l 1,36,-1
 300 703 l 1,37,-1
 302 703 l 2,38,39
 351 703 351 703 401.5 689 c 128,-1,40
 452 675 452 675 488 652 c 1,41,-1
 478 636 l 1,42,43
 444 658 444 658 396.5 670.5 c 128,-1,44
 349 683 349 683 302 683 c 0,45,46
 210 683 210 683 154.5 645.5 c 128,-1,47
 99 608 99 608 99 546 c 0,48,0
 99 492 99 492 126 459 c 128,-1,1
EndSplineSet
EndChar

StartChar: ampersand
Encoding: 38 38 10
Width: 626
Flags: W
LayerCount: 2
Fore
SplineSet
619 13 m 1,0,-1
 606 0 l 1,1,2
 558 49 558 49 475 130 c 1,3,4
 424 67 424 67 367 33.5 c 128,-1,5
 310 0 310 0 250 0 c 0,6,7
 198 0 198 0 154.5 24 c 128,-1,8
 111 48 111 48 85.5 90 c 128,-1,9
 60 132 60 132 60 183 c 0,10,11
 60 254 60 254 105 299.5 c 128,-1,12
 150 345 150 345 232 388 c 1,13,14
 192 439 192 439 171.5 481.5 c 128,-1,15
 151 524 151 524 151 562 c 256,16,17
 151 600 151 600 170.5 631 c 128,-1,18
 190 662 190 662 225 680.5 c 128,-1,19
 260 699 260 699 304 699 c 0,20,21
 367 699 367 699 405 663.5 c 128,-1,22
 443 628 443 628 443 571 c 0,23,24
 443 527 443 527 418.5 494 c 128,-1,25
 394 461 394 461 359.5 438 c 128,-1,26
 325 415 325 415 262 381 c 1,27,28
 297 338 297 338 345 288 c 128,-1,29
 393 238 393 238 472 160 c 1,30,31
 520 225 520 225 558 311 c 1,32,-1
 577 299 l 1,33,34
 535 208 535 208 487 145 c 1,35,-1
 619 13 l 1,0,-1
249 397 m 1,37,38
 309 429 309 429 342.5 450 c 128,-1,39
 376 471 376 471 399.5 501.5 c 128,-1,40
 423 532 423 532 423 572 c 0,41,42
 423 620 423 620 390.5 649.5 c 128,-1,43
 358 679 358 679 304 679 c 0,44,45
 245 679 245 679 208 645.5 c 128,-1,46
 171 612 171 612 171 562 c 0,47,36
 171 495 171 495 249 397 c 1,37,38
359.5 52 m 128,-1,49
 413 84 413 84 461 145 c 1,50,51
 380 225 380 225 330.5 276.5 c 128,-1,52
 281 328 281 328 245 372 c 1,53,54
 165 329 165 329 122.5 287.5 c 128,-1,55
 80 246 80 246 80 183 c 0,56,57
 80 137 80 137 102.5 99.5 c 128,-1,58
 125 62 125 62 164 41 c 128,-1,59
 203 20 203 20 250 20 c 0,60,48
 306 20 306 20 359.5 52 c 128,-1,49
EndSplineSet
Substitution2: "<3,3> Small Caps in Latin lookup 11 subtable" ampersand.sc
EndChar

StartChar: quotesingle
Encoding: 39 39 11
Width: 140
Flags: W
LayerCount: 2
Fore
SplineSet
60 699 m 1,0,-1
 80 699 l 1,1,-1
 80 509 l 1,2,-1
 60 509 l 1,3,-1
 60 699 l 1,0,-1
EndSplineSet
Substitution2: "<3,3> Small Caps in Latin lookup 11 subtable" quotesingle.sc
EndChar

StartChar: parenleft
Encoding: 40 40 12
Width: 276
Flags: W
LayerCount: 2
Fore
SplineSet
152 548.5 m 128,-1,1
 123 437 123 437 123 309 c 256,2,3
 123 181 123 181 152 69.5 c 128,-1,4
 181 -42 181 -42 236 -124 c 1,5,-1
 216 -124 l 1,6,7
 161 -42 161 -42 132 69.5 c 128,-1,8
 103 181 103 181 103 309 c 256,9,10
 103 437 103 437 132 548.5 c 128,-1,11
 161 660 161 660 216 742 c 1,12,-1
 236 742 l 1,13,0
 181 660 181 660 152 548.5 c 128,-1,1
EndSplineSet
Substitution2: "'rtla' Right to Left Alternates in Latin lookup 0 subtable" parenright
EndChar

StartChar: parenright
Encoding: 41 41 13
Width: 276
Flags: W
LayerCount: 2
Fore
SplineSet
60 742 m 1,0,1
 115 660 115 660 144 548.5 c 128,-1,2
 173 437 173 437 173 309 c 256,3,4
 173 181 173 181 144 69.5 c 128,-1,5
 115 -42 115 -42 60 -124 c 1,6,-1
 40 -124 l 1,7,8
 95 -42 95 -42 124 69.5 c 128,-1,9
 153 181 153 181 153 309 c 256,10,11
 153 437 153 437 124 548.5 c 128,-1,12
 95 660 95 660 40 742 c 1,13,-1
 60 742 l 1,0,1
EndSplineSet
Substitution2: "'rtla' Right to Left Alternates in Latin lookup 0 subtable" parenleft
EndChar

StartChar: asterisk
Encoding: 42 42 14
Width: 298
Flags: W
LayerCount: 2
Fore
SplineSet
140 723 m 1,0,-1
 158 723 l 1,1,-1
 158 606 l 1,2,-1
 259 665 l 1,3,-1
 268 648 l 1,4,-1
 167 590 l 1,5,-1
 268 532 l 1,6,-1
 259 515 l 1,7,-1
 158 574 l 1,8,-1
 158 457 l 1,9,-1
 140 457 l 1,10,-1
 140 574 l 1,11,-1
 39 515 l 1,12,-1
 30 532 l 1,13,-1
 130 590 l 1,14,-1
 30 648 l 1,15,-1
 39 665 l 1,16,-1
 140 606 l 1,17,-1
 140 723 l 1,0,-1
EndSplineSet
EndChar

StartChar: plus
Encoding: 43 43 15
Width: 480
Flags: W
LayerCount: 2
Fore
SplineSet
440 330 m 1,0,-1
 440 310 l 1,1,-1
 250 310 l 1,2,-1
 250 120 l 1,3,-1
 230 120 l 1,4,-1
 230 310 l 1,5,-1
 40 310 l 1,6,-1
 40 330 l 1,7,-1
 230 330 l 1,8,-1
 230 520 l 1,9,-1
 250 520 l 1,10,-1
 250 330 l 1,11,-1
 440 330 l 1,0,-1
EndSplineSet
EndChar

StartChar: comma
Encoding: 44 44 16
Width: 170
Flags: W
LayerCount: 2
Fore
SplineSet
105.5 37.5 m 128,-1,1
 113 30 113 30 113 19 c 0,2,3
 113 11 113 11 106 -7 c 2,4,-1
 63 -120 l 1,5,-1
 43 -120 l 1,6,-1
 81 -6 l 1,7,8
 73 -4 73 -4 67 3 c 128,-1,9
 61 10 61 10 61 19 c 0,10,11
 61 30 61 30 69 37.5 c 128,-1,12
 77 45 77 45 87 45 c 0,13,0
 98 45 98 45 105.5 37.5 c 128,-1,1
EndSplineSet
EndChar

StartChar: hyphen
Encoding: 45 45 17
Width: 357
Flags: W
LayerCount: 2
Fore
SplineSet
70 310 m 1,0,-1
 287 310 l 1,1,-1
 287 290 l 1,2,-1
 70 290 l 1,3,-1
 70 310 l 1,0,-1
EndSplineSet
EndChar

StartChar: period
Encoding: 46 46 18
Width: 170
Flags: W
LayerCount: 2
Fore
SplineSet
103.5 37.5 m 128,-1,1
 111 30 111 30 111 19 c 0,2,3
 111 9 111 9 103.5 1 c 128,-1,4
 96 -7 96 -7 85 -7 c 0,5,6
 75 -7 75 -7 67 1 c 128,-1,7
 59 9 59 9 59 19 c 0,8,9
 59 30 59 30 67 37.5 c 128,-1,10
 75 45 75 45 85 45 c 0,11,0
 96 45 96 45 103.5 37.5 c 128,-1,1
EndSplineSet
Substitution2: "<3,3> Small Caps in Latin lookup 11 subtable" period.sc
EndChar

StartChar: slash
Encoding: 47 47 19
Width: 294
Flags: W
LayerCount: 2
Fore
SplineSet
310 826 m 1,0,-1
 331 826 l 1,1,-1
 25 -130 l 1,2,-1
 4 -130 l 1,3,-1
 310 826 l 1,0,-1
EndSplineSet
Substitution2: "<11,2> Diagonal Fractions lookup 3 subtable" fraction
EndChar

StartChar: zero
Encoding: 48 48 20
Width: 723
Flags: W
LayerCount: 2
Fore
SplineSet
592 610 m 128,-1,1
 664 519 664 519 664 350 c 0,2,3
 664 180 664 180 592 89 c 128,-1,4
 520 -2 520 -2 387 -2 c 256,5,6
 254 -2 254 -2 182.5 89.5 c 128,-1,7
 111 181 111 181 111 350 c 256,8,9
 111 519 111 519 182.5 610 c 128,-1,10
 254 701 254 701 387 701 c 256,11,0
 520 701 520 701 592 610 c 128,-1,1
197 595.5 m 128,-1,13
 131 510 131 510 131 350 c 256,14,15
 131 190 131 190 197 104 c 128,-1,16
 263 18 263 18 387 18 c 256,17,18
 511 18 511 18 577.5 104 c 128,-1,19
 644 190 644 190 644 350 c 256,20,21
 644 510 644 510 577.5 595.5 c 128,-1,22
 511 681 511 681 387 681 c 256,23,12
 263 681 263 681 197 595.5 c 128,-1,13
EndSplineSet
Substitution2: "<21,0> Lower Case Numbers lookup 10 subtable" zero.osf
Substitution2: "<6,0> Monospaced Numbers lookup 9 subtable" zero.tf
Substitution2: "<11,2> Diagonal Fractions lookup 4 subtable" zero.numr
Substitution2: "<10,1> Superiors lookup 2 subtable" uni2070
Substitution2: "<10,2> Inferiors lookup 1 subtable" uni2080
EndChar

StartChar: one
Encoding: 49 49 21
Width: 348
Flags: W
LayerCount: 2
Fore
SplineSet
6 699 m 1,0,-1
 212 699 l 1,1,-1
 212 0 l 1,2,-1
 193 0 l 1,3,-1
 193 679 l 1,4,-1
 6 679 l 1,5,-1
 6 699 l 1,0,-1
EndSplineSet
Substitution2: "<21,0> Lower Case Numbers lookup 10 subtable" one.osf
Substitution2: "<6,0> Monospaced Numbers lookup 9 subtable" one.tf
Substitution2: "<11,2> Diagonal Fractions lookup 4 subtable" one.numr
Substitution2: "<10,1> Superiors lookup 2 subtable" uni00B9
Substitution2: "<10,2> Inferiors lookup 1 subtable" uni2081
EndChar

StartChar: two
Encoding: 50 50 22
Width: 555
Flags: W
LayerCount: 2
Fore
SplineSet
519 20 m 1,0,-1
 519 0 l 1,1,-1
 39 0 l 1,2,-1
 40 29 l 1,3,-1
 325 328 l 2,4,5
 380 386 380 386 412 441.5 c 128,-1,6
 444 497 444 497 444 538 c 0,7,8
 444 605 444 605 394 643 c 128,-1,9
 344 681 344 681 257 681 c 0,10,11
 203 681 203 681 149.5 658.5 c 128,-1,12
 96 636 96 636 55 596 c 1,13,-1
 41 610 l 1,14,15
 84 653 84 653 141.5 677 c 128,-1,16
 199 701 199 701 257 701 c 0,17,18
 353 701 353 701 408.5 657.5 c 128,-1,19
 464 614 464 614 464 538 c 0,20,21
 464 493 464 493 430.5 434 c 128,-1,22
 397 375 397 375 339 314 c 2,23,-1
 60 20 l 1,24,-1
 519 20 l 1,0,-1
EndSplineSet
Substitution2: "<21,0> Lower Case Numbers lookup 10 subtable" two.osf
Substitution2: "<6,0> Monospaced Numbers lookup 9 subtable" two.tf
Substitution2: "<11,2> Diagonal Fractions lookup 4 subtable" two.numr
Substitution2: "<10,1> Superiors lookup 2 subtable" uni00B2
Substitution2: "<10,2> Inferiors lookup 1 subtable" uni2082
EndChar

StartChar: three
Encoding: 51 51 23
Width: 570
Flags: W
LayerCount: 2
Fore
SplineSet
440 345 m 128,-1,1
 512 296 512 296 512 210 c 0,2,3
 512 147 512 147 480 99 c 128,-1,4
 448 51 448 51 389 24.5 c 128,-1,5
 330 -2 330 -2 250 -2 c 0,6,7
 191 -2 191 -2 132.5 14 c 128,-1,8
 74 30 74 30 29 57 c 1,9,-1
 41 73 l 1,10,11
 83 48 83 48 139 33 c 128,-1,12
 195 18 195 18 251 18 c 0,13,14
 325 18 325 18 379.5 42 c 128,-1,15
 434 66 434 66 463 108.5 c 128,-1,16
 492 151 492 151 492 206 c 0,17,18
 492 288 492 288 427.5 331 c 128,-1,19
 363 374 363 374 248 374 c 2,20,-1
 170 374 l 1,21,-1
 170 392 l 1,22,-1
 448 679 l 1,23,-1
 60 679 l 1,24,-1
 60 699 l 1,25,-1
 475 699 l 1,26,-1
 475 681 l 1,27,-1
 199 394 l 1,28,-1
 247 394 l 2,29,0
 368 394 368 394 440 345 c 128,-1,1
EndSplineSet
Substitution2: "<21,0> Lower Case Numbers lookup 10 subtable" three.osf
Substitution2: "<6,0> Monospaced Numbers lookup 9 subtable" three.tf
Substitution2: "<11,2> Diagonal Fractions lookup 4 subtable" three.numr
Substitution2: "<10,1> Superiors lookup 2 subtable" uni00B3
Substitution2: "<10,2> Inferiors lookup 1 subtable" uni2083
EndChar

StartChar: four
Encoding: 52 52 24
Width: 570
Flags: W
LayerCount: 2
Fore
SplineSet
542 228 m 1,0,-1
 542 208 l 1,1,-1
 421 208 l 1,2,-1
 421 0 l 1,3,-1
 401 0 l 1,4,-1
 401 208 l 1,5,-1
 35 208 l 1,6,-1
 35 233 l 1,7,-1
 326 699 l 1,8,-1
 349 699 l 1,9,-1
 55 228 l 1,10,-1
 401 228 l 1,11,-1
 401 452 l 1,12,-1
 421 452 l 1,13,-1
 421 228 l 1,14,-1
 542 228 l 1,0,-1
EndSplineSet
Substitution2: "<21,0> Lower Case Numbers lookup 10 subtable" four.osf
Substitution2: "<6,0> Monospaced Numbers lookup 9 subtable" four.tf
Substitution2: "<11,2> Diagonal Fractions lookup 4 subtable" four.numr
Substitution2: "<10,1> Superiors lookup 2 subtable" uni2074
Substitution2: "<10,2> Inferiors lookup 1 subtable" uni2084
EndChar

StartChar: five
Encoding: 53 53 25
Width: 606
Flags: W
LayerCount: 2
Fore
SplineSet
453 393 m 128,-1,1
 508 369 508 369 538 325 c 128,-1,2
 568 281 568 281 568 223 c 0,3,4
 568 155 568 155 538 104 c 128,-1,5
 508 53 508 53 452.5 25.5 c 128,-1,6
 397 -2 397 -2 323 -2 c 0,7,8
 267 -2 267 -2 204.5 16.5 c 128,-1,9
 142 35 142 35 91 66 c 1,10,-1
 101 82 l 1,11,12
 150 53 150 53 210.5 35.5 c 128,-1,13
 271 18 271 18 323 18 c 0,14,15
 426 18 426 18 487 73.5 c 128,-1,16
 548 129 548 129 548 223 c 0,17,18
 548 275 548 275 520.5 314.5 c 128,-1,19
 493 354 493 354 442.5 375.5 c 128,-1,20
 392 397 392 397 325 397 c 0,21,22
 284 397 284 397 233 387 c 128,-1,23
 182 377 182 377 138 361 c 1,24,-1
 138 699 l 1,25,-1
 541 699 l 1,26,-1
 541 679 l 1,27,-1
 158 679 l 1,28,-1
 158 389 l 1,29,30
 199 402 199 402 244 409.5 c 128,-1,31
 289 417 289 417 325 417 c 0,32,0
 398 417 398 417 453 393 c 128,-1,1
EndSplineSet
Substitution2: "<21,0> Lower Case Numbers lookup 10 subtable" five.osf
Substitution2: "<6,0> Monospaced Numbers lookup 9 subtable" five.tf
Substitution2: "<11,2> Diagonal Fractions lookup 4 subtable" five.numr
Substitution2: "<10,1> Superiors lookup 2 subtable" uni2075
Substitution2: "<10,2> Inferiors lookup 1 subtable" uni2085
EndChar

StartChar: six
Encoding: 54 54 26
Width: 646
Flags: W
LayerCount: 2
Fore
SplineSet
449.5 670 m 128,-1,1
 403 681 403 681 360 681 c 0,2,3
 239 681 239 681 171.5 587.5 c 128,-1,4
 104 494 104 494 104 328 c 0,5,6
 104 304 104 304 108 250 c 1,7,8
 125 338 125 338 189.5 388.5 c 128,-1,9
 254 439 254 439 352 439 c 0,10,11
 456 439 456 439 516 381.5 c 128,-1,12
 576 324 576 324 576 223 c 0,13,14
 576 119 576 119 514 58.5 c 128,-1,15
 452 -2 452 -2 348 -2 c 0,16,17
 223 -2 223 -2 153.5 84 c 128,-1,18
 84 170 84 170 84 332 c 0,19,20
 84 443 84 443 117 526 c 128,-1,21
 150 609 150 609 212 655 c 128,-1,22
 274 701 274 701 358 701 c 0,23,24
 402 701 402 701 451 689.5 c 128,-1,25
 500 678 500 678 545 657 c 1,26,-1
 535 639 l 1,27,0
 496 659 496 659 449.5 670 c 128,-1,1
232 390.5 m 128,-1,29
 180 362 180 362 152.5 315.5 c 128,-1,30
 125 269 125 269 125 217 c 0,31,32
 125 173 125 173 149 127 c 128,-1,33
 173 81 173 81 222 49.5 c 128,-1,34
 271 18 271 18 343 18 c 0,35,36
 405 18 405 18 453.5 43 c 128,-1,37
 502 68 502 68 529 115 c 128,-1,38
 556 162 556 162 556 225 c 0,39,40
 556 314 556 314 500.5 366.5 c 128,-1,41
 445 419 445 419 352 419 c 0,42,28
 284 419 284 419 232 390.5 c 128,-1,29
EndSplineSet
Substitution2: "<21,0> Lower Case Numbers lookup 10 subtable" six.osf
Substitution2: "<6,0> Monospaced Numbers lookup 9 subtable" six.tf
Substitution2: "<11,2> Diagonal Fractions lookup 4 subtable" six.numr
Substitution2: "<10,1> Superiors lookup 2 subtable" uni2076
Substitution2: "<10,2> Inferiors lookup 1 subtable" uni2086
EndChar

StartChar: seven
Encoding: 55 55 27
Width: 555
Flags: W
LayerCount: 2
Fore
SplineSet
36 699 m 1,0,-1
 529 699 l 1,1,-1
 529 674 l 1,2,-1
 187 0 l 1,3,-1
 165 0 l 1,4,-1
 511 679 l 1,5,-1
 56 679 l 1,6,-1
 56 567 l 1,7,-1
 36 567 l 1,8,-1
 36 699 l 1,0,-1
EndSplineSet
Substitution2: "<21,0> Lower Case Numbers lookup 10 subtable" seven.osf
Substitution2: "<6,0> Monospaced Numbers lookup 9 subtable" seven.tf
Substitution2: "<11,2> Diagonal Fractions lookup 4 subtable" seven.numr
Substitution2: "<10,1> Superiors lookup 2 subtable" uni2077
Substitution2: "<10,2> Inferiors lookup 1 subtable" uni2087
EndChar

StartChar: eight
Encoding: 56 56 28
Width: 648
Flags: W
LayerCount: 2
Fore
SplineSet
479 657 m 128,-1,1
 535 613 535 613 535 535 c 0,2,3
 535 475 535 475 501.5 435 c 128,-1,4
 468 395 468 395 404 376 c 1,5,6
 482 358 482 358 525 311.5 c 128,-1,7
 568 265 568 265 568 195 c 0,8,9
 568 102 568 102 503 50 c 128,-1,10
 438 -2 438 -2 324 -2 c 0,11,12
 209 -2 209 -2 144 50 c 128,-1,13
 79 102 79 102 79 195 c 0,14,15
 79 265 79 265 122 311.5 c 128,-1,16
 165 358 165 358 243 376 c 1,17,18
 179 395 179 395 145.5 435 c 128,-1,19
 112 475 112 475 112 535 c 0,20,21
 112 613 112 613 168.5 657 c 128,-1,22
 225 701 225 701 324 701 c 256,23,0
 423 701 423 701 479 657 c 128,-1,1
183.5 641.5 m 128,-1,25
 132 602 132 602 132 533 c 0,26,27
 132 463 132 463 183.5 423 c 128,-1,28
 235 383 235 383 324 383 c 256,29,30
 413 383 413 383 464 423 c 128,-1,31
 515 463 515 463 515 533 c 0,32,33
 515 602 515 602 464 641.5 c 128,-1,34
 413 681 413 681 324 681 c 256,35,24
 235 681 235 681 183.5 641.5 c 128,-1,25
159.5 318.5 m 128,-1,37
 99 274 99 274 99 197 c 0,38,39
 99 113 99 113 159 65.5 c 128,-1,40
 219 18 219 18 324 18 c 0,41,42
 428 18 428 18 488 65 c 128,-1,43
 548 112 548 112 548 196 c 0,44,45
 548 273 548 273 488 318 c 128,-1,46
 428 363 428 363 323 363 c 0,47,36
 220 363 220 363 159.5 318.5 c 128,-1,37
EndSplineSet
Substitution2: "<21,0> Lower Case Numbers lookup 10 subtable" eight.osf
Substitution2: "<6,0> Monospaced Numbers lookup 9 subtable" eight.tf
Substitution2: "<11,2> Diagonal Fractions lookup 4 subtable" eight.numr
Substitution2: "<10,1> Superiors lookup 2 subtable" uni2078
Substitution2: "<10,2> Inferiors lookup 1 subtable" uni2088
EndChar

StartChar: nine
Encoding: 57 57 29
Width: 641
Flags: W
LayerCount: 2
Fore
SplineSet
216 29 m 128,-1,1
 262 18 262 18 304 18 c 0,2,3
 424 18 424 18 491 111.5 c 128,-1,4
 558 205 558 205 558 372 c 0,5,6
 558 397 558 397 554 451 c 1,7,8
 537 362 537 362 473.5 311.5 c 128,-1,9
 410 261 410 261 313 261 c 0,10,11
 210 261 210 261 150.5 318.5 c 128,-1,12
 91 376 91 376 91 478 c 0,13,14
 91 582 91 582 152.5 641.5 c 128,-1,15
 214 701 214 701 317 701 c 0,16,17
 441 701 441 701 509.5 615.5 c 128,-1,18
 578 530 578 530 578 369 c 0,19,20
 578 258 578 258 545 174 c 128,-1,21
 512 90 512 90 450.5 44 c 128,-1,22
 389 -2 389 -2 306 -2 c 0,23,24
 263 -2 263 -2 214.5 9.5 c 128,-1,25
 166 21 166 21 122 42 c 1,26,-1
 132 60 l 1,27,0
 170 40 170 40 216 29 c 128,-1,1
212 656 m 128,-1,29
 164 631 164 631 137.5 584.5 c 128,-1,30
 111 538 111 538 111 476 c 0,31,32
 111 386 111 386 166 333.5 c 128,-1,33
 221 281 221 281 313 281 c 0,34,35
 380 281 380 281 431 309.5 c 128,-1,36
 482 338 482 338 509.5 384.5 c 128,-1,37
 537 431 537 431 537 484 c 0,38,39
 537 527 537 527 513.5 573 c 128,-1,40
 490 619 490 619 441.5 650 c 128,-1,41
 393 681 393 681 322 681 c 0,42,28
 260 681 260 681 212 656 c 128,-1,29
EndSplineSet
Substitution2: "<21,0> Lower Case Numbers lookup 10 subtable" nine.osf
Substitution2: "<6,0> Monospaced Numbers lookup 9 subtable" nine.tf
Substitution2: "<11,2> Diagonal Fractions lookup 4 subtable" nine.numr
Substitution2: "<10,1> Superiors lookup 2 subtable" uni2079
Substitution2: "<10,2> Inferiors lookup 1 subtable" uni2089
EndChar

StartChar: less
Encoding: 60 60 32
Width: 480
Flags: W
LayerCount: 2
Fore
SplineSet
440 527 m 1,0,-1
 440 505 l 1,1,-1
 59 328 l 1,2,-1
 440 151 l 1,3,-1
 440 129 l 1,4,-1
 40 315 l 1,5,-1
 40 341 l 1,6,-1
 440 527 l 1,0,-1
EndSplineSet
Substitution2: "'rtla' Right to Left Alternates in Latin lookup 0 subtable" greater
EndChar

StartChar: equal
Encoding: 61 61 33
Width: 480
Flags: W
LayerCount: 2
Fore
SplineSet
40 430 m 1,0,-1
 440 430 l 1,1,-1
 440 410 l 1,2,-1
 40 410 l 1,3,-1
 40 430 l 1,0,-1
40 230 m 1,4,-1
 440 230 l 1,5,-1
 440 210 l 1,6,-1
 40 210 l 1,7,-1
 40 230 l 1,4,-1
EndSplineSet
EndChar

StartChar: greater
Encoding: 62 62 34
Width: 480
Flags: W
LayerCount: 2
Fore
SplineSet
40 129 m 1,0,-1
 40 151 l 1,1,-1
 421 328 l 1,2,-1
 40 505 l 1,3,-1
 40 527 l 1,4,-1
 440 341 l 1,5,-1
 440 315 l 1,6,-1
 40 129 l 1,0,-1
EndSplineSet
Substitution2: "'rtla' Right to Left Alternates in Latin lookup 0 subtable" less
EndChar

StartChar: question
Encoding: 63 63 35
Width: 395
Flags: W
LayerCount: 2
Fore
SplineSet
76 641.5 m 128,-1,1
 123 679 123 679 198 679 c 0,2,3
 275 679 275 679 323 640.5 c 128,-1,4
 371 602 371 602 371 528 c 0,5,6
 371 487 371 487 358.5 457.5 c 128,-1,7
 346 428 346 428 328 408.5 c 128,-1,8
 310 389 310 389 279 363 c 0,9,10
 249 338 249 338 231.5 319 c 128,-1,11
 214 300 214 300 202 272 c 128,-1,12
 190 244 190 244 190 206 c 1,13,-1
 170 206 l 1,14,15
 170 247 170 247 182.5 277 c 128,-1,16
 195 307 195 307 213.5 327 c 128,-1,17
 232 347 232 347 263 373 c 0,18,19
 293 399 293 399 310 417.5 c 128,-1,20
 327 436 327 436 339 463.5 c 128,-1,21
 351 491 351 491 351 529 c 0,22,23
 351 593 351 593 309 626 c 128,-1,24
 267 659 267 659 197 659 c 0,25,26
 129 659 129 659 88.5 627 c 128,-1,27
 48 595 48 595 44 534 c 1,28,-1
 24 536 l 1,29,0
 29 604 29 604 76 641.5 c 128,-1,1
196.5 37.5 m 128,-1,31
 204 30 204 30 204 19 c 0,32,33
 204 9 204 9 196.5 1 c 128,-1,34
 189 -7 189 -7 178 -7 c 0,35,36
 168 -7 168 -7 160 1 c 128,-1,37
 152 9 152 9 152 19 c 0,38,39
 152 30 152 30 160 37.5 c 128,-1,40
 168 45 168 45 178 45 c 0,41,30
 189 45 189 45 196.5 37.5 c 128,-1,31
EndSplineSet
Substitution2: "<3,3> Small Caps in Latin lookup 11 subtable" question.sc
EndChar

StartChar: at
Encoding: 64 64 36
Width: 1006
Flags: W
LayerCount: 2
Fore
SplineSet
754 29.5 m 128,-1,1
 776 4 776 4 807 4 c 0,2,3
 866 4 866 4 901 73.5 c 128,-1,4
 936 143 936 143 936 259 c 0,5,6
 936 385 936 385 880.5 486 c 128,-1,7
 825 587 825 587 727 644 c 128,-1,8
 629 701 629 701 507 701 c 0,9,10
 382 701 382 701 282.5 644.5 c 128,-1,11
 183 588 183 588 126.5 487.5 c 128,-1,12
 70 387 70 387 70 262 c 0,13,14
 70 142 70 142 125 46 c 128,-1,15
 180 -50 180 -50 276.5 -104 c 128,-1,16
 373 -158 373 -158 494 -158 c 0,17,18
 536 -158 536 -158 587 -145.5 c 128,-1,19
 638 -133 638 -133 673 -114 c 1,20,-1
 681 -132 l 1,21,22
 643 -152 643 -152 590 -165 c 128,-1,23
 537 -178 537 -178 494 -178 c 0,24,25
 367 -178 367 -178 266 -121.5 c 128,-1,26
 165 -65 165 -65 107.5 35.5 c 128,-1,27
 50 136 50 136 50 262 c 0,28,29
 50 393 50 393 109 498 c 128,-1,30
 168 603 168 603 272.5 662 c 128,-1,31
 377 721 377 721 507 721 c 0,32,33
 635 721 635 721 737.5 661.5 c 128,-1,34
 840 602 840 602 898 496.5 c 128,-1,35
 956 391 956 391 956 259 c 0,36,37
 956 176 956 176 937.5 114 c 128,-1,38
 919 52 919 52 885 18 c 128,-1,39
 851 -16 851 -16 805 -16 c 0,40,41
 766 -16 766 -16 739 15 c 128,-1,42
 712 46 712 46 712 96 c 2,43,-1
 712 160 l 1,44,45
 684 89 684 89 622 47.5 c 128,-1,46
 560 6 560 6 479 6 c 0,47,48
 407 6 407 6 349 39.5 c 128,-1,49
 291 73 291 73 258.5 132.5 c 128,-1,50
 226 192 226 192 226 266 c 256,51,52
 226 340 226 340 258.5 400 c 128,-1,53
 291 460 291 460 349 493.5 c 128,-1,54
 407 527 407 527 479 527 c 0,55,56
 560 527 560 527 622 485.5 c 128,-1,57
 684 444 684 444 712 373 c 1,58,-1
 712 525 l 1,59,-1
 732 525 l 1,60,-1
 732 96 l 2,61,0
 732 55 732 55 754 29.5 c 128,-1,1
359 476 m 128,-1,63
 306 445 306 445 276 390 c 128,-1,64
 246 335 246 335 246 266 c 256,65,66
 246 197 246 197 276 142.5 c 128,-1,67
 306 88 306 88 359 57 c 128,-1,68
 412 26 412 26 479 26 c 256,69,70
 546 26 546 26 599 57 c 128,-1,71
 652 88 652 88 682 142.5 c 128,-1,72
 712 197 712 197 712 266 c 256,73,74
 712 335 712 335 682 390 c 128,-1,75
 652 445 652 445 599 476 c 128,-1,76
 546 507 546 507 479 507 c 256,77,62
 412 507 412 507 359 476 c 128,-1,63
EndSplineSet
EndChar

StartChar: A
Encoding: 65 65 37
Width: 686
Flags: W
LayerCount: 2
Fore
SplineSet
653 0 m 1,0,-1
 555 213 l 1,1,-1
 131 213 l 1,2,-1
 34 0 l 1,3,-1
 10 0 l 1,4,-1
 330 699 l 1,5,-1
 352 699 l 1,6,-1
 676 0 l 1,7,-1
 653 0 l 1,0,-1
140 233 m 1,8,-1
 545 233 l 1,9,-1
 341 676 l 1,10,-1
 140 233 l 1,8,-1
EndSplineSet
Substitution2: "<11,2> Diagonal Fractions lookup 7 nested-substitutions 0 subtable" ordfeminine
Substitution2: "<11,2> Diagonal Fractions lookup 5 nested-substitutions 0 subtable" ordfeminine
EndChar

StartChar: B
Encoding: 66 66 38
Width: 731
Flags: W
LayerCount: 2
Fore
SplineSet
566 653.5 m 128,-1,1
 622 608 622 608 622 526 c 0,2,3
 622 460 622 460 586 417.5 c 128,-1,4
 550 375 550 375 484 364 c 1,5,6
 567 354 567 354 613 307.5 c 128,-1,7
 659 261 659 261 659 187 c 0,8,9
 659 98 659 98 593.5 49 c 128,-1,10
 528 0 528 0 409 0 c 2,11,-1
 128 0 l 1,12,-1
 128 699 l 1,13,-1
 409 699 l 2,14,0
 510 699 510 699 566 653.5 c 128,-1,1
551.5 412 m 128,-1,16
 602 452 602 452 602 526 c 0,17,18
 602 599 602 599 551.5 639 c 128,-1,19
 501 679 501 679 409 679 c 2,20,-1
 148 679 l 1,21,-1
 148 372 l 1,22,-1
 409 372 l 2,23,15
 501 372 501 372 551.5 412 c 128,-1,16
579.5 64 m 128,-1,25
 640 108 640 108 640 188 c 0,26,27
 640 267 640 267 579.5 310 c 128,-1,28
 519 353 519 353 409 353 c 2,29,-1
 148 353 l 1,30,-1
 148 20 l 1,31,-1
 409 20 l 2,32,24
 519 20 519 20 579.5 64 c 128,-1,25
EndSplineSet
EndChar

StartChar: C
Encoding: 67 67 39
Width: 705
Flags: W
LayerCount: 2
Fore
SplineSet
532.5 662 m 128,-1,1
 474 684 474 684 409 684 c 0,2,3
 317 684 317 684 239 639 c 128,-1,4
 161 594 161 594 115 517 c 128,-1,5
 69 440 69 440 69 350 c 256,6,7
 69 260 69 260 115 183 c 128,-1,8
 161 106 161 106 239 61 c 128,-1,9
 317 16 317 16 409 16 c 0,10,11
 473 16 473 16 531.5 38.5 c 128,-1,12
 590 61 590 61 636 102 c 1,13,-1
 650 89 l 1,14,15
 601 45 601 45 539 21 c 128,-1,16
 477 -3 477 -3 409 -3 c 0,17,18
 312 -3 312 -3 229.5 45 c 128,-1,19
 147 93 147 93 98.5 174 c 128,-1,20
 50 255 50 255 50 350 c 256,21,22
 50 445 50 445 98.5 526.5 c 128,-1,23
 147 608 147 608 229.5 655.5 c 128,-1,24
 312 703 312 703 409 703 c 0,25,26
 477 703 477 703 538.5 679 c 128,-1,27
 600 655 600 655 649 612 c 1,28,-1
 636 599 l 1,29,0
 591 640 591 640 532.5 662 c 128,-1,1
EndSplineSet
EndChar

StartChar: D
Encoding: 68 68 40
Width: 811
Flags: W
LayerCount: 2
Fore
SplineSet
582 652 m 128,-1,1
 664 605 664 605 712.5 524.5 c 128,-1,2
 761 444 761 444 761 349 c 0,3,4
 761 255 761 255 712.5 174.5 c 128,-1,5
 664 94 664 94 582 47 c 128,-1,6
 500 0 500 0 403 0 c 2,7,-1
 128 0 l 1,8,-1
 128 699 l 1,9,-1
 403 699 l 2,10,0
 500 699 500 699 582 652 c 128,-1,1
572 64.5 m 128,-1,12
 650 109 650 109 695.5 184.5 c 128,-1,13
 741 260 741 260 741 349 c 256,14,15
 741 438 741 438 695.5 514 c 128,-1,16
 650 590 650 590 572 634.5 c 128,-1,17
 494 679 494 679 403 679 c 2,18,-1
 148 679 l 1,19,-1
 148 20 l 1,20,-1
 403 20 l 2,21,11
 494 20 494 20 572 64.5 c 128,-1,12
EndSplineSet
EndChar

StartChar: E
Encoding: 69 69 41
Width: 644
Flags: W
LayerCount: 2
Fore
SplineSet
128 699 m 1,0,-1
 565 699 l 1,1,-1
 565 679 l 1,2,-1
 148 679 l 1,3,-1
 148 370 l 1,4,-1
 519 370 l 1,5,-1
 519 350 l 1,6,-1
 148 350 l 1,7,-1
 148 20 l 1,8,-1
 579 20 l 1,9,-1
 579 0 l 1,10,-1
 128 0 l 1,11,-1
 128 699 l 1,0,-1
EndSplineSet
EndChar

StartChar: F
Encoding: 70 70 42
Width: 545
Flags: W
LayerCount: 2
Fore
SplineSet
128 699 m 1,0,-1
 535 699 l 1,1,-1
 535 679 l 1,2,-1
 148 679 l 1,3,-1
 148 343 l 1,4,-1
 489 343 l 1,5,-1
 489 323 l 1,6,-1
 148 323 l 1,7,-1
 148 0 l 1,8,-1
 128 0 l 1,9,-1
 128 699 l 1,0,-1
EndSplineSet
EndChar

StartChar: G
Encoding: 71 71 43
Width: 760
Flags: W
LayerCount: 2
Fore
SplineSet
650 358 m 1,0,-1
 650 89 l 1,1,2
 601 45 601 45 539 21 c 128,-1,3
 477 -3 477 -3 409 -3 c 0,4,5
 312 -3 312 -3 229.5 45 c 128,-1,6
 147 93 147 93 98.5 174.5 c 128,-1,7
 50 256 50 256 50 351 c 256,8,9
 50 446 50 446 98.5 527 c 128,-1,10
 147 608 147 608 229.5 655.5 c 128,-1,11
 312 703 312 703 409 703 c 0,12,13
 477 703 477 703 538.5 679 c 128,-1,14
 600 655 600 655 649 612 c 1,15,-1
 636 599 l 1,16,17
 591 640 591 640 532.5 662 c 128,-1,18
 474 684 474 684 409 684 c 0,19,20
 317 684 317 684 239 639 c 128,-1,21
 161 594 161 594 115 517.5 c 128,-1,22
 69 441 69 441 69 351 c 256,23,24
 69 261 69 261 115 184 c 128,-1,25
 161 107 161 107 239 61.5 c 128,-1,26
 317 16 317 16 409 16 c 0,27,28
 471 16 471 16 528 37 c 128,-1,29
 585 58 585 58 630 97 c 1,30,-1
 630 338 l 1,31,-1
 409 338 l 1,32,-1
 409 358 l 1,33,-1
 650 358 l 1,0,-1
EndSplineSet
EndChar

StartChar: H
Encoding: 72 72 44
Width: 799
Flags: W
LayerCount: 2
Fore
SplineSet
128 699 m 1,0,-1
 148 699 l 1,1,-1
 148 363 l 1,2,-1
 651 363 l 1,3,-1
 651 699 l 1,4,-1
 671 699 l 1,5,-1
 671 0 l 1,6,-1
 651 0 l 1,7,-1
 651 343 l 1,8,-1
 148 343 l 1,9,-1
 148 0 l 1,10,-1
 128 0 l 1,11,-1
 128 699 l 1,0,-1
EndSplineSet
EndChar

StartChar: I
Encoding: 73 73 45
Width: 276
Flags: W
LayerCount: 2
Fore
SplineSet
128 699 m 1,0,-1
 148 699 l 1,1,-1
 148 0 l 1,2,-1
 128 0 l 1,3,-1
 128 699 l 1,0,-1
EndSplineSet
EndChar

StartChar: J
Encoding: 74 74 46
Width: 459
Flags: W
LayerCount: 2
Fore
SplineSet
304.5 51 m 128,-1,1
 260 0 260 0 177 0 c 0,2,3
 126 0 126 0 81 25.5 c 128,-1,4
 36 51 36 51 3 98 c 1,5,-1
 17 112 l 1,6,7
 48 67 48 67 89 43.5 c 128,-1,8
 130 20 130 20 177 20 c 0,9,10
 251 20 251 20 290 65.5 c 128,-1,11
 329 111 329 111 329 197 c 2,12,-1
 329 679 l 1,13,-1
 67 679 l 1,14,-1
 67 699 l 1,15,-1
 349 699 l 1,16,-1
 349 197 l 2,17,0
 349 102 349 102 304.5 51 c 128,-1,1
EndSplineSet
EndChar

StartChar: K
Encoding: 75 75 47
Width: 670
Flags: W
LayerCount: 2
Fore
SplineSet
640 0 m 1,0,-1
 613 0 l 1,1,-1
 313 370 l 1,2,-1
 148 191 l 1,3,-1
 148 0 l 1,4,-1
 128 0 l 1,5,-1
 128 699 l 1,6,-1
 148 699 l 1,7,-1
 148 220 l 1,8,-1
 590 699 l 1,9,-1
 618 699 l 1,10,-1
 327 385 l 1,11,-1
 640 0 l 1,0,-1
EndSplineSet
EndChar

StartChar: L
Encoding: 76 76 48
Width: 491
Flags: W
LayerCount: 2
Fore
SplineSet
128 699 m 1,0,-1
 148 699 l 1,1,-1
 148 20 l 1,2,-1
 461 20 l 1,3,-1
 461 0 l 1,4,-1
 128 0 l 1,5,-1
 128 699 l 1,0,-1
EndSplineSet
EndChar

StartChar: M
Encoding: 77 77 49
Width: 934
Flags: W
LayerCount: 2
Fore
SplineSet
128 699 m 1,0,-1
 163 699 l 1,1,-1
 468 120 l 1,2,-1
 771 699 l 1,3,-1
 806 699 l 1,4,-1
 806 0 l 1,5,-1
 786 0 l 1,6,-1
 785 680 l 1,7,-1
 468 77 l 1,8,-1
 466 77 l 1,9,-1
 148 680 l 1,10,-1
 148 0 l 1,11,-1
 128 0 l 1,12,-1
 128 699 l 1,0,-1
EndSplineSet
EndChar

StartChar: N
Encoding: 78 78 50
Width: 799
Flags: W
LayerCount: 2
Fore
SplineSet
651 699 m 1,0,-1
 671 699 l 1,1,-1
 671 0 l 1,2,-1
 641 0 l 1,3,-1
 148 679 l 1,4,-1
 148 0 l 1,5,-1
 128 0 l 1,6,-1
 128 699 l 1,7,-1
 158 699 l 1,8,-1
 651 20 l 1,9,-1
 651 699 l 1,0,-1
EndSplineSet
EndChar

StartChar: O
Encoding: 79 79 51
Width: 818
Flags: W
LayerCount: 2
Fore
SplineSet
588.5 655.5 m 128,-1,1
 671 608 671 608 719.5 527 c 128,-1,2
 768 446 768 446 768 351 c 256,3,4
 768 256 768 256 719.5 174.5 c 128,-1,5
 671 93 671 93 588.5 45 c 128,-1,6
 506 -3 506 -3 409 -3 c 256,7,8
 312 -3 312 -3 229.5 45 c 128,-1,9
 147 93 147 93 98.5 174.5 c 128,-1,10
 50 256 50 256 50 351 c 256,11,12
 50 446 50 446 98.5 527 c 128,-1,13
 147 608 147 608 229.5 655.5 c 128,-1,14
 312 703 312 703 409 703 c 256,15,0
 506 703 506 703 588.5 655.5 c 128,-1,1
240 638 m 128,-1,17
 162 593 162 593 116 516.5 c 128,-1,18
 70 440 70 440 70 351 c 0,19,20
 70 261 70 261 116 184 c 128,-1,21
 162 107 162 107 240 62 c 128,-1,22
 318 17 318 17 409 17 c 256,23,24
 500 17 500 17 578 62 c 128,-1,25
 656 107 656 107 702 184 c 128,-1,26
 748 261 748 261 748 351 c 0,27,28
 748 440 748 440 702 516.5 c 128,-1,29
 656 593 656 593 578 638 c 128,-1,30
 500 683 500 683 409 683 c 256,31,16
 318 683 318 683 240 638 c 128,-1,17
EndSplineSet
Substitution2: "<11,2> Diagonal Fractions lookup 7 nested-substitutions 0 subtable" ordmasculine
Substitution2: "<11,2> Diagonal Fractions lookup 5 nested-substitutions 0 subtable" ordmasculine
EndChar

StartChar: P
Encoding: 80 80 52
Width: 662
Flags: W
LayerCount: 2
Fore
SplineSet
562 639.5 m 128,-1,1
 632 580 632 580 632 472 c 0,2,3
 632 362 632 362 562 301 c 128,-1,4
 492 240 492 240 365 240 c 2,5,-1
 148 240 l 1,6,-1
 148 0 l 1,7,-1
 128 0 l 1,8,-1
 128 699 l 1,9,-1
 365 699 l 2,10,0
 492 699 492 699 562 639.5 c 128,-1,1
547.5 315.5 m 128,-1,12
 612 371 612 371 612 472 c 0,13,14
 612 571 612 571 547.5 625 c 128,-1,15
 483 679 483 679 365 679 c 2,16,-1
 148 679 l 1,17,-1
 148 260 l 1,18,-1
 365 260 l 2,19,11
 483 260 483 260 547.5 315.5 c 128,-1,12
EndSplineSet
EndChar

StartChar: Q
Encoding: 81 81 53
Width: 835
Flags: W
LayerCount: 2
Fore
SplineSet
808 -48 m 1,0,1
 728 -124 728 -124 648 -124 c 0,2,3
 597 -124 597 -124 544.5 -94 c 128,-1,4
 492 -64 492 -64 434 -2 c 1,5,6
 426 -3 426 -3 409 -3 c 0,7,8
 312 -3 312 -3 229.5 45 c 128,-1,9
 147 93 147 93 98.5 174.5 c 128,-1,10
 50 256 50 256 50 351 c 256,11,12
 50 446 50 446 98.5 527 c 128,-1,13
 147 608 147 608 229.5 655.5 c 128,-1,14
 312 703 312 703 409 703 c 256,15,16
 506 703 506 703 588.5 655.5 c 128,-1,17
 671 608 671 608 719.5 527 c 128,-1,18
 768 446 768 446 768 351 c 0,19,20
 768 264 768 264 727 188 c 128,-1,21
 686 112 686 112 615.5 62 c 128,-1,22
 545 12 545 12 459 0 c 1,23,24
 512 -53 512 -53 558 -79 c 128,-1,25
 604 -105 604 -105 648 -105 c 0,26,27
 718 -105 718 -105 794 -34 c 1,28,-1
 808 -48 l 1,0,1
116 184 m 128,-1,30
 162 107 162 107 240 62 c 128,-1,31
 318 17 318 17 409 17 c 256,32,33
 500 17 500 17 578 62 c 128,-1,34
 656 107 656 107 702 184 c 128,-1,35
 748 261 748 261 748 351 c 0,36,37
 748 440 748 440 702 516.5 c 128,-1,38
 656 593 656 593 578 638 c 128,-1,39
 500 683 500 683 409 683 c 256,40,41
 318 683 318 683 240 638 c 128,-1,42
 162 593 162 593 116 516.5 c 128,-1,43
 70 440 70 440 70 351 c 0,44,29
 70 261 70 261 116 184 c 128,-1,30
EndSplineSet
EndChar

StartChar: R
Encoding: 82 82 54
Width: 722
Flags: W
LayerCount: 2
Fore
SplineSet
585 324.5 m 128,-1,1
 538 267 538 267 451 248 c 1,2,-1
 632 0 l 1,3,-1
 607 0 l 1,4,-1
 429 244 l 1,5,6
 389 240 389 240 365 240 c 2,7,-1
 148 240 l 1,8,-1
 148 0 l 1,9,-1
 128 0 l 1,10,-1
 128 699 l 1,11,-1
 365 699 l 2,12,13
 492 699 492 699 562 639.5 c 128,-1,14
 632 580 632 580 632 472 c 0,15,0
 632 382 632 382 585 324.5 c 128,-1,1
365 260 m 2,16,17
 483 260 483 260 547.5 315.5 c 128,-1,18
 612 371 612 371 612 472 c 0,19,20
 612 571 612 571 547.5 625 c 128,-1,21
 483 679 483 679 365 679 c 2,22,-1
 148 679 l 1,23,-1
 148 260 l 1,24,-1
 365 260 l 2,16,17
EndSplineSet
EndChar

StartChar: S
Encoding: 83 83 55
Width: 593
Flags: W
LayerCount: 2
Fore
SplineSet
396.5 670.5 m 128,-1,1
 349 683 349 683 302 683 c 0,2,3
 210 683 210 683 154.5 645.5 c 128,-1,4
 99 608 99 608 99 546 c 0,5,6
 99 492 99 492 126 459 c 128,-1,7
 153 426 153 426 192.5 408.5 c 128,-1,8
 232 391 232 391 300 370 c 0,9,10
 372 348 372 348 415 328.5 c 128,-1,11
 458 309 458 309 487.5 271 c 128,-1,12
 517 233 517 233 517 171 c 0,13,14
 517 119 517 119 488 79.5 c 128,-1,15
 459 40 459 40 405.5 18.5 c 128,-1,16
 352 -3 352 -3 280 -3 c 0,17,18
 214 -3 214 -3 149.5 24 c 128,-1,19
 85 51 85 51 41 96 c 1,20,-1
 55 110 l 1,21,22
 95 67 95 67 156 42 c 128,-1,23
 217 17 217 17 280 17 c 0,24,25
 379 17 379 17 438 59 c 128,-1,26
 497 101 497 101 497 171 c 0,27,28
 497 226 497 226 469.5 259.5 c 128,-1,29
 442 293 442 293 402 311.5 c 128,-1,30
 362 330 362 330 293 351 c 0,31,32
 222 373 222 373 179.5 392.5 c 128,-1,33
 137 412 137 412 108 449 c 128,-1,34
 79 486 79 486 79 547 c 0,35,36
 79 618 79 618 140 660.5 c 128,-1,37
 201 703 201 703 302 703 c 0,38,39
 351 703 351 703 401.5 689 c 128,-1,40
 452 675 452 675 488 652 c 1,41,-1
 478 636 l 1,42,0
 444 658 444 658 396.5 670.5 c 128,-1,1
EndSplineSet
EndChar

StartChar: T
Encoding: 84 84 56
Width: 526
Flags: W
LayerCount: 2
Fore
SplineSet
13 699 m 1,0,-1
 513 699 l 1,1,-1
 513 679 l 1,2,-1
 273 679 l 1,3,-1
 273 0 l 1,4,-1
 253 0 l 1,5,-1
 253 679 l 1,6,-1
 13 679 l 1,7,-1
 13 699 l 1,0,-1
EndSplineSet
EndChar

StartChar: U
Encoding: 85 85 57
Width: 774
Flags: W
LayerCount: 2
Fore
SplineSet
197.5 86 m 128,-1,1
 265 17 265 17 387 17 c 256,2,3
 509 17 509 17 576.5 86 c 128,-1,4
 644 155 644 155 644 281 c 2,5,-1
 644 699 l 1,6,-1
 664 699 l 1,7,-1
 664 281 l 2,8,9
 664 145 664 145 591.5 71 c 128,-1,10
 519 -3 519 -3 387 -3 c 256,11,12
 255 -3 255 -3 182.5 71 c 128,-1,13
 110 145 110 145 110 281 c 2,14,-1
 110 699 l 1,15,-1
 130 699 l 1,16,-1
 130 281 l 2,17,0
 130 155 130 155 197.5 86 c 128,-1,1
EndSplineSet
EndChar

StartChar: V
Encoding: 86 86 58
Width: 626
Flags: W
LayerCount: 2
Fore
SplineSet
10 699 m 1,0,-1
 33 699 l 1,1,-1
 313 23 l 1,2,-1
 592 699 l 1,3,-1
 616 699 l 1,4,-1
 324 0 l 1,5,-1
 302 0 l 1,6,-1
 10 699 l 1,0,-1
EndSplineSet
EndChar

StartChar: W
Encoding: 87 87 59
Width: 987
Flags: W
LayerCount: 2
Fore
SplineSet
954 699 m 1,0,-1
 977 699 l 1,1,-1
 740 0 l 1,2,-1
 719 0 l 1,3,-1
 494 671 l 1,4,-1
 268 0 l 1,5,-1
 247 0 l 1,6,-1
 10 699 l 1,7,-1
 33 699 l 1,8,-1
 258 23 l 1,9,-1
 482 699 l 1,10,-1
 505 699 l 1,11,-1
 730 23 l 1,12,-1
 954 699 l 1,0,-1
EndSplineSet
EndChar

StartChar: X
Encoding: 88 88 60
Width: 623
Flags: W
LayerCount: 2
Fore
SplineSet
52 699 m 1,0,-1
 76 699 l 1,1,-1
 306 379 l 1,2,-1
 537 699 l 1,3,-1
 561 699 l 1,4,-1
 318 362 l 1,5,-1
 580 0 l 1,6,-1
 556 0 l 1,7,-1
 306 346 l 1,8,-1
 57 0 l 1,9,-1
 33 0 l 1,10,-1
 294 362 l 1,11,-1
 52 699 l 1,0,-1
EndSplineSet
EndChar

StartChar: Y
Encoding: 89 89 61
Width: 606
Flags: W
LayerCount: 2
Fore
SplineSet
596 699 m 1,0,-1
 315 269 l 1,1,-1
 315 0 l 1,2,-1
 295 0 l 1,3,-1
 295 269 l 1,4,-1
 10 699 l 1,5,-1
 34 699 l 1,6,-1
 305 289 l 1,7,-1
 572 699 l 1,8,-1
 596 699 l 1,0,-1
EndSplineSet
EndChar

StartChar: Z
Encoding: 90 90 62
Width: 650
Flags: W
LayerCount: 2
Fore
SplineSet
66 699 m 1,0,-1
 595 699 l 1,1,-1
 595 674 l 1,2,-1
 72 20 l 1,3,-1
 598 20 l 1,4,-1
 598 0 l 1,5,-1
 52 0 l 1,6,-1
 52 25 l 1,7,-1
 575 679 l 1,8,-1
 66 679 l 1,9,-1
 66 699 l 1,0,-1
EndSplineSet
EndChar

StartChar: bracketleft
Encoding: 91 91 63
Width: 284
Flags: W
LayerCount: 2
Fore
SplineSet
108 742 m 1,0,-1
 257 742 l 1,1,-1
 257 722 l 1,2,-1
 128 722 l 1,3,-1
 128 -104 l 1,4,-1
 257 -104 l 1,5,-1
 257 -124 l 1,6,-1
 108 -124 l 1,7,-1
 108 742 l 1,0,-1
EndSplineSet
Substitution2: "'rtla' Right to Left Alternates in Latin lookup 0 subtable" bracketright
EndChar

StartChar: backslash
Encoding: 92 92 64
Width: 294
Flags: W
LayerCount: 2
Fore
SplineSet
-16 826 m 1,0,-1
 290 -130 l 1,1,-1
 269 -130 l 1,2,-1
 -37 826 l 1,3,-1
 -16 826 l 1,0,-1
EndSplineSet
EndChar

StartChar: bracketright
Encoding: 93 93 65
Width: 284
Flags: W
LayerCount: 2
Fore
SplineSet
176 742 m 1,0,-1
 176 -124 l 1,1,-1
 27 -124 l 1,2,-1
 27 -104 l 1,3,-1
 156 -104 l 1,4,-1
 156 722 l 1,5,-1
 27 722 l 1,6,-1
 27 742 l 1,7,-1
 176 742 l 1,0,-1
EndSplineSet
Substitution2: "'rtla' Right to Left Alternates in Latin lookup 0 subtable" bracketleft
EndChar

StartChar: asciicircum
Encoding: 94 94 66
Width: 478
Flags: W
LayerCount: 2
Fore
SplineSet
438 128 m 1,0,-1
 416 128 l 1,1,-1
 239 509 l 1,2,-1
 62 128 l 1,3,-1
 40 128 l 1,4,-1
 226 528 l 1,5,-1
 252 528 l 1,6,-1
 438 128 l 1,0,-1
EndSplineSet
EndChar

StartChar: underscore
Encoding: 95 95 67
Width: 537
Flags: W
LayerCount: 2
Fore
SplineSet
0 -184 m 1,0,-1
 537 -184 l 1,1,-1
 537 -204 l 1,2,-1
 0 -204 l 1,3,-1
 0 -184 l 1,0,-1
EndSplineSet
EndChar

StartChar: a
Encoding: 97 97 69
Width: 562
Flags: W
LayerCount: 2
Fore
SplineSet
449 0 m 1,0,-1
 448 117 l 1,1,2
 414 58 414 58 358.5 29 c 128,-1,3
 303 0 303 0 231 0 c 0,4,5
 157 0 157 0 110 42 c 128,-1,6
 63 84 63 84 63 149 c 0,7,8
 63 212 63 212 114.5 247 c 128,-1,9
 166 282 166 282 255 282 c 2,10,-1
 447 282 l 1,11,-1
 447 345 l 2,12,13
 446 418 446 418 404.5 457.5 c 128,-1,14
 363 497 363 497 283 497 c 0,15,16
 234 497 234 497 190.5 478.5 c 128,-1,17
 147 460 147 460 102 425 c 1,18,-1
 90 441 l 1,19,20
 186 517 186 517 283 517 c 0,21,22
 371 517 371 517 418.5 471 c 128,-1,23
 466 425 466 425 467 345 c 2,24,-1
 469 0 l 1,25,-1
 449 0 l 1,0,-1
364 54 m 128,-1,27
 418 88 418 88 448 162 c 1,28,-1
 447 262 l 1,29,-1
 255 262 l 2,30,31
 173 262 173 262 128 232.5 c 128,-1,32
 83 203 83 203 83 149 c 0,33,34
 83 91 83 91 123.5 55.5 c 128,-1,35
 164 20 164 20 232 20 c 0,36,26
 310 20 310 20 364 54 c 128,-1,27
EndSplineSet
Substitution2: "<3,3> Small Caps in Latin lookup 11 subtable" a.sc
Substitution2: "<11,2> Diagonal Fractions lookup 7 nested-substitutions 0 subtable" ordfeminine
Substitution2: "<11,2> Diagonal Fractions lookup 5 nested-substitutions 0 subtable" ordfeminine
EndChar

StartChar: b
Encoding: 98 98 70
Width: 669
Flags: W
LayerCount: 2
Fore
SplineSet
495 483.5 m 128,-1,1
 552 450 552 450 584.5 391 c 128,-1,2
 617 332 617 332 617 258 c 256,3,4
 617 184 617 184 584.5 125.5 c 128,-1,5
 552 67 552 67 495 33.5 c 128,-1,6
 438 0 438 0 366 0 c 0,7,8
 286 0 286 0 224.5 41 c 128,-1,9
 163 82 163 82 135 152 c 1,10,-1
 135 0 l 1,11,-1
 115 0 l 1,12,-1
 115 742 l 1,13,-1
 135 742 l 1,14,-1
 135 365 l 1,15,16
 163 435 163 435 224.5 476 c 128,-1,17
 286 517 286 517 366 517 c 0,18,0
 438 517 438 517 495 483.5 c 128,-1,1
484.5 50.5 m 128,-1,20
 537 81 537 81 567 135.5 c 128,-1,21
 597 190 597 190 597 258 c 256,22,23
 597 326 597 326 567 380.5 c 128,-1,24
 537 435 537 435 484.5 466 c 128,-1,25
 432 497 432 497 366 497 c 256,26,27
 300 497 300 497 247.5 466 c 128,-1,28
 195 435 195 435 165 380.5 c 128,-1,29
 135 326 135 326 135 258 c 256,30,31
 135 190 135 190 165 135.5 c 128,-1,32
 195 81 195 81 247.5 50.5 c 128,-1,33
 300 20 300 20 366 20 c 256,34,19
 432 20 432 20 484.5 50.5 c 128,-1,20
EndSplineSet
Substitution2: "<3,3> Small Caps in Latin lookup 11 subtable" b.sc
EndChar

StartChar: c
Encoding: 99 99 71
Width: 557
Flags: W
LayerCount: 2
Fore
SplineSet
303 497 m 0,1,2
 237 497 237 497 184 466.5 c 128,-1,3
 131 436 131 436 101 382 c 128,-1,4
 71 328 71 328 71 259 c 256,5,6
 71 190 71 190 101 135.5 c 128,-1,7
 131 81 131 81 184 50.5 c 128,-1,8
 237 20 237 20 303 20 c 0,9,10
 356 20 356 20 400.5 39.5 c 128,-1,11
 445 59 445 59 477 95 c 1,12,-1
 490 81 l 1,13,14
 456 42 456 42 407.5 21 c 128,-1,15
 359 0 359 0 303 0 c 0,16,17
 232 0 232 0 174.5 33.5 c 128,-1,18
 117 67 117 67 84.5 126 c 128,-1,19
 52 185 52 185 52 259 c 256,20,21
 52 333 52 333 84.5 392 c 128,-1,22
 117 451 117 451 174.5 484 c 128,-1,23
 232 517 232 517 303 517 c 0,24,25
 354 517 354 517 399.5 499 c 128,-1,26
 445 481 445 481 479 448 c 1,27,-1
 466 434 l 1,28,0
 397 497 397 497 303 497 c 0,1,2
EndSplineSet
Substitution2: "<3,3> Small Caps in Latin lookup 11 subtable" c.sc
EndChar

StartChar: d
Encoding: 100 100 72
Width: 673
Flags: W
LayerCount: 2
Fore
SplineSet
558 742 m 1,0,-1
 558 0 l 1,1,-1
 538 0 l 1,2,-1
 538 152 l 1,3,4
 509 81 509 81 447.5 39.5 c 128,-1,5
 386 -2 386 -2 305 -2 c 0,6,7
 233 -2 233 -2 175 31.5 c 128,-1,8
 117 65 117 65 84.5 124.5 c 128,-1,9
 52 184 52 184 52 258 c 256,10,11
 52 332 52 332 84.5 392 c 128,-1,12
 117 452 117 452 175 485.5 c 128,-1,13
 233 519 233 519 305 519 c 0,14,15
 386 519 386 519 447.5 477.5 c 128,-1,16
 509 436 509 436 538 365 c 1,17,-1
 538 742 l 1,18,-1
 558 742 l 1,0,-1
425 49 m 128,-1,20
 478 80 478 80 508 134.5 c 128,-1,21
 538 189 538 189 538 258 c 256,22,23
 538 327 538 327 508 382 c 128,-1,24
 478 437 478 437 425 468 c 128,-1,25
 372 499 372 499 305 499 c 256,26,27
 238 499 238 499 185 468 c 128,-1,28
 132 437 132 437 102 382 c 128,-1,29
 72 327 72 327 72 258 c 256,30,31
 72 189 72 189 102 134.5 c 128,-1,32
 132 80 132 80 185 49 c 128,-1,33
 238 18 238 18 305 18 c 256,34,19
 372 18 372 18 425 49 c 128,-1,20
EndSplineSet
Substitution2: "<3,3> Small Caps in Latin lookup 11 subtable" d.sc
EndChar

StartChar: e
Encoding: 101 101 73
Width: 589
Flags: W
LayerCount: 2
Fore
SplineSet
404.5 39.5 m 128,-1,1
 452 59 452 59 484 95 c 1,2,-1
 498 81 l 1,3,4
 462 42 462 42 411 21 c 128,-1,5
 360 0 360 0 301 0 c 0,6,7
 230 0 230 0 173.5 33.5 c 128,-1,8
 117 67 117 67 84.5 126 c 128,-1,9
 52 185 52 185 52 259 c 256,10,11
 52 333 52 333 84.5 392 c 128,-1,12
 117 451 117 451 173.5 484 c 128,-1,13
 230 517 230 517 301 517 c 256,14,15
 372 517 372 517 426.5 484 c 128,-1,16
 481 451 481 451 511 392 c 128,-1,17
 541 333 541 333 541 259 c 1,18,-1
 72 259 l 1,19,20
 72 190 72 190 101.5 135.5 c 128,-1,21
 131 81 131 81 183 50.5 c 128,-1,22
 235 20 235 20 301 20 c 0,23,0
 357 20 357 20 404.5 39.5 c 128,-1,1
187.5 469.5 m 128,-1,25
 137 442 137 442 107 392.5 c 128,-1,26
 77 343 77 343 73 279 c 1,27,-1
 521 279 l 1,28,29
 514 377 514 377 455 437 c 128,-1,30
 396 497 396 497 301 497 c 0,31,24
 238 497 238 497 187.5 469.5 c 128,-1,25
EndSplineSet
Substitution2: "<3,3> Small Caps in Latin lookup 11 subtable" e.sc
EndChar

StartChar: f
Encoding: 102 102 74
Width: 295
Flags: W
LayerCount: 2
Fore
SplineSet
173 691.5 m 128,-1,1
 137 651 137 651 137 590 c 2,2,-1
 137 507 l 1,3,-1
 305 507 l 1,4,-1
 305 487 l 1,5,-1
 137 487 l 1,6,-1
 137 0 l 1,7,-1
 117 0 l 1,8,-1
 117 487 l 1,9,-1
 52 487 l 1,10,-1
 52 507 l 1,11,-1
 117 507 l 1,12,-1
 117 590 l 2,13,14
 117 634 117 634 136 671.5 c 128,-1,15
 155 709 155 709 187 730.5 c 128,-1,16
 219 752 219 752 258 752 c 0,17,18
 304 752 304 752 346 728 c 1,19,-1
 335 711 l 1,20,21
 299 732 299 732 263 732 c 0,22,0
 209 732 209 732 173 691.5 c 128,-1,1
EndSplineSet
Substitution2: "<3,3> Small Caps in Latin lookup 11 subtable" f.sc
EndChar

StartChar: g
Encoding: 103 103 75
Width: 630
Flags: W
LayerCount: 2
Fore
SplineSet
536 517 m 1,0,-1
 536 58 l 2,1,2
 536 -18 536 -18 505.5 -75 c 128,-1,3
 475 -132 475 -132 419.5 -163 c 128,-1,4
 364 -194 364 -194 290 -194 c 0,5,6
 229 -194 229 -194 178.5 -171.5 c 128,-1,7
 128 -149 128 -149 82 -104 c 1,8,-1
 96 -90 l 1,9,10
 138 -132 138 -132 185.5 -153 c 128,-1,11
 233 -174 233 -174 290 -174 c 0,12,13
 358 -174 358 -174 409 -145.5 c 128,-1,14
 460 -117 460 -117 488 -64.5 c 128,-1,15
 516 -12 516 -12 516 58 c 2,16,-1
 516 166 l 1,17,18
 489 98 489 98 429.5 58.5 c 128,-1,19
 370 19 370 19 293 19 c 0,20,21
 224 19 224 19 169 51 c 128,-1,22
 114 83 114 83 83 139.5 c 128,-1,23
 52 196 52 196 52 267 c 0,24,25
 52 339 52 339 83 396 c 128,-1,26
 114 453 114 453 169 485 c 128,-1,27
 224 517 224 517 293 517 c 0,28,29
 370 517 370 517 429.5 477 c 128,-1,30
 489 437 489 437 516 369 c 1,31,-1
 516 517 l 1,32,-1
 536 517 l 1,0,-1
407.5 67.5 m 128,-1,34
 458 97 458 97 487 149.5 c 128,-1,35
 516 202 516 202 516 267 c 0,36,37
 516 333 516 333 487 385.5 c 128,-1,38
 458 438 458 438 407.5 468 c 128,-1,39
 357 498 357 498 293 498 c 256,40,41
 229 498 229 498 178.5 468 c 128,-1,42
 128 438 128 438 99.5 385.5 c 128,-1,43
 71 333 71 333 71 267 c 0,44,45
 71 202 71 202 99.5 149.5 c 128,-1,46
 128 97 128 97 178.5 67.5 c 128,-1,47
 229 38 229 38 293 38 c 256,48,33
 357 38 357 38 407.5 67.5 c 128,-1,34
EndSplineSet
Substitution2: "<3,3> Small Caps in Latin lookup 11 subtable" g.sc
EndChar

StartChar: h
Encoding: 104 104 76
Width: 650
Flags: W
LayerCount: 2
Fore
SplineSet
503.5 463 m 128,-1,1
 557 409 557 409 557 313 c 2,2,-1
 557 0 l 1,3,-1
 537 0 l 1,4,-1
 537 313 l 2,5,6
 537 400 537 400 488.5 448.5 c 128,-1,7
 440 497 440 497 354 497 c 0,8,9
 251 495 251 495 193 430.5 c 128,-1,10
 135 366 135 366 135 253 c 2,11,-1
 135 0 l 1,12,-1
 115 0 l 1,13,-1
 115 742 l 1,14,-1
 135 742 l 1,15,-1
 135 368 l 1,16,17
 160 438 160 438 216 477 c 128,-1,18
 272 516 272 516 354 517 c 0,19,0
 450 517 450 517 503.5 463 c 128,-1,1
EndSplineSet
Substitution2: "<3,3> Small Caps in Latin lookup 11 subtable" h.sc
EndChar

StartChar: k
Encoding: 107 107 79
Width: 538
Flags: W
LayerCount: 2
Fore
SplineSet
498 0 m 1,0,-1
 281 302 l 1,1,-1
 135 154 l 1,2,-1
 135 0 l 1,3,-1
 115 0 l 1,4,-1
 115 742 l 1,5,-1
 135 742 l 1,6,-1
 135 185 l 1,7,-1
 464 517 l 1,8,-1
 492 517 l 1,9,-1
 295 317 l 1,10,-1
 522 0 l 1,11,-1
 498 0 l 1,0,-1
EndSplineSet
Substitution2: "<3,3> Small Caps in Latin lookup 11 subtable" k.sc
EndChar

StartChar: l
Encoding: 108 108 80
Width: 250
Flags: W
LayerCount: 2
Fore
SplineSet
115 742 m 1,0,-1
 135 742 l 1,1,-1
 135 0 l 1,2,-1
 115 0 l 1,3,-1
 115 742 l 1,0,-1
EndSplineSet
Substitution2: "<3,3> Small Caps in Latin lookup 11 subtable" l.sc
EndChar

StartChar: m
Encoding: 109 109 81
Width: 1046
Flags: W
LayerCount: 2
Fore
SplineSet
901 463 m 128,-1,1
 953 409 953 409 953 313 c 2,2,-1
 953 0 l 1,3,-1
 933 0 l 1,4,-1
 933 313 l 2,5,6
 933 400 933 400 886 448.5 c 128,-1,7
 839 497 839 497 755 497 c 0,8,9
 654 495 654 495 598 430.5 c 128,-1,10
 542 366 542 366 542 253 c 2,11,-1
 542 0 l 1,12,-1
 522 0 l 1,13,-1
 522 313 l 2,14,15
 522 400 522 400 474.5 448.5 c 128,-1,16
 427 497 427 497 343 497 c 0,17,18
 243 495 243 495 186.5 430.5 c 128,-1,19
 130 366 130 366 130 253 c 2,20,-1
 130 0 l 1,21,-1
 110 0 l 1,22,-1
 110 517 l 1,23,-1
 130 517 l 1,24,-1
 130 369 l 1,25,26
 154 439 154 439 209 477.5 c 128,-1,27
 264 516 264 516 344 517 c 0,28,29
 425 517 425 517 476 475.5 c 128,-1,30
 527 434 527 434 539 359 c 1,31,32
 562 434 562 434 617.5 475 c 128,-1,33
 673 516 673 516 755 517 c 0,34,0
 849 517 849 517 901 463 c 128,-1,1
EndSplineSet
Substitution2: "<3,3> Small Caps in Latin lookup 11 subtable" m.sc
EndChar

StartChar: n
Encoding: 110 110 82
Width: 644
Flags: W
LayerCount: 2
Fore
SplineSet
497.5 463 m 128,-1,1
 551 409 551 409 551 313 c 2,2,-1
 551 0 l 1,3,-1
 531 0 l 1,4,-1
 531 313 l 2,5,6
 531 400 531 400 482.5 448.5 c 128,-1,7
 434 497 434 497 348 497 c 0,8,9
 252 495 252 495 195 438 c 128,-1,10
 138 381 138 381 130 281 c 1,11,-1
 130 0 l 1,12,-1
 110 0 l 1,13,-1
 110 517 l 1,14,-1
 130 517 l 1,15,-1
 130 371 l 1,16,17
 155 440 155 440 211 478 c 128,-1,18
 267 516 267 516 348 517 c 0,19,0
 444 517 444 517 497.5 463 c 128,-1,1
EndSplineSet
Substitution2: "<3,3> Small Caps in Latin lookup 11 subtable" n.sc
EndChar

StartChar: o
Encoding: 111 111 83
Width: 606
Flags: W
LayerCount: 2
Fore
SplineSet
431.5 484 m 128,-1,1
 489 451 489 451 521.5 392 c 128,-1,2
 554 333 554 333 554 259 c 256,3,4
 554 185 554 185 521.5 126 c 128,-1,5
 489 67 489 67 431.5 33.5 c 128,-1,6
 374 0 374 0 303 0 c 256,7,8
 232 0 232 0 174.5 33.5 c 128,-1,9
 117 67 117 67 84.5 126 c 128,-1,10
 52 185 52 185 52 259 c 256,11,12
 52 333 52 333 84.5 392 c 128,-1,13
 117 451 117 451 174.5 484 c 128,-1,14
 232 517 232 517 303 517 c 256,15,0
 374 517 374 517 431.5 484 c 128,-1,1
184 466.5 m 128,-1,17
 131 436 131 436 101.5 382 c 128,-1,18
 72 328 72 328 72 259 c 256,19,20
 72 190 72 190 101.5 135.5 c 128,-1,21
 131 81 131 81 184 50.5 c 128,-1,22
 237 20 237 20 303 20 c 256,23,24
 369 20 369 20 422 50.5 c 128,-1,25
 475 81 475 81 504.5 135.5 c 128,-1,26
 534 190 534 190 534 259 c 256,27,28
 534 328 534 328 504.5 382 c 128,-1,29
 475 436 475 436 422 466.5 c 128,-1,30
 369 497 369 497 303 497 c 256,31,16
 237 497 237 497 184 466.5 c 128,-1,17
EndSplineSet
Substitution2: "<3,3> Small Caps in Latin lookup 11 subtable" o.sc
Substitution2: "<11,2> Diagonal Fractions lookup 7 nested-substitutions 0 subtable" ordmasculine
Substitution2: "<11,2> Diagonal Fractions lookup 5 nested-substitutions 0 subtable" ordmasculine
EndChar

StartChar: p
Encoding: 112 112 84
Width: 669
Flags: W
LayerCount: 2
Fore
SplineSet
495 483.5 m 128,-1,1
 552 450 552 450 584.5 391 c 128,-1,2
 617 332 617 332 617 258 c 256,3,4
 617 184 617 184 584.5 125.5 c 128,-1,5
 552 67 552 67 495 33.5 c 128,-1,6
 438 0 438 0 366 0 c 0,7,8
 286 0 286 0 224.5 41 c 128,-1,9
 163 82 163 82 135 152 c 1,10,-1
 135 -194 l 1,11,-1
 115 -194 l 1,12,-1
 115 517 l 1,13,-1
 135 517 l 1,14,-1
 135 365 l 1,15,16
 163 435 163 435 224.5 476 c 128,-1,17
 286 517 286 517 366 517 c 0,18,0
 438 517 438 517 495 483.5 c 128,-1,1
484.5 50.5 m 128,-1,20
 537 81 537 81 567 135.5 c 128,-1,21
 597 190 597 190 597 258 c 256,22,23
 597 326 597 326 567 380.5 c 128,-1,24
 537 435 537 435 484.5 466 c 128,-1,25
 432 497 432 497 366 497 c 256,26,27
 300 497 300 497 247.5 466 c 128,-1,28
 195 435 195 435 165 380.5 c 128,-1,29
 135 326 135 326 135 258 c 256,30,31
 135 190 135 190 165 135.5 c 128,-1,32
 195 81 195 81 247.5 50.5 c 128,-1,33
 300 20 300 20 366 20 c 256,34,19
 432 20 432 20 484.5 50.5 c 128,-1,20
EndSplineSet
Substitution2: "<3,3> Small Caps in Latin lookup 11 subtable" p.sc
EndChar

StartChar: q
Encoding: 113 113 85
Width: 673
Flags: W
LayerCount: 2
Fore
SplineSet
558 517 m 1,0,-1
 558 -194 l 1,1,-1
 538 -194 l 1,2,-1
 538 152 l 1,3,4
 509 81 509 81 447.5 39.5 c 128,-1,5
 386 -2 386 -2 305 -2 c 0,6,7
 233 -2 233 -2 175 31.5 c 128,-1,8
 117 65 117 65 84.5 124.5 c 128,-1,9
 52 184 52 184 52 258 c 256,10,11
 52 332 52 332 84.5 392 c 128,-1,12
 117 452 117 452 175 485.5 c 128,-1,13
 233 519 233 519 305 519 c 0,14,15
 386 519 386 519 447.5 477.5 c 128,-1,16
 509 436 509 436 538 365 c 1,17,-1
 538 517 l 1,18,-1
 558 517 l 1,0,-1
425 49 m 128,-1,20
 478 80 478 80 508 134.5 c 128,-1,21
 538 189 538 189 538 258 c 256,22,23
 538 327 538 327 508 382 c 128,-1,24
 478 437 478 437 425 468 c 128,-1,25
 372 499 372 499 305 499 c 256,26,27
 238 499 238 499 185 468 c 128,-1,28
 132 437 132 437 102 382 c 128,-1,29
 72 327 72 327 72 258 c 256,30,31
 72 189 72 189 102 134.5 c 128,-1,32
 132 80 132 80 185 49 c 128,-1,33
 238 18 238 18 305 18 c 256,34,19
 372 18 372 18 425 49 c 128,-1,20
EndSplineSet
Substitution2: "<3,3> Small Caps in Latin lookup 11 subtable" q.sc
EndChar

StartChar: r
Encoding: 114 114 86
Width: 338
Flags: W
LayerCount: 2
Fore
SplineSet
204 479 m 128,-1,1
 255 516 255 516 328 517 c 1,2,-1
 328 497 l 1,3,4
 240 495 240 495 188.5 438.5 c 128,-1,5
 137 382 137 382 130 283 c 1,6,-1
 130 0 l 1,7,-1
 110 0 l 1,8,-1
 110 517 l 1,9,-1
 130 517 l 1,10,-1
 130 376 l 1,11,0
 153 442 153 442 204 479 c 128,-1,1
EndSplineSet
Substitution2: "<3,3> Small Caps in Latin lookup 11 subtable" r.sc
EndChar

StartChar: s
Encoding: 115 115 87
Width: 427
Flags: W
LayerCount: 2
Fore
SplineSet
223 497 m 0,1,2
 159 497 159 497 118.5 471 c 128,-1,3
 78 445 78 445 78 395 c 0,4,5
 78 360 78 360 97.5 338 c 128,-1,6
 117 316 117 316 145.5 304 c 128,-1,7
 174 292 174 292 225 276 c 0,8,9
 279 260 279 260 311.5 245.5 c 128,-1,10
 344 231 344 231 366.5 204 c 128,-1,11
 389 177 389 177 389 134 c 0,12,13
 389 68 389 68 338.5 34 c 128,-1,14
 288 0 288 0 215 0 c 0,15,16
 161 0 161 0 112.5 19 c 128,-1,17
 64 38 64 38 30 72 c 1,18,-1
 43 87 l 1,19,20
 76 55 76 55 120 37.5 c 128,-1,21
 164 20 164 20 215 20 c 0,22,23
 281 20 281 20 325 49 c 128,-1,24
 369 78 369 78 369 133 c 0,25,26
 369 168 369 168 349 190.5 c 128,-1,27
 329 213 329 213 299.5 226 c 128,-1,28
 270 239 270 239 220 254 c 0,29,30
 167 271 167 271 134.5 285.5 c 128,-1,31
 102 300 102 300 80 326 c 128,-1,32
 58 352 58 352 58 393 c 0,33,34
 58 454 58 454 104.5 485.5 c 128,-1,35
 151 517 151 517 222 517 c 0,36,37
 296 517 296 517 360 480 c 1,38,-1
 350 463 l 1,39,0
 297 497 297 497 223 497 c 0,1,2
EndSplineSet
Substitution2: "<3,3> Small Caps in Latin lookup 11 subtable" s.sc
EndChar

StartChar: t
Encoding: 116 116 88
Width: 362
Flags: W
LayerCount: 2
Fore
SplineSet
338 37 m 1,0,1
 288 0 288 0 234 0 c 0,2,3
 181 0 181 0 153.5 36 c 128,-1,4
 126 72 126 72 126 142 c 2,5,-1
 126 487 l 1,6,-1
 50 487 l 1,7,-1
 50 507 l 1,8,-1
 126 507 l 1,9,-1
 126 630 l 1,10,-1
 146 630 l 1,11,-1
 146 507 l 1,12,-1
 328 507 l 1,13,-1
 328 487 l 1,14,-1
 146 487 l 1,15,-1
 146 142 l 2,16,17
 146 82 146 82 168.5 51 c 128,-1,18
 191 20 191 20 234 20 c 0,19,20
 284 20 284 20 326 53 c 1,21,-1
 338 37 l 1,0,1
EndSplineSet
Substitution2: "<3,3> Small Caps in Latin lookup 11 subtable" t.sc
EndChar

StartChar: u
Encoding: 117 117 89
Width: 637
Flags: W
LayerCount: 2
Fore
SplineSet
527 517 m 1,0,-1
 527 0 l 1,1,-1
 507 0 l 1,2,-1
 507 151 l 1,3,4
 483 79 483 79 428 40 c 128,-1,5
 373 1 373 1 292 0 c 0,6,7
 198 0 198 0 145 54 c 128,-1,8
 92 108 92 108 92 204 c 2,9,-1
 92 517 l 1,10,-1
 112 517 l 1,11,-1
 112 204 l 2,12,13
 112 117 112 117 159.5 68.5 c 128,-1,14
 207 20 207 20 292 20 c 0,15,16
 393 22 393 22 450 86.5 c 128,-1,17
 507 151 507 151 507 264 c 2,18,-1
 507 517 l 1,19,-1
 527 517 l 1,0,-1
EndSplineSet
Substitution2: "<3,3> Small Caps in Latin lookup 11 subtable" u.sc
EndChar

StartChar: v
Encoding: 118 118 90
Width: 456
Flags: W
LayerCount: 2
Fore
SplineSet
10 517 m 1,0,-1
 33 517 l 1,1,-1
 233 23 l 1,2,-1
 432 517 l 1,3,-1
 456 517 l 1,4,-1
 244 0 l 1,5,-1
 222 0 l 1,6,-1
 10 517 l 1,0,-1
EndSplineSet
Substitution2: "<3,3> Small Caps in Latin lookup 11 subtable" v.sc
EndChar

StartChar: w
Encoding: 119 119 91
Width: 818
Flags: W
LayerCount: 2
Fore
SplineSet
10 517 m 1,0,-1
 34 517 l 1,1,-1
 219 23 l 1,2,-1
 402 517 l 1,3,-1
 426 517 l 1,4,-1
 611 23 l 1,5,-1
 795 517 l 1,6,-1
 818 517 l 1,7,-1
 621 0 l 1,8,-1
 599 0 l 1,9,-1
 415 489 l 1,10,-1
 229 0 l 1,11,-1
 207 0 l 1,12,-1
 10 517 l 1,0,-1
EndSplineSet
Substitution2: "<3,3> Small Caps in Latin lookup 11 subtable" w.sc
EndChar

StartChar: x
Encoding: 120 120 92
Width: 489
Flags: W
LayerCount: 2
Fore
SplineSet
46 517 m 1,0,-1
 70 517 l 1,1,-1
 243 284 l 1,2,-1
 416 517 l 1,3,-1
 440 517 l 1,4,-1
 255 268 l 1,5,-1
 454 0 l 1,6,-1
 429 0 l 1,7,-1
 242 251 l 1,8,-1
 56 0 l 1,9,-1
 31 0 l 1,10,-1
 230 268 l 1,11,-1
 46 517 l 1,0,-1
EndSplineSet
Substitution2: "<3,3> Small Caps in Latin lookup 11 subtable" x.sc
EndChar

StartChar: y
Encoding: 121 121 93
Width: 456
Flags: W
LayerCount: 2
Fore
SplineSet
155 -163.5 m 128,-1,1
 120 -194 120 -194 79 -194 c 0,2,3
 24 -194 24 -194 -13 -168 c 1,4,-1
 -4 -151 l 1,5,6
 30 -174 30 -174 77 -174 c 0,7,8
 115 -174 115 -174 146.5 -146.5 c 128,-1,9
 178 -119 178 -119 198 -68 c 2,10,-1
 224 -2 l 1,11,-1
 10 517 l 1,12,-1
 33 517 l 1,13,-1
 234 23 l 1,14,-1
 432 517 l 1,15,-1
 456 517 l 1,16,-1
 214 -75 l 2,17,0
 190 -133 190 -133 155 -163.5 c 128,-1,1
EndSplineSet
Substitution2: "<3,3> Small Caps in Latin lookup 11 subtable" y.sc
EndChar

StartChar: z
Encoding: 122 122 94
Width: 510
Flags: W
LayerCount: 2
Fore
SplineSet
71 517 m 1,0,-1
 452 516 l 1,1,-1
 452 491 l 1,2,-1
 82 20 l 1,3,-1
 459 19 l 1,4,-1
 459 -1 l 1,5,-1
 62 0 l 1,6,-1
 62 25 l 1,7,-1
 432 496 l 1,8,-1
 71 497 l 1,9,-1
 71 517 l 1,0,-1
EndSplineSet
Substitution2: "<3,3> Small Caps in Latin lookup 11 subtable" z.sc
EndChar

StartChar: braceleft
Encoding: 123 123 95
Width: 317
Flags: W
LayerCount: 2
Fore
SplineSet
158.5 334.5 m 128,-1,1
 149 315 149 315 128 308 c 1,2,3
 149 301 149 301 158.5 281.5 c 128,-1,4
 168 262 168 262 168 226 c 2,5,-1
 168 -24 l 2,6,7
 168 -66 168 -66 194.5 -86 c 128,-1,8
 221 -106 221 -106 276 -106 c 1,9,-1
 276 -126 l 1,10,-1
 271 -126 l 2,11,12
 208 -126 208 -126 178 -101 c 128,-1,13
 148 -76 148 -76 148 -24 c 2,14,-1
 148 226 l 2,15,16
 148 298 148 298 93 298 c 2,17,-1
 74 298 l 1,18,-1
 74 318 l 1,19,-1
 93 318 l 2,20,21
 148 318 148 318 148 390 c 2,22,-1
 148 640 l 2,23,24
 148 692 148 692 178 717 c 128,-1,25
 208 742 208 742 271 742 c 2,26,-1
 276 742 l 1,27,-1
 276 722 l 1,28,29
 221 722 221 722 194.5 702 c 128,-1,30
 168 682 168 682 168 640 c 2,31,-1
 168 390 l 2,32,0
 168 354 168 354 158.5 334.5 c 128,-1,1
EndSplineSet
Substitution2: "'rtla' Right to Left Alternates in Latin lookup 0 subtable" braceright
EndChar

StartChar: bar
Encoding: 124 124 96
Width: 220
Flags: W
LayerCount: 2
Fore
SplineSet
100 824 m 1,0,-1
 120 824 l 1,1,-1
 120 -129 l 1,2,-1
 100 -129 l 1,3,-1
 100 824 l 1,0,-1
EndSplineSet
EndChar

StartChar: braceright
Encoding: 125 125 97
Width: 317
Flags: W
LayerCount: 2
Fore
SplineSet
243 318 m 1,0,-1
 243 298 l 1,1,-1
 224 298 l 2,2,3
 169 298 169 298 169 226 c 2,4,-1
 169 -24 l 2,5,6
 169 -76 169 -76 139 -101 c 128,-1,7
 109 -126 109 -126 46 -126 c 2,8,-1
 41 -126 l 1,9,-1
 41 -106 l 1,10,11
 96 -106 96 -106 122.5 -86 c 128,-1,12
 149 -66 149 -66 149 -24 c 2,13,-1
 149 226 l 2,14,15
 149 262 149 262 158.5 281.5 c 128,-1,16
 168 301 168 301 189 308 c 1,17,18
 168 315 168 315 158.5 334.5 c 128,-1,19
 149 354 149 354 149 390 c 2,20,-1
 149 640 l 2,21,22
 149 682 149 682 122.5 702 c 128,-1,23
 96 722 96 722 41 722 c 1,24,-1
 41 742 l 1,25,-1
 46 742 l 2,26,27
 109 742 109 742 139 717 c 128,-1,28
 169 692 169 692 169 640 c 2,29,-1
 169 390 l 2,30,31
 169 318 169 318 224 318 c 2,32,-1
 243 318 l 1,0,-1
EndSplineSet
Substitution2: "'rtla' Right to Left Alternates in Latin lookup 0 subtable" braceleft
EndChar

StartChar: asciitilde
Encoding: 126 126 98
Width: 480
Flags: W
LayerCount: 2
Fore
SplineSet
379.5 291 m 128,-1,1
 361 270 361 270 328 270 c 0,2,3
 304 270 304 270 282 280 c 128,-1,4
 260 290 260 290 231 308 c 0,5,6
 202 325 202 325 186 332.5 c 128,-1,7
 170 340 170 340 153 340 c 0,8,9
 129 340 129 340 116 324.5 c 128,-1,10
 103 309 103 309 103 280 c 1,11,-1
 83 280 l 1,12,13
 83 318 83 318 101.5 339 c 128,-1,14
 120 360 120 360 153 360 c 0,15,16
 173 360 173 360 194.5 350.5 c 128,-1,17
 216 341 216 341 245 324 c 0,18,19
 275 306 275 306 293 298 c 128,-1,20
 311 290 311 290 328 290 c 0,21,22
 352 290 352 290 365 305.5 c 128,-1,23
 378 321 378 321 378 350 c 1,24,-1
 398 350 l 1,25,0
 398 312 398 312 379.5 291 c 128,-1,1
EndSplineSet
EndChar

StartChar: exclamdown
Encoding: 161 161 100
Width: 192
Flags: W
LayerCount: 2
Fore
SplineSet
78 479 m 128,-1,1
 70 487 70 487 70 497 c 0,2,3
 70 508 70 508 78 515.5 c 128,-1,4
 86 523 86 523 96 523 c 0,5,6
 107 523 107 523 114.5 515.5 c 128,-1,7
 122 508 122 508 122 497 c 0,8,9
 122 487 122 487 114.5 479 c 128,-1,10
 107 471 107 471 96 471 c 0,11,0
 86 471 86 471 78 479 c 128,-1,1
106 -166 m 1,12,-1
 86 -166 l 1,13,-1
 86 328 l 1,14,-1
 106 328 l 1,15,-1
 106 -166 l 1,12,-1
EndSplineSet
Substitution2: "<3,3> Small Caps in Latin lookup 11 subtable" exclamdown.sc
EndChar

StartChar: cent
Encoding: 162 162 101
Width: 600
Flags: W
LayerCount: 2
Fore
SplineSet
412.5 23 m 128,-1,1
 367 2 367 2 314 0 c 1,2,-1
 314 -139 l 1,3,-1
 294 -139 l 1,4,-1
 294 0 l 1,5,6
 225 2 225 2 170 36 c 128,-1,7
 115 70 115 70 83.5 128 c 128,-1,8
 52 186 52 186 52 259 c 0,9,10
 52 331 52 331 83.5 389 c 128,-1,11
 115 447 115 447 170 481 c 128,-1,12
 225 515 225 515 294 517 c 1,13,-1
 294 654 l 1,14,-1
 314 654 l 1,15,-1
 314 517 l 1,16,17
 362 515 362 515 404 497 c 128,-1,18
 446 479 446 479 479 448 c 1,19,-1
 466 434 l 1,20,21
 397 497 397 497 303 497 c 0,22,23
 237 497 237 497 184 466.5 c 128,-1,24
 131 436 131 436 101 382 c 128,-1,25
 71 328 71 328 71 259 c 256,26,27
 71 190 71 190 101 135.5 c 128,-1,28
 131 81 131 81 184 50.5 c 128,-1,29
 237 20 237 20 303 20 c 0,30,31
 356 20 356 20 400.5 39.5 c 128,-1,32
 445 59 445 59 477 95 c 1,33,-1
 490 81 l 1,34,0
 458 44 458 44 412.5 23 c 128,-1,1
EndSplineSet
EndChar

StartChar: sterling
Encoding: 163 163 102
Width: 532
Flags: W
LayerCount: 2
Fore
SplineSet
166 20 m 1,0,-1
 482 20 l 1,1,-1
 482 0 l 1,2,-1
 52 0 l 1,3,-1
 52 20 l 1,4,-1
 146 20 l 1,5,-1
 146 330 l 1,6,-1
 52 330 l 1,7,-1
 52 350 l 1,8,-1
 146 350 l 1,9,-1
 146 502 l 2,10,11
 146 597 146 597 190.5 648 c 128,-1,12
 235 699 235 699 318 699 c 0,13,14
 369 699 369 699 414 673.5 c 128,-1,15
 459 648 459 648 492 601 c 1,16,-1
 478 587 l 1,17,18
 447 632 447 632 406 655.5 c 128,-1,19
 365 679 365 679 318 679 c 0,20,21
 244 679 244 679 205 633.5 c 128,-1,22
 166 588 166 588 166 502 c 2,23,-1
 166 350 l 1,24,-1
 357 350 l 1,25,-1
 357 330 l 1,26,-1
 166 330 l 1,27,-1
 166 20 l 1,0,-1
EndSplineSet
EndChar

StartChar: currency
Encoding: 164 164 103
Width: 726
Flags: W
LayerCount: 2
Fore
SplineSet
625 214 m 128,-1,1
 604 165 604 165 566 129 c 1,2,-1
 674 20 l 1,3,-1
 660 6 l 1,4,-1
 551 115 l 1,5,6
 513 82 513 82 464.5 64 c 128,-1,7
 416 46 416 46 363 46 c 256,8,9
 310 46 310 46 262.5 64.5 c 128,-1,10
 215 83 215 83 176 116 c 1,11,-1
 66 6 l 1,12,-1
 52 20 l 1,13,-1
 161 130 l 1,14,15
 124 167 124 167 103.5 215 c 128,-1,16
 83 263 83 263 83 316 c 0,17,18
 83 370 83 370 103.5 418.5 c 128,-1,19
 124 467 124 467 161 505 c 1,20,-1
 52 615 l 1,21,-1
 66 629 l 1,22,-1
 176 519 l 1,23,24
 215 552 215 552 262.5 570.5 c 128,-1,25
 310 589 310 589 363 589 c 256,26,27
 416 589 416 589 464.5 571 c 128,-1,28
 513 553 513 553 551 520 c 1,29,-1
 660 629 l 1,30,-1
 674 615 l 1,31,-1
 566 506 l 1,32,33
 604 468 604 468 625 419 c 128,-1,34
 646 370 646 370 646 316 c 0,35,0
 646 263 646 263 625 214 c 128,-1,1
138 191.5 m 128,-1,37
 173 134 173 134 233 100 c 128,-1,38
 293 66 293 66 363 66 c 0,39,40
 434 66 434 66 494.5 100 c 128,-1,41
 555 134 555 134 590.5 191.5 c 128,-1,42
 626 249 626 249 626 316 c 0,43,44
 626 384 626 384 590.5 442.5 c 128,-1,45
 555 501 555 501 494.5 535 c 128,-1,46
 434 569 434 569 363 569 c 0,47,48
 293 569 293 569 233 535 c 128,-1,49
 173 501 173 501 138 442.5 c 128,-1,50
 103 384 103 384 103 316 c 0,51,36
 103 249 103 249 138 191.5 c 128,-1,37
EndSplineSet
EndChar

StartChar: yen
Encoding: 165 165 104
Width: 606
Flags: W
LayerCount: 2
Fore
SplineSet
596 699 m 1,0,-1
 321 278 l 1,1,-1
 535 278 l 1,2,-1
 535 258 l 1,3,-1
 315 258 l 1,4,-1
 315 168 l 1,5,-1
 535 168 l 1,6,-1
 535 148 l 1,7,-1
 315 148 l 1,8,-1
 315 0 l 1,9,-1
 295 0 l 1,10,-1
 295 148 l 1,11,-1
 75 148 l 1,12,-1
 75 168 l 1,13,-1
 295 168 l 1,14,-1
 295 258 l 1,15,-1
 75 258 l 1,16,-1
 75 278 l 1,17,-1
 289 278 l 1,18,-1
 10 699 l 1,19,-1
 34 699 l 1,20,-1
 305 289 l 1,21,-1
 572 699 l 1,22,-1
 596 699 l 1,0,-1
EndSplineSet
EndChar

StartChar: brokenbar
Encoding: 166 166 105
Width: 220
Flags: W
LayerCount: 2
Fore
SplineSet
100 824 m 1,0,-1
 120 824 l 1,1,-1
 120 471 l 1,2,-1
 100 471 l 1,3,-1
 100 824 l 1,0,-1
100 224 m 1,4,-1
 120 224 l 1,5,-1
 120 -129 l 1,6,-1
 100 -129 l 1,7,-1
 100 224 l 1,4,-1
EndSplineSet
EndChar

StartChar: section
Encoding: 167 167 106
Width: 431
Flags: W
LayerCount: 2
Fore
SplineSet
226 674 m 0,1,2
 159 674 159 674 119.5 647.5 c 128,-1,3
 80 621 80 621 80 572 c 0,4,5
 80 537 80 537 100 515 c 128,-1,6
 120 493 120 493 150 480 c 128,-1,7
 180 467 180 467 230 452 c 0,8,9
 284 436 284 436 316 422 c 128,-1,10
 348 408 348 408 370.5 381.5 c 128,-1,11
 393 355 393 355 393 314 c 0,12,13
 393 276 393 276 374.5 247 c 128,-1,14
 356 218 356 218 328 201.5 c 128,-1,15
 300 185 300 185 271 182 c 1,16,17
 391 143 391 143 391 53 c 0,18,19
 391 -8 391 -8 342 -44 c 128,-1,20
 293 -80 293 -80 216 -80 c 0,21,22
 159 -80 159 -80 111 -60.5 c 128,-1,23
 63 -41 63 -41 30 -7 c 1,24,-1
 44 7 l 1,25,26
 77 -25 77 -25 121 -42.5 c 128,-1,27
 165 -60 165 -60 214 -60 c 0,28,29
 281 -60 281 -60 326.5 -29.5 c 128,-1,30
 372 1 372 1 372 54 c 0,31,32
 372 88 372 88 352 110 c 128,-1,33
 332 132 332 132 302.5 145 c 128,-1,34
 273 158 273 158 223 173 c 0,35,36
 169 190 169 190 136.5 204.5 c 128,-1,37
 104 219 104 219 81.5 245.5 c 128,-1,38
 59 272 59 272 59 314 c 0,39,40
 59 368 59 368 98 399.5 c 128,-1,41
 137 431 137 431 206 436 c 1,42,43
 129 460 129 460 95 492.5 c 128,-1,44
 61 525 61 525 61 571 c 0,45,46
 61 628 61 628 106.5 661 c 128,-1,47
 152 694 152 694 226 694 c 0,48,49
 305 694 305 694 365 655 c 1,50,-1
 353 640 l 1,51,0
 304 674 304 674 226 674 c 0,1,2
118.5 390.5 m 128,-1,53
 78 364 78 364 78 321 c 0,54,55
 78 289 78 289 101 260.5 c 128,-1,56
 124 232 124 232 161.5 214.5 c 128,-1,57
 199 197 199 197 240 197 c 0,58,59
 296 197 296 197 335 229 c 128,-1,60
 374 261 374 261 374 310 c 0,61,62
 374 358 374 358 334 387.5 c 128,-1,63
 294 417 294 417 225 417 c 0,64,52
 159 417 159 417 118.5 390.5 c 128,-1,53
EndSplineSet
EndChar

StartChar: copyright
Encoding: 169 169 108
Width: 777
Flags: W
LayerCount: 2
Fore
SplineSet
559.5 643.5 m 128,-1,1
 637 598 637 598 682 520 c 128,-1,2
 727 442 727 442 727 350 c 0,3,4
 727 259 727 259 682 180.5 c 128,-1,5
 637 102 637 102 559 55.5 c 128,-1,6
 481 9 481 9 387 9 c 0,7,8
 294 9 294 9 216.5 55 c 128,-1,9
 139 101 139 101 94.5 179 c 128,-1,10
 50 257 50 257 50 348 c 256,11,12
 50 439 50 439 95 517.5 c 128,-1,13
 140 596 140 596 217.5 642.5 c 128,-1,14
 295 689 295 689 389 689 c 0,15,0
 482 689 482 689 559.5 643.5 c 128,-1,1
227 625.5 m 128,-1,17
 154 582 154 582 112 508.5 c 128,-1,18
 70 435 70 435 70 348 c 256,19,20
 70 261 70 261 112 188 c 128,-1,21
 154 115 154 115 226.5 72 c 128,-1,22
 299 29 299 29 387 29 c 0,23,24
 476 29 476 29 549 72.5 c 128,-1,25
 622 116 622 116 664.5 189.5 c 128,-1,26
 707 263 707 263 707 350 c 256,27,28
 707 437 707 437 665 510 c 128,-1,29
 623 583 623 583 550 626 c 128,-1,30
 477 669 477 669 389 669 c 0,31,16
 300 669 300 669 227 625.5 c 128,-1,17
393 511 m 0,33,34
 347 511 347 511 308.5 489 c 128,-1,35
 270 467 270 467 247.5 430 c 128,-1,36
 225 393 225 393 225 349 c 256,37,38
 225 305 225 305 247.5 267.5 c 128,-1,39
 270 230 270 230 308.5 208 c 128,-1,40
 347 186 347 186 393 186 c 0,41,42
 425 186 425 186 454.5 197.5 c 128,-1,43
 484 209 484 209 508 229 c 1,44,-1
 521 216 l 1,45,46
 495 192 495 192 461.5 179 c 128,-1,47
 428 166 428 166 392 166 c 0,48,49
 341 166 341 166 298 190.5 c 128,-1,50
 255 215 255 215 230 257 c 128,-1,51
 205 299 205 299 205 349 c 0,52,53
 205 398 205 398 230.5 440 c 128,-1,54
 256 482 256 482 299 506.5 c 128,-1,55
 342 531 342 531 393 531 c 0,56,57
 428 531 428 531 461.5 518 c 128,-1,58
 495 505 495 505 521 482 c 1,59,-1
 508 468 l 1,60,32
 459 511 459 511 393 511 c 0,33,34
EndSplineSet
EndChar

StartChar: ordfeminine
Encoding: 170 170 109
Width: 372
Flags: W
LayerCount: 2
Fore
SplineSet
283 458 m 1,0,-1
 283 524 l 1,1,2
 243 458 243 458 153 458 c 0,3,4
 107 458 107 458 79 482.5 c 128,-1,5
 51 507 51 507 51 545 c 0,6,7
 51 582 51 582 82.5 603 c 128,-1,8
 114 624 114 624 168 624 c 2,9,-1
 282 624 l 1,10,-1
 282 657 l 2,11,12
 281 697 281 697 256.5 719 c 128,-1,13
 232 741 232 741 185 741 c 0,14,15
 132 741 132 741 76 701 c 1,16,-1
 67 717 l 1,17,18
 128 760 128 760 188 760 c 0,19,20
 242 760 242 760 272 732.5 c 128,-1,21
 302 705 302 705 302 658 c 2,22,-1
 303 458 l 1,23,-1
 283 458 l 1,0,-1
233.5 493.5 m 128,-1,25
 265 512 265 512 283 553 c 1,26,-1
 282 608 l 1,27,-1
 170 608 l 2,28,29
 123 608 123 608 97 592 c 128,-1,30
 71 576 71 576 71 546 c 0,31,32
 71 514 71 514 94.5 494.5 c 128,-1,33
 118 475 118 475 157 475 c 0,34,24
 202 475 202 475 233.5 493.5 c 128,-1,25
EndSplineSet
EndChar

StartChar: logicalnot
Encoding: 172 172 111
Width: 534
Flags: W
LayerCount: 2
Fore
SplineSet
440 360 m 1,0,-1
 440 160 l 1,1,-1
 420 160 l 1,2,-1
 420 340 l 1,3,-1
 40 340 l 1,4,-1
 40 360 l 1,5,-1
 440 360 l 1,0,-1
EndSplineSet
EndChar

StartChar: uni00AD
Encoding: 173 173 112
Width: 357
Flags: W
LayerCount: 2
Fore
SplineSet
70 310 m 1,0,-1
 287 310 l 1,1,-1
 287 290 l 1,2,-1
 70 290 l 1,3,-1
 70 310 l 1,0,-1
EndSplineSet
EndChar

StartChar: registered
Encoding: 174 174 113
Width: 777
Flags: W
LayerCount: 2
Fore
SplineSet
559.5 643.5 m 128,-1,1
 637 598 637 598 682 520 c 128,-1,2
 727 442 727 442 727 350 c 0,3,4
 727 259 727 259 682 180.5 c 128,-1,5
 637 102 637 102 559 55.5 c 128,-1,6
 481 9 481 9 387 9 c 0,7,8
 294 9 294 9 216.5 55 c 128,-1,9
 139 101 139 101 94.5 179 c 128,-1,10
 50 257 50 257 50 348 c 256,11,12
 50 439 50 439 95 517.5 c 128,-1,13
 140 596 140 596 217.5 642.5 c 128,-1,14
 295 689 295 689 389 689 c 0,15,0
 482 689 482 689 559.5 643.5 c 128,-1,1
549 72.5 m 128,-1,17
 622 116 622 116 664.5 189.5 c 128,-1,18
 707 263 707 263 707 350 c 256,19,20
 707 437 707 437 665 510 c 128,-1,21
 623 583 623 583 550 626 c 128,-1,22
 477 669 477 669 389 669 c 0,23,24
 300 669 300 669 227 625.5 c 128,-1,25
 154 582 154 582 112 508.5 c 128,-1,26
 70 435 70 435 70 348 c 256,27,28
 70 261 70 261 112 188 c 128,-1,29
 154 115 154 115 226.5 72 c 128,-1,30
 299 29 299 29 387 29 c 0,31,16
 476 29 476 29 549 72.5 c 128,-1,17
513 342 m 128,-1,33
 489 311 489 311 444 300 c 1,34,-1
 539 168 l 1,35,-1
 514 168 l 1,36,-1
 423 296 l 1,37,38
 403 294 403 294 392 294 c 2,39,-1
 281 294 l 1,40,-1
 281 168 l 1,41,-1
 261 168 l 1,42,-1
 261 543 l 1,43,-1
 392 543 l 2,44,45
 462 543 462 543 499.5 511.5 c 128,-1,46
 537 480 537 480 537 421 c 0,47,32
 537 373 537 373 513 342 c 128,-1,33
392 314 m 2,48,49
 451 314 451 314 484 342 c 128,-1,50
 517 370 517 370 517 421 c 0,51,52
 517 471 517 471 484.5 497 c 128,-1,53
 452 523 452 523 392 523 c 2,54,-1
 281 523 l 1,55,-1
 281 314 l 1,56,-1
 392 314 l 2,48,49
EndSplineSet
EndChar

StartChar: degree
Encoding: 176 176 115
Width: 300
Flags: W
LayerCount: 2
Fore
SplineSet
244 781 m 128,-1,1
 270 766 270 766 285.5 741 c 128,-1,2
 301 716 301 716 301 687 c 0,3,4
 301 643 301 643 267.5 611 c 128,-1,5
 234 579 234 579 188 579 c 0,6,7
 143 579 143 579 109.5 611.5 c 128,-1,8
 76 644 76 644 76 687 c 0,9,10
 76 715 76 715 91.5 740.5 c 128,-1,11
 107 766 107 766 133 781 c 128,-1,12
 159 796 159 796 188 796 c 0,13,0
 218 796 218 796 244 781 c 128,-1,1
123.5 749.5 m 128,-1,15
 96 723 96 723 96 687 c 256,16,17
 96 651 96 651 123 625 c 128,-1,18
 150 599 150 599 188 599 c 256,19,20
 226 599 226 599 253.5 625 c 128,-1,21
 281 651 281 651 281 687 c 256,22,23
 281 723 281 723 253.5 749.5 c 128,-1,24
 226 776 226 776 188 776 c 0,25,14
 151 776 151 776 123.5 749.5 c 128,-1,15
EndSplineSet
EndChar

StartChar: paragraph
Encoding: 182 182 121
Width: 557
Flags: W
LayerCount: 2
Fore
SplineSet
169 417 m 0,1,2
 109 417 109 417 73 442 c 128,-1,3
 37 467 37 467 22 503.5 c 128,-1,4
 7 540 7 540 7 576 c 0,5,6
 7 646 7 646 55.5 694 c 128,-1,7
 104 742 104 742 203 742 c 2,8,-1
 429 742 l 1,9,-1
 429 -112 l 1,10,-1
 409 -112 l 1,11,-1
 409 722 l 1,12,-1
 227 722 l 1,13,-1
 227 -112 l 1,14,-1
 207 -112 l 1,15,-1
 207 419 l 1,16,0
 179 417 179 417 169 417 c 0,1,2
EndSplineSet
EndChar

StartChar: ordmasculine
Encoding: 186 186 125
Width: 396
Flags: W
LayerCount: 2
Fore
SplineSet
307.5 717.5 m 128,-1,1
 351 675 351 675 351 609 c 256,2,3
 351 543 351 543 307.5 500.5 c 128,-1,4
 264 458 264 458 198 458 c 0,5,6
 131 458 131 458 88 500 c 128,-1,7
 45 542 45 542 45 609 c 0,8,9
 45 675 45 675 88 717.5 c 128,-1,10
 131 760 131 760 198 760 c 0,11,0
 264 760 264 760 307.5 717.5 c 128,-1,1
102.5 704 m 128,-1,13
 65 667 65 667 65 609 c 0,14,15
 65 550 65 550 102.5 513 c 128,-1,16
 140 476 140 476 198 476 c 256,17,18
 256 476 256 476 293 513 c 128,-1,19
 330 550 330 550 330 609 c 0,20,21
 330 667 330 667 293 704 c 128,-1,22
 256 741 256 741 198 741 c 256,23,12
 140 741 140 741 102.5 704 c 128,-1,13
EndSplineSet
EndChar

StartChar: questiondown
Encoding: 191 191 130
Width: 395
Flags: W
LayerCount: 2
Fore
SplineSet
199 479 m 128,-1,1
 191 487 191 487 191 497 c 0,2,3
 191 508 191 508 199 515.5 c 128,-1,4
 207 523 207 523 217 523 c 0,5,6
 228 523 228 523 235.5 515.5 c 128,-1,7
 243 508 243 508 243 497 c 0,8,9
 243 487 243 487 235.5 479 c 128,-1,10
 228 471 228 471 217 471 c 0,11,0
 207 471 207 471 199 479 c 128,-1,1
319 -125.5 m 128,-1,13
 272 -163 272 -163 197 -163 c 0,14,15
 120 -163 120 -163 72 -124.5 c 128,-1,16
 24 -86 24 -86 24 -12 c 0,17,18
 24 29 24 29 36.5 58.5 c 128,-1,19
 49 88 49 88 67 107.5 c 128,-1,20
 85 127 85 127 116 153 c 0,21,22
 146 178 146 178 163.5 197 c 128,-1,23
 181 216 181 216 193 244 c 128,-1,24
 205 272 205 272 205 310 c 1,25,-1
 225 310 l 1,26,27
 225 269 225 269 212.5 239 c 128,-1,28
 200 209 200 209 181.5 189 c 128,-1,29
 163 169 163 169 132 143 c 0,30,31
 102 117 102 117 85 98.5 c 128,-1,32
 68 80 68 80 56 52.5 c 128,-1,33
 44 25 44 25 44 -13 c 0,34,35
 44 -77 44 -77 86 -110 c 128,-1,36
 128 -143 128 -143 198 -143 c 0,37,38
 266 -143 266 -143 306.5 -111 c 128,-1,39
 347 -79 347 -79 351 -18 c 1,40,-1
 371 -20 l 1,41,12
 366 -88 366 -88 319 -125.5 c 128,-1,13
EndSplineSet
Substitution2: "<3,3> Small Caps in Latin lookup 11 subtable" questiondown.sc
EndChar

StartChar: AE
Encoding: 198 198 137
Width: 987
Flags: W
LayerCount: 2
Fore
SplineSet
491 20 m 1,0,-1
 922 20 l 1,1,-1
 922 0 l 1,2,-1
 471 0 l 1,3,-1
 471 223 l 1,4,-1
 168 223 l 1,5,-1
 34 0 l 1,6,-1
 10 0 l 1,7,-1
 431 699 l 1,8,-1
 908 699 l 1,9,-1
 908 679 l 1,10,-1
 491 679 l 1,11,-1
 491 370 l 1,12,-1
 862 370 l 1,13,-1
 862 350 l 1,14,-1
 491 350 l 1,15,-1
 491 20 l 1,0,-1
180 243 m 1,16,-1
 471 243 l 1,17,-1
 471 679 l 1,18,-1
 442 679 l 1,19,-1
 180 243 l 1,16,-1
EndSplineSet
EndChar

StartChar: Ccedilla
Encoding: 199 199 138
Width: 705
Flags: W
LayerCount: 2
Fore
SplineSet
457.5 -78.5 m 128,-1,1
 479 -100 479 -100 479 -130 c 0,2,3
 479 -163 479 -163 455.5 -188 c 128,-1,4
 432 -213 432 -213 390 -213 c 0,5,6
 371 -213 371 -213 350.5 -207 c 128,-1,7
 330 -201 330 -201 317 -191 c 1,8,-1
 325 -171 l 1,9,10
 337 -180 337 -180 355.5 -186 c 128,-1,11
 374 -192 374 -192 390 -192 c 0,12,13
 423 -192 423 -192 440.5 -173.5 c 128,-1,14
 458 -155 458 -155 458 -130 c 0,15,16
 458 -108 458 -108 442 -91.5 c 128,-1,17
 426 -75 426 -75 400 -75 c 2,18,-1
 371 -75 l 1,19,-1
 392 -3 l 1,20,21
 299 1 299 1 220.5 50 c 128,-1,22
 142 99 142 99 96 178.5 c 128,-1,23
 50 258 50 258 50 350 c 0,24,25
 50 445 50 445 98.5 526.5 c 128,-1,26
 147 608 147 608 229.5 655.5 c 128,-1,27
 312 703 312 703 409 703 c 0,28,29
 477 703 477 703 538.5 679 c 128,-1,30
 600 655 600 655 649 612 c 1,31,-1
 636 599 l 1,32,33
 591 640 591 640 532.5 662 c 128,-1,34
 474 684 474 684 409 684 c 0,35,36
 317 684 317 684 239 639 c 128,-1,37
 161 594 161 594 115 517 c 128,-1,38
 69 440 69 440 69 350 c 256,39,40
 69 260 69 260 115 183 c 128,-1,41
 161 106 161 106 239 61 c 128,-1,42
 317 16 317 16 409 16 c 0,43,44
 473 16 473 16 531.5 38.5 c 128,-1,45
 590 61 590 61 636 102 c 1,46,-1
 650 89 l 1,47,48
 602 46 602 46 541 22 c 128,-1,49
 480 -2 480 -2 413 -3 c 1,50,-1
 398 -56 l 1,51,0
 436 -57 436 -57 457.5 -78.5 c 128,-1,1
EndSplineSet
EndChar

StartChar: multiply
Encoding: 215 215 154
Width: 480
Flags: W
LayerCount: 2
Fore
SplineSet
388 454 m 1,0,-1
 254 320 l 1,1,-1
 388 186 l 1,2,-1
 374 172 l 1,3,-1
 240 306 l 1,4,-1
 106 172 l 1,5,-1
 92 186 l 1,6,-1
 226 320 l 1,7,-1
 92 454 l 1,8,-1
 106 468 l 1,9,-1
 240 334 l 1,10,-1
 374 468 l 1,11,-1
 388 454 l 1,0,-1
EndSplineSet
EndChar

StartChar: Oslash
Encoding: 216 216 155
Width: 818
Flags: W
LayerCount: 2
Fore
SplineSet
729.5 507 m 128,-1,1
 768 434 768 434 768 350 c 0,2,3
 768 256 768 256 719.5 175.5 c 128,-1,4
 671 95 671 95 588.5 47.5 c 128,-1,5
 506 0 506 0 409 0 c 0,6,7
 300 0 300 0 207 61 c 1,8,-1
 121 -55 l 1,9,-1
 100 -55 l 1,10,-1
 193 71 l 1,11,12
 127 120 127 120 88.5 193.5 c 128,-1,13
 50 267 50 267 50 350 c 0,14,15
 50 444 50 444 98.5 524.5 c 128,-1,16
 147 605 147 605 229.5 652 c 128,-1,17
 312 699 312 699 409 699 c 0,18,19
 518 699 518 699 611 638 c 1,20,-1
 697 755 l 1,21,-1
 718 755 l 1,22,-1
 625 628 l 1,23,0
 691 580 691 580 729.5 507 c 128,-1,1
106 202.5 m 128,-1,25
 142 134 142 134 205 87 c 1,26,-1
 599 622 l 1,27,28
 513 679 513 679 409 679 c 0,29,30
 318 679 318 679 240 634.5 c 128,-1,31
 162 590 162 590 116 514.5 c 128,-1,32
 70 439 70 439 70 350 c 0,33,24
 70 271 70 271 106 202.5 c 128,-1,25
578 64.5 m 128,-1,35
 656 109 656 109 702 185 c 128,-1,36
 748 261 748 261 748 350 c 0,37,38
 748 429 748 429 712 497.5 c 128,-1,39
 676 566 676 566 613 612 c 1,40,-1
 219 78 l 1,41,42
 304 20 304 20 409 20 c 0,43,34
 500 20 500 20 578 64.5 c 128,-1,35
EndSplineSet
EndChar

StartChar: Thorn
Encoding: 222 222 161
Width: 662
Flags: W
LayerCount: 2
Fore
SplineSet
558 532.5 m 128,-1,1
 632 478 632 478 632 367 c 0,2,3
 632 254 632 254 558 198 c 128,-1,4
 484 142 484 142 335 142 c 2,5,-1
 148 142 l 1,6,-1
 148 0 l 1,7,-1
 128 0 l 1,8,-1
 128 699 l 1,9,-1
 148 699 l 1,10,-1
 148 587 l 1,11,-1
 335 587 l 2,12,0
 484 587 484 587 558 532.5 c 128,-1,1
543.5 213 m 128,-1,14
 612 264 612 264 612 367 c 0,15,16
 612 468 612 468 543 517.5 c 128,-1,17
 474 567 474 567 335 567 c 2,18,-1
 148 567 l 1,19,-1
 148 162 l 1,20,-1
 335 162 l 2,21,13
 475 162 475 162 543.5 213 c 128,-1,14
EndSplineSet
EndChar

StartChar: germandbls
Encoding: 223 223 162
Width: 640
Flags: W
LayerCount: 2
Fore
SplineSet
137.5 625.5 m 128,-1,1
 165 681 165 681 215 711.5 c 128,-1,2
 265 742 265 742 331 742 c 0,3,4
 423 742 423 742 477.5 692.5 c 128,-1,5
 532 643 532 643 532 560 c 0,6,7
 532 490 532 490 491.5 440 c 128,-1,8
 451 390 451 390 383 377 c 1,9,10
 467 367 467 367 517.5 318 c 128,-1,11
 568 269 568 269 568 197 c 0,12,13
 568 138 568 138 539 93 c 128,-1,14
 510 48 510 48 456 24 c 128,-1,15
 402 0 402 0 330 0 c 2,16,-1
 275 0 l 1,17,-1
 275 20 l 1,18,-1
 330 20 l 2,19,20
 429 20 429 20 488.5 68.5 c 128,-1,21
 548 117 548 117 548 197 c 0,22,23
 548 274 548 274 486 319.5 c 128,-1,24
 424 365 424 365 321 365 c 2,25,-1
 316 365 l 1,26,-1
 316 385 l 1,27,28
 405 385 405 385 458.5 432.5 c 128,-1,29
 512 480 512 480 512 560 c 0,30,31
 512 634 512 634 462.5 678 c 128,-1,32
 413 722 413 722 331 722 c 0,33,34
 271 722 271 722 225.5 694 c 128,-1,35
 180 666 180 666 155 615 c 128,-1,36
 130 564 130 564 130 496 c 2,37,-1
 130 0 l 1,38,-1
 110 0 l 1,39,-1
 110 496 l 2,40,0
 110 570 110 570 137.5 625.5 c 128,-1,1
EndSplineSet
Substitution2: "<3,3> Small Caps in Latin lookup 11 subtable" germandbls.sc
EndChar

StartChar: ae
Encoding: 230 230 169
Width: 988
Flags: W
LayerCount: 2
Fore
SplineSet
502 128 m 128,-1,1
 534 79 534 79 587 49.5 c 128,-1,2
 640 20 640 20 700 20 c 0,3,4
 756 20 756 20 802.5 39 c 128,-1,5
 849 58 849 58 883 95 c 1,6,-1
 897 81 l 1,7,8
 860 42 860 42 809 21 c 128,-1,9
 758 0 758 0 700 0 c 0,10,11
 619 0 619 0 554 44.5 c 128,-1,12
 489 89 489 89 462 160 c 1,13,14
 396 0 396 0 232 0 c 0,15,16
 158 0 158 0 110.5 42 c 128,-1,17
 63 84 63 84 63 149 c 0,18,19
 63 211 63 211 114.5 246.5 c 128,-1,20
 166 282 166 282 256 282 c 2,21,-1
 449 282 l 1,22,-1
 448 345 l 2,23,24
 447 419 447 419 404.5 458 c 128,-1,25
 362 497 362 497 283 497 c 0,26,27
 237 497 237 497 193.5 480 c 128,-1,28
 150 463 150 463 101 425 c 1,29,-1
 89 441 l 1,30,31
 139 480 139 480 186.5 498.5 c 128,-1,32
 234 517 234 517 283 517 c 0,33,34
 366 517 366 517 414.5 475.5 c 128,-1,35
 463 434 463 434 467 359 c 1,36,37
 495 432 495 432 557.5 474.5 c 128,-1,38
 620 517 620 517 700 517 c 0,39,40
 770 517 770 517 824.5 484 c 128,-1,41
 879 451 879 451 909.5 392.5 c 128,-1,42
 940 334 940 334 940 259 c 1,43,-1
 470 259 l 1,44,-1
 470 232 l 2,45,0
 470 177 470 177 502 128 c 128,-1,1
853 437.5 m 128,-1,47
 793 497 793 497 700 497 c 0,48,49
 637 497 637 497 586.5 469.5 c 128,-1,50
 536 442 536 442 505.5 392.5 c 128,-1,51
 475 343 475 343 471 279 c 1,52,-1
 920 279 l 1,53,46
 913 378 913 378 853 437.5 c 128,-1,47
128 232.5 m 128,-1,55
 83 203 83 203 83 149 c 0,56,57
 83 91 83 91 124 55.5 c 128,-1,58
 165 20 165 20 232 20 c 0,59,60
 315 20 315 20 366 58.5 c 128,-1,61
 417 97 417 97 450 184 c 1,62,-1
 450 262 l 1,63,-1
 256 262 l 2,64,54
 173 262 173 262 128 232.5 c 128,-1,55
EndSplineSet
Substitution2: "<3,3> Small Caps in Latin lookup 11 subtable" ae.sc
EndChar

StartChar: ccedilla
Encoding: 231 231 170
Width: 557
Flags: W
LayerCount: 2
Fore
SplineSet
407.5 21 m 128,-1,1
 359 0 359 0 303 0 c 2,2,-1
 299 0 l 1,3,-1
 299 0 l 1,4,-1
 283 -56 l 1,5,6
 321 -57 321 -57 342.5 -78.5 c 128,-1,7
 364 -100 364 -100 364 -130 c 0,8,9
 364 -163 364 -163 340.5 -188 c 128,-1,10
 317 -213 317 -213 275 -213 c 0,11,12
 256 -213 256 -213 235.5 -207 c 128,-1,13
 215 -201 215 -201 202 -191 c 1,14,-1
 210 -171 l 1,15,16
 222 -180 222 -180 240.5 -186 c 128,-1,17
 259 -192 259 -192 275 -192 c 0,18,19
 308 -192 308 -192 325.5 -173.5 c 128,-1,20
 343 -155 343 -155 343 -130 c 0,21,22
 343 -108 343 -108 327 -91.5 c 128,-1,23
 311 -75 311 -75 285 -75 c 2,24,-1
 256 -75 l 1,25,-1
 278 1 l 1,26,27
 213 7 213 7 161.5 41.5 c 128,-1,28
 110 76 110 76 81 132.5 c 128,-1,29
 52 189 52 189 52 259 c 0,30,31
 52 333 52 333 84.5 392 c 128,-1,32
 117 451 117 451 174.5 484 c 128,-1,33
 232 517 232 517 303 517 c 0,34,35
 354 517 354 517 399.5 499 c 128,-1,36
 445 481 445 481 479 448 c 1,37,-1
 466 434 l 1,38,39
 397 497 397 497 303 497 c 0,40,41
 237 497 237 497 184 466.5 c 128,-1,42
 131 436 131 436 101 382 c 128,-1,43
 71 328 71 328 71 259 c 256,44,45
 71 190 71 190 101 135.5 c 128,-1,46
 131 81 131 81 184 50.5 c 128,-1,47
 237 20 237 20 303 20 c 0,48,49
 356 20 356 20 400.5 39.5 c 128,-1,50
 445 59 445 59 477 95 c 1,51,-1
 490 81 l 1,52,0
 456 42 456 42 407.5 21 c 128,-1,1
EndSplineSet
Substitution2: "<3,3> Small Caps in Latin lookup 11 subtable" ccedilla.sc
EndChar

StartChar: eth
Encoding: 240 240 179
Width: 566
Flags: W
LayerCount: 2
Fore
SplineSet
468.5 427 m 128,-1,1
 516 326 516 326 516 227 c 0,2,3
 516 159 516 159 487 107.5 c 128,-1,4
 458 56 458 56 405 28 c 128,-1,5
 352 0 352 0 281 0 c 0,6,7
 180 0 180 0 120 60.5 c 128,-1,8
 60 121 60 121 60 222 c 0,9,10
 60 287 60 287 88 336 c 128,-1,11
 116 385 116 385 167.5 411.5 c 128,-1,12
 219 438 219 438 287 438 c 0,13,14
 357 438 357 438 413 404.5 c 128,-1,15
 469 371 469 371 493 315 c 1,16,17
 473 391 473 391 427 466 c 128,-1,18
 381 541 381 541 316 605 c 1,19,-1
 146 526 l 1,20,-1
 137 545 l 1,21,-1
 299 620 l 1,22,23
 232 682 232 682 156 724 c 1,24,-1
 168 742 l 1,25,26
 253 692 253 692 319 629 c 1,27,-1
 454 692 l 1,28,-1
 463 673 l 1,29,-1
 335 614 l 1,30,0
 421 528 421 528 468.5 427 c 128,-1,1
439 73.5 m 128,-1,32
 496 127 496 127 496 216 c 0,33,34
 496 308 496 308 439 363 c 128,-1,35
 382 418 382 418 287 418 c 0,36,37
 193 418 193 418 136.5 365.5 c 128,-1,38
 80 313 80 313 80 224 c 0,39,40
 80 131 80 131 136 75.5 c 128,-1,41
 192 20 192 20 286 20 c 0,42,31
 382 20 382 20 439 73.5 c 128,-1,32
EndSplineSet
Substitution2: "<3,3> Small Caps in Latin lookup 11 subtable" eth.sc
EndChar

StartChar: divide
Encoding: 247 247 186
Width: 480
Flags: W
LayerCount: 2
Fore
SplineSet
258.5 513.5 m 128,-1,1
 266 506 266 506 266 495 c 0,2,3
 266 485 266 485 258.5 477 c 128,-1,4
 251 469 251 469 240 469 c 0,5,6
 230 469 230 469 222 477 c 128,-1,7
 214 485 214 485 214 495 c 0,8,9
 214 506 214 506 222 513.5 c 128,-1,10
 230 521 230 521 240 521 c 0,11,0
 251 521 251 521 258.5 513.5 c 128,-1,1
40 330 m 1,12,-1
 440 330 l 1,13,-1
 440 310 l 1,14,-1
 40 310 l 1,15,-1
 40 330 l 1,12,-1
258.5 163.5 m 128,-1,17
 266 156 266 156 266 145 c 0,18,19
 266 135 266 135 258.5 127 c 128,-1,20
 251 119 251 119 240 119 c 0,21,22
 230 119 230 119 222 127 c 128,-1,23
 214 135 214 135 214 145 c 0,24,25
 214 156 214 156 222 163.5 c 128,-1,26
 230 171 230 171 240 171 c 0,27,16
 251 171 251 171 258.5 163.5 c 128,-1,17
EndSplineSet
EndChar

StartChar: oslash
Encoding: 248 248 187
Width: 606
Flags: W
LayerCount: 2
Fore
SplineSet
528.5 378.5 m 128,-1,1
 554 325 554 325 554 259 c 0,2,3
 554 185 554 185 521.5 126 c 128,-1,4
 489 67 489 67 431.5 33.5 c 128,-1,5
 374 0 374 0 303 0 c 0,6,7
 224 0 224 0 164 40 c 1,8,-1
 61 -110 l 1,9,-1
 40 -110 l 1,10,-1
 150 50 l 1,11,12
 104 85 104 85 78 139 c 128,-1,13
 52 193 52 193 52 259 c 0,14,15
 52 333 52 333 84.5 392 c 128,-1,16
 117 451 117 451 174.5 484 c 128,-1,17
 232 517 232 517 303 517 c 0,18,19
 382 517 382 517 442 477 c 1,20,-1
 545 627 l 1,21,-1
 566 627 l 1,22,-1
 456 467 l 1,23,0
 503 432 503 432 528.5 378.5 c 128,-1,1
95.5 148 m 128,-1,25
 119 98 119 98 161 66 c 1,26,-1
 431 461 l 1,27,28
 375 497 375 497 303 497 c 0,29,30
 237 497 237 497 184 466.5 c 128,-1,31
 131 436 131 436 101.5 382 c 128,-1,32
 72 328 72 328 72 259 c 0,33,24
 72 198 72 198 95.5 148 c 128,-1,25
422 50.5 m 128,-1,35
 475 81 475 81 504.5 135.5 c 128,-1,36
 534 190 534 190 534 259 c 0,37,38
 534 320 534 320 510.5 369.5 c 128,-1,39
 487 419 487 419 445 451 c 1,40,-1
 175 56 l 1,41,42
 231 20 231 20 303 20 c 0,43,34
 369 20 369 20 422 50.5 c 128,-1,35
EndSplineSet
Substitution2: "<3,3> Small Caps in Latin lookup 11 subtable" oslash.sc
EndChar

StartChar: thorn
Encoding: 254 254 193
Width: 669
Flags: W
LayerCount: 2
Fore
SplineSet
224.5 476 m 128,-1,1
 286 517 286 517 366 517 c 0,2,3
 438 517 438 517 495 483.5 c 128,-1,4
 552 450 552 450 584.5 391 c 128,-1,5
 617 332 617 332 617 258 c 256,6,7
 617 184 617 184 584.5 125.5 c 128,-1,8
 552 67 552 67 495 33.5 c 128,-1,9
 438 0 438 0 366 0 c 0,10,11
 286 0 286 0 224.5 41 c 128,-1,12
 163 82 163 82 135 152 c 1,13,-1
 135 -194 l 1,14,-1
 115 -194 l 1,15,-1
 115 742 l 1,16,-1
 135 742 l 1,17,-1
 135 365 l 1,18,0
 163 435 163 435 224.5 476 c 128,-1,1
247.5 466 m 128,-1,20
 195 435 195 435 165 380.5 c 128,-1,21
 135 326 135 326 135 258 c 256,22,23
 135 190 135 190 165 135.5 c 128,-1,24
 195 81 195 81 247.5 50.5 c 128,-1,25
 300 20 300 20 366 20 c 256,26,27
 432 20 432 20 484.5 50.5 c 128,-1,28
 537 81 537 81 567 135.5 c 128,-1,29
 597 190 597 190 597 258 c 256,30,31
 597 326 597 326 567 380.5 c 128,-1,32
 537 435 537 435 484.5 466 c 128,-1,33
 432 497 432 497 366 497 c 256,34,19
 300 497 300 497 247.5 466 c 128,-1,20
EndSplineSet
Substitution2: "<3,3> Small Caps in Latin lookup 11 subtable" thorn.sc
EndChar

StartChar: Aogonek
Encoding: 260 260 199
Width: 686
Flags: W
LayerCount: 2
Fore
SplineSet
665 -173 m 1,1,-1
 675 -189 l 1,2,3
 640 -213 640 -213 605 -213 c 0,4,5
 572 -213 572 -213 552.5 -193 c 128,-1,6
 533 -173 533 -173 533 -139 c 0,7,8
 533 -99 533 -99 561 -66 c 128,-1,9
 589 -33 589 -33 650 6 c 1,10,-1
 555 213 l 1,11,-1
 131 213 l 1,12,-1
 34 0 l 1,13,-1
 10 0 l 1,14,-1
 330 699 l 1,15,-1
 352 699 l 1,16,-1
 676 0 l 1,17,18
 611 -43 611 -43 582.5 -73.5 c 128,-1,19
 554 -104 554 -104 554 -139 c 0,20,21
 554 -166 554 -166 568.5 -179.5 c 128,-1,22
 583 -193 583 -193 606 -193 c 0,23,0
 636 -193 636 -193 665 -173 c 1,1,-1
140 233 m 1,24,-1
 545 233 l 1,25,-1
 341 676 l 1,26,-1
 140 233 l 1,24,-1
EndSplineSet
EndChar

StartChar: aogonek
Encoding: 261 261 200
Width: 562
Flags: W
LayerCount: 2
Fore
SplineSet
458 -173 m 1,1,-1
 468 -189 l 1,2,3
 433 -213 433 -213 398 -213 c 0,4,5
 365 -213 365 -213 345.5 -193 c 128,-1,6
 326 -173 326 -173 326 -139 c 0,7,8
 326 -98 326 -98 355.5 -65 c 128,-1,9
 385 -32 385 -32 449 9 c 1,10,-1
 448 117 l 1,11,12
 414 58 414 58 358.5 29 c 128,-1,13
 303 0 303 0 231 0 c 0,14,15
 157 0 157 0 110 42 c 128,-1,16
 63 84 63 84 63 149 c 0,17,18
 63 212 63 212 114.5 247 c 128,-1,19
 166 282 166 282 255 282 c 2,20,-1
 447 282 l 1,21,-1
 447 345 l 2,22,23
 446 418 446 418 404.5 457.5 c 128,-1,24
 363 497 363 497 283 497 c 0,25,26
 234 497 234 497 190.5 478.5 c 128,-1,27
 147 460 147 460 102 425 c 1,28,-1
 90 441 l 1,29,30
 186 517 186 517 283 517 c 0,31,32
 371 517 371 517 418.5 471 c 128,-1,33
 466 425 466 425 467 345 c 2,34,-1
 469 0 l 1,35,36
 404 -43 404 -43 375.5 -73.5 c 128,-1,37
 347 -104 347 -104 347 -139 c 0,38,39
 347 -166 347 -166 361.5 -179.5 c 128,-1,40
 376 -193 376 -193 399 -193 c 0,41,0
 429 -193 429 -193 458 -173 c 1,1,-1
364 54 m 128,-1,43
 418 88 418 88 448 162 c 1,44,-1
 447 262 l 1,45,-1
 255 262 l 2,46,47
 173 262 173 262 128 232.5 c 128,-1,48
 83 203 83 203 83 149 c 0,49,50
 83 91 83 91 123.5 55.5 c 128,-1,51
 164 20 164 20 232 20 c 0,52,42
 310 20 310 20 364 54 c 128,-1,43
EndSplineSet
Substitution2: "<3,3> Small Caps in Latin lookup 11 subtable" aogonek.sc
EndChar

StartChar: Dcroat
Encoding: 272 272 211
Width: 811
Flags: W
LayerCount: 2
Fore
SplineSet
582 652 m 128,-1,1
 664 605 664 605 712.5 524.5 c 128,-1,2
 761 444 761 444 761 349 c 0,3,4
 761 255 761 255 712.5 174.5 c 128,-1,5
 664 94 664 94 582 47 c 128,-1,6
 500 0 500 0 403 0 c 2,7,-1
 128 0 l 1,8,-1
 128 340 l 1,9,-1
 57 340 l 1,10,-1
 57 360 l 1,11,-1
 128 360 l 1,12,-1
 128 699 l 1,13,-1
 403 699 l 2,14,0
 500 699 500 699 582 652 c 128,-1,1
572 64.5 m 128,-1,16
 650 109 650 109 695.5 184.5 c 128,-1,17
 741 260 741 260 741 349 c 256,18,19
 741 438 741 438 695.5 514 c 128,-1,20
 650 590 650 590 572 634.5 c 128,-1,21
 494 679 494 679 403 679 c 2,22,-1
 148 679 l 1,23,-1
 148 360 l 1,24,-1
 432 360 l 1,25,-1
 432 340 l 1,26,-1
 148 340 l 1,27,-1
 148 20 l 1,28,-1
 403 20 l 2,29,15
 494 20 494 20 572 64.5 c 128,-1,16
EndSplineSet
EndChar

StartChar: dcroat
Encoding: 273 273 212
Width: 673
Flags: W
LayerCount: 2
Fore
SplineSet
638 619 m 1,0,-1
 558 619 l 1,1,-1
 558 0 l 1,2,-1
 538 0 l 1,3,-1
 538 152 l 1,4,5
 509 81 509 81 447.5 39.5 c 128,-1,6
 386 -2 386 -2 305 -2 c 0,7,8
 233 -2 233 -2 175 31.5 c 128,-1,9
 117 65 117 65 84.5 124.5 c 128,-1,10
 52 184 52 184 52 258 c 256,11,12
 52 332 52 332 84.5 392 c 128,-1,13
 117 452 117 452 175 485.5 c 128,-1,14
 233 519 233 519 305 519 c 0,15,16
 386 519 386 519 447.5 477.5 c 128,-1,17
 509 436 509 436 538 365 c 1,18,-1
 538 619 l 1,19,-1
 288 619 l 1,20,-1
 288 639 l 1,21,-1
 538 639 l 1,22,-1
 538 742 l 1,23,-1
 558 742 l 1,24,-1
 558 639 l 1,25,-1
 638 639 l 1,26,-1
 638 619 l 1,0,-1
425 49 m 128,-1,28
 478 80 478 80 508 134.5 c 128,-1,29
 538 189 538 189 538 258 c 256,30,31
 538 327 538 327 508 382 c 128,-1,32
 478 437 478 437 425 468 c 128,-1,33
 372 499 372 499 305 499 c 256,34,35
 238 499 238 499 185 468 c 128,-1,36
 132 437 132 437 102 382 c 128,-1,37
 72 327 72 327 72 258 c 256,38,39
 72 189 72 189 102 134.5 c 128,-1,40
 132 80 132 80 185 49 c 128,-1,41
 238 18 238 18 305 18 c 256,42,27
 372 18 372 18 425 49 c 128,-1,28
EndSplineSet
Substitution2: "<3,3> Small Caps in Latin lookup 11 subtable" dcroat.sc
EndChar

StartChar: Eogonek
Encoding: 280 280 219
Width: 644
Flags: W
LayerCount: 2
Fore
SplineSet
485.5 -73.5 m 128,-1,1
 457 -104 457 -104 457 -139 c 0,2,3
 457 -166 457 -166 471.5 -179.5 c 128,-1,4
 486 -193 486 -193 509 -193 c 0,5,6
 539 -193 539 -193 568 -173 c 1,7,-1
 578 -189 l 1,8,9
 544 -213 544 -213 508 -213 c 0,10,11
 475 -213 475 -213 455.5 -193 c 128,-1,12
 436 -173 436 -173 436 -139 c 0,13,14
 436 -100 436 -100 462.5 -68.5 c 128,-1,15
 489 -37 489 -37 545 0 c 1,16,-1
 128 0 l 1,17,-1
 128 699 l 1,18,-1
 565 699 l 1,19,-1
 565 679 l 1,20,-1
 148 679 l 1,21,-1
 148 370 l 1,22,-1
 519 370 l 1,23,-1
 519 350 l 1,24,-1
 148 350 l 1,25,-1
 148 20 l 1,26,-1
 579 20 l 1,27,-1
 579 0 l 1,28,0
 514 -43 514 -43 485.5 -73.5 c 128,-1,1
EndSplineSet
EndChar

StartChar: eogonek
Encoding: 281 281 220
Width: 589
Flags: W
LayerCount: 2
Fore
SplineSet
404.5 39.5 m 128,-1,1
 452 59 452 59 484 95 c 1,2,-1
 498 81 l 1,3,4
 481 63 481 63 457 45 c 0,5,6
 391 -8 391 -8 355.5 -55 c 128,-1,7
 320 -102 320 -102 320 -140 c 0,8,9
 320 -166 320 -166 334.5 -179.5 c 128,-1,10
 349 -193 349 -193 372 -193 c 0,11,12
 402 -193 402 -193 431 -173 c 1,13,-1
 441 -189 l 1,14,15
 407 -213 407 -213 371 -213 c 0,16,17
 339 -213 339 -213 319 -193 c 128,-1,18
 299 -173 299 -173 299 -139 c 0,19,20
 299 -73 299 -73 392 14 c 1,21,22
 348 0 348 0 301 0 c 0,23,24
 230 0 230 0 173.5 33.5 c 128,-1,25
 117 67 117 67 84.5 126 c 128,-1,26
 52 185 52 185 52 259 c 256,27,28
 52 333 52 333 84.5 392 c 128,-1,29
 117 451 117 451 173.5 484 c 128,-1,30
 230 517 230 517 301 517 c 256,31,32
 372 517 372 517 426.5 484 c 128,-1,33
 481 451 481 451 511 392 c 128,-1,34
 541 333 541 333 541 259 c 1,35,-1
 72 259 l 1,36,37
 72 190 72 190 101.5 135.5 c 128,-1,38
 131 81 131 81 183 50.5 c 128,-1,39
 235 20 235 20 301 20 c 0,40,0
 357 20 357 20 404.5 39.5 c 128,-1,1
187.5 469.5 m 128,-1,42
 137 442 137 442 107 392.5 c 128,-1,43
 77 343 77 343 73 279 c 1,44,-1
 521 279 l 1,45,46
 514 377 514 377 455 437 c 128,-1,47
 396 497 396 497 301 497 c 0,48,41
 238 497 238 497 187.5 469.5 c 128,-1,42
EndSplineSet
Substitution2: "<3,3> Small Caps in Latin lookup 11 subtable" eogonek.sc
EndChar

StartChar: Hbar
Encoding: 294 294 233
Width: 799
Flags: W
LayerCount: 2
Fore
SplineSet
738 547 m 1,0,-1
 738 527 l 1,1,-1
 671 527 l 1,2,-1
 671 0 l 1,3,-1
 651 0 l 1,4,-1
 651 343 l 1,5,-1
 148 343 l 1,6,-1
 148 0 l 1,7,-1
 128 0 l 1,8,-1
 128 527 l 1,9,-1
 62 527 l 1,10,-1
 62 547 l 1,11,-1
 128 547 l 1,12,-1
 128 699 l 1,13,-1
 148 699 l 1,14,-1
 148 547 l 1,15,-1
 651 547 l 1,16,-1
 651 699 l 1,17,-1
 671 699 l 1,18,-1
 671 547 l 1,19,-1
 738 547 l 1,0,-1
651 363 m 1,20,-1
 651 527 l 1,21,-1
 148 527 l 1,22,-1
 148 363 l 1,23,-1
 651 363 l 1,20,-1
EndSplineSet
EndChar

StartChar: hbar
Encoding: 295 295 234
Width: 650
Flags: W
LayerCount: 2
Fore
SplineSet
503.5 463 m 128,-1,1
 557 409 557 409 557 313 c 2,2,-1
 557 0 l 1,3,-1
 537 0 l 1,4,-1
 537 313 l 2,5,6
 537 400 537 400 488.5 448.5 c 128,-1,7
 440 497 440 497 354 497 c 0,8,9
 251 497 251 497 193 431.5 c 128,-1,10
 135 366 135 366 135 253 c 2,11,-1
 135 0 l 1,12,-1
 115 0 l 1,13,-1
 115 619 l 1,14,-1
 35 619 l 1,15,-1
 35 639 l 1,16,-1
 115 639 l 1,17,-1
 115 742 l 1,18,-1
 135 742 l 1,19,-1
 135 639 l 1,20,-1
 385 639 l 1,21,-1
 385 619 l 1,22,-1
 135 619 l 1,23,-1
 135 369 l 1,24,25
 160 440 160 440 216 478.5 c 128,-1,26
 272 517 272 517 354 517 c 0,27,0
 450 517 450 517 503.5 463 c 128,-1,1
EndSplineSet
Substitution2: "<3,3> Small Caps in Latin lookup 11 subtable" hbar.sc
EndChar

StartChar: Iogonek
Encoding: 302 302 241
Width: 276
Flags: W
LayerCount: 2
Fore
SplineSet
54.5 -73.5 m 128,-1,1
 26 -104 26 -104 26 -139 c 0,2,3
 26 -166 26 -166 40.5 -179.5 c 128,-1,4
 55 -193 55 -193 78 -193 c 0,5,6
 108 -193 108 -193 137 -173 c 1,7,-1
 147 -189 l 1,8,9
 112 -213 112 -213 77 -213 c 0,10,11
 44 -213 44 -213 24.5 -193 c 128,-1,12
 5 -173 5 -173 5 -139 c 0,13,14
 5 -98 5 -98 34.5 -65 c 128,-1,15
 64 -32 64 -32 128 9 c 1,16,-1
 128 699 l 1,17,-1
 148 699 l 1,18,-1
 148 0 l 1,19,0
 83 -43 83 -43 54.5 -73.5 c 128,-1,1
EndSplineSet
EndChar

StartChar: iogonek
Encoding: 303 303 242
Width: 240
Flags: W
LayerCount: 2
Fore
SplineSet
138.5 684.5 m 128,-1,1
 146 677 146 677 146 666 c 0,2,3
 146 656 146 656 138.5 648 c 128,-1,4
 131 640 131 640 120 640 c 0,5,6
 110 640 110 640 102 648 c 128,-1,7
 94 656 94 656 94 666 c 0,8,9
 94 677 94 677 102 684.5 c 128,-1,10
 110 692 110 692 120 692 c 0,11,0
 131 692 131 692 138.5 684.5 c 128,-1,1
110 517 m 1,12,-1
 130 517 l 1,13,-1
 130 0 l 1,14,15
 65 -43 65 -43 36.5 -73.5 c 128,-1,16
 8 -104 8 -104 8 -139 c 0,17,18
 8 -166 8 -166 22.5 -179.5 c 128,-1,19
 37 -193 37 -193 60 -193 c 0,20,21
 90 -193 90 -193 119 -173 c 1,22,-1
 129 -189 l 1,23,24
 95 -213 95 -213 59 -213 c 0,25,26
 26 -213 26 -213 6.5 -193 c 128,-1,27
 -13 -173 -13 -173 -13 -139 c 0,28,29
 -13 -98 -13 -98 16.5 -65 c 128,-1,30
 46 -32 46 -32 110 9 c 1,31,-1
 110 517 l 1,12,-1
EndSplineSet
Substitution2: "<3,3> Small Caps in Latin lookup 11 subtable" iogonek.sc
EndChar

StartChar: dotlessi
Encoding: 305 305 244
Width: 240
Flags: W
LayerCount: 2
Fore
SplineSet
110 517 m 1,0,-1
 130 517 l 1,1,-1
 130 0 l 1,2,-1
 110 0 l 1,3,-1
 110 517 l 1,0,-1
EndSplineSet
Substitution2: "<3,3> Small Caps in Latin lookup 11 subtable" dotlessi.sc
EndChar

StartChar: kgreenlandic
Encoding: 312 312 251
Width: 535
Flags: W
LayerCount: 2
Fore
SplineSet
495 0 m 1,0,-1
 278 302 l 1,1,-1
 130 152 l 1,2,-1
 130 0 l 1,3,-1
 110 0 l 1,4,-1
 110 517 l 1,5,-1
 130 517 l 1,6,-1
 130 183 l 1,7,-1
 461 517 l 1,8,-1
 489 517 l 1,9,-1
 292 317 l 1,10,-1
 519 0 l 1,11,-1
 495 0 l 1,0,-1
EndSplineSet
Substitution2: "<3,3> Small Caps in Latin lookup 11 subtable" kgreenlandic.sc
EndChar

StartChar: Lslash
Encoding: 321 321 260
Width: 503
Flags: W
LayerCount: 2
Fore
SplineSet
160 20 m 1,0,-1
 473 20 l 1,1,-1
 473 0 l 1,2,-1
 140 0 l 1,3,-1
 140 354 l 1,4,-1
 30 293 l 1,5,-1
 30 316 l 1,6,-1
 140 377 l 1,7,-1
 140 699 l 1,8,-1
 160 699 l 1,9,-1
 160 388 l 1,10,-1
 290 460 l 1,11,-1
 290 437 l 1,12,-1
 160 365 l 1,13,-1
 160 20 l 1,0,-1
EndSplineSet
EndChar

StartChar: lslash
Encoding: 322 322 261
Width: 334
Flags: W
LayerCount: 2
Fore
SplineSet
310 460 m 1,0,-1
 310 437 l 1,1,-1
 190 371 l 1,2,-1
 190 0 l 1,3,-1
 170 0 l 1,4,-1
 170 359 l 1,5,-1
 50 293 l 1,6,-1
 50 316 l 1,7,-1
 170 382 l 1,8,-1
 170 742 l 1,9,-1
 190 742 l 1,10,-1
 190 394 l 1,11,-1
 310 460 l 1,0,-1
EndSplineSet
Substitution2: "<3,3> Small Caps in Latin lookup 11 subtable" lslash.sc
EndChar

StartChar: Eng
Encoding: 330 330 269
Width: 799
Flags: W
LayerCount: 2
Fore
SplineSet
671 699 m 1,0,-1
 671 0 l 2,1,2
 671 -95 671 -95 626.5 -145.5 c 128,-1,3
 582 -196 582 -196 499 -196 c 0,4,5
 448 -196 448 -196 403 -170.5 c 128,-1,6
 358 -145 358 -145 325 -98 c 1,7,-1
 339 -84 l 1,8,9
 370 -129 370 -129 411 -152.5 c 128,-1,10
 452 -176 452 -176 499 -176 c 0,11,12
 572 -176 572 -176 611 -131 c 128,-1,13
 650 -86 650 -86 651 0 c 1,14,-1
 641 0 l 1,15,-1
 148 679 l 1,16,-1
 148 0 l 1,17,-1
 128 0 l 1,18,-1
 128 699 l 1,19,-1
 158 699 l 1,20,-1
 651 20 l 1,21,-1
 651 699 l 1,22,-1
 671 699 l 1,0,-1
EndSplineSet
EndChar

StartChar: eng
Encoding: 331 331 270
Width: 644
Flags: W
LayerCount: 2
Fore
SplineSet
497.5 463 m 128,-1,1
 551 409 551 409 551 313 c 2,2,-1
 551 -32 l 2,3,4
 551 -112 551 -112 522 -152.5 c 128,-1,5
 493 -193 493 -193 437 -193 c 0,6,7
 383 -193 383 -193 333 -156 c 1,8,-1
 345 -140 l 1,9,10
 386 -173 386 -173 437 -173 c 0,11,12
 484 -173 484 -173 507.5 -137.5 c 128,-1,13
 531 -102 531 -102 531 -32 c 2,14,-1
 531 313 l 2,15,16
 531 400 531 400 482.5 448.5 c 128,-1,17
 434 497 434 497 348 497 c 0,18,19
 252 495 252 495 195 438 c 128,-1,20
 138 381 138 381 130 281 c 1,21,-1
 130 0 l 1,22,-1
 110 0 l 1,23,-1
 110 517 l 1,24,-1
 130 517 l 1,25,-1
 130 371 l 1,26,27
 155 440 155 440 211 478 c 128,-1,28
 267 516 267 516 348 517 c 0,29,0
 444 517 444 517 497.5 463 c 128,-1,1
EndSplineSet
Substitution2: "<3,3> Small Caps in Latin lookup 11 subtable" eng.sc
EndChar

StartChar: OE
Encoding: 338 338 277
Width: 1089
Flags: W
LayerCount: 2
Fore
SplineSet
1024 20 m 1,0,-1
 1024 0 l 1,1,-1
 409 0 l 2,2,3
 312 0 312 0 229.5 47.5 c 128,-1,4
 147 95 147 95 98.5 175.5 c 128,-1,5
 50 256 50 256 50 350 c 256,6,7
 50 444 50 444 98.5 524.5 c 128,-1,8
 147 605 147 605 229.5 652 c 128,-1,9
 312 699 312 699 409 699 c 2,10,-1
 1010 699 l 1,11,-1
 1010 679 l 1,12,-1
 593 679 l 1,13,-1
 593 370 l 1,14,-1
 964 370 l 1,15,-1
 964 350 l 1,16,-1
 593 350 l 1,17,-1
 593 20 l 1,18,-1
 1024 20 l 1,0,-1
573 17 m 1,19,-1
 573 680 l 1,20,-1
 409 680 l 2,21,22
 317 680 317 680 239 635.5 c 128,-1,23
 161 591 161 591 115 515 c 128,-1,24
 69 439 69 439 69 350 c 256,25,26
 69 261 69 261 115 184.5 c 128,-1,27
 161 108 161 108 239 63.5 c 128,-1,28
 317 19 317 19 409 19 c 2,29,-1
 573 17 l 1,19,-1
EndSplineSet
EndChar

StartChar: oe
Encoding: 339 339 278
Width: 1075
Flags: W
LayerCount: 2
Fore
SplineSet
889.5 39.5 m 128,-1,1
 937 59 937 59 970 95 c 1,2,-1
 984 81 l 1,3,4
 948 42 948 42 896.5 21 c 128,-1,5
 845 0 845 0 786 0 c 0,6,7
 697 0 697 0 632 50 c 128,-1,8
 567 100 567 100 545 184 c 1,9,10
 522 100 522 100 457 50 c 128,-1,11
 392 0 392 0 303 0 c 0,12,13
 232 0 232 0 174.5 33.5 c 128,-1,14
 117 67 117 67 84.5 126 c 128,-1,15
 52 185 52 185 52 259 c 256,16,17
 52 333 52 333 84.5 392 c 128,-1,18
 117 451 117 451 174.5 484 c 128,-1,19
 232 517 232 517 303 517 c 0,20,21
 392 517 392 517 457 467 c 128,-1,22
 522 417 522 417 545 334 c 1,23,24
 567 417 567 417 632 467 c 128,-1,25
 697 517 697 517 786 517 c 0,26,27
 857 517 857 517 911.5 484 c 128,-1,28
 966 451 966 451 996.5 392 c 128,-1,29
 1027 333 1027 333 1027 259 c 1,30,-1
 555 259 l 1,31,32
 555 190 555 190 584.5 135.5 c 128,-1,33
 614 81 614 81 667 50.5 c 128,-1,34
 720 20 720 20 786 20 c 0,35,0
 842 20 842 20 889.5 39.5 c 128,-1,1
422 50.5 m 128,-1,37
 475 81 475 81 504.5 135.5 c 128,-1,38
 534 190 534 190 534 259 c 256,39,40
 534 328 534 328 504.5 382 c 128,-1,41
 475 436 475 436 422 466.5 c 128,-1,42
 369 497 369 497 303 497 c 256,43,44
 237 497 237 497 184 466.5 c 128,-1,45
 131 436 131 436 101.5 382 c 128,-1,46
 72 328 72 328 72 259 c 256,47,48
 72 190 72 190 101.5 135.5 c 128,-1,49
 131 81 131 81 184 50.5 c 128,-1,50
 237 20 237 20 303 20 c 256,51,36
 369 20 369 20 422 50.5 c 128,-1,37
672 469.5 m 128,-1,53
 621 442 621 442 590.5 392.5 c 128,-1,54
 560 343 560 343 556 279 c 1,55,-1
 1007 279 l 1,56,57
 1000 377 1000 377 940.5 437 c 128,-1,58
 881 497 881 497 786 497 c 0,59,52
 723 497 723 497 672 469.5 c 128,-1,53
EndSplineSet
Substitution2: "<3,3> Small Caps in Latin lookup 11 subtable" oe.sc
EndChar

StartChar: Scedilla
Encoding: 350 350 289
Width: 593
Flags: W
LayerCount: 2
Fore
SplineSet
126 459 m 128,-1,1
 153 426 153 426 192.5 408.5 c 128,-1,2
 232 391 232 391 300 370 c 0,3,4
 372 348 372 348 415 328.5 c 128,-1,5
 458 309 458 309 487.5 271 c 128,-1,6
 517 233 517 233 517 171 c 0,7,8
 517 98 517 98 462.5 52 c 128,-1,9
 408 6 408 6 314 -2 c 1,10,-1
 298 -56 l 1,11,12
 336 -57 336 -57 357.5 -78.5 c 128,-1,13
 379 -100 379 -100 379 -130 c 0,14,15
 379 -163 379 -163 355.5 -188 c 128,-1,16
 332 -213 332 -213 290 -213 c 0,17,18
 271 -213 271 -213 250.5 -207 c 128,-1,19
 230 -201 230 -201 217 -191 c 1,20,-1
 225 -171 l 1,21,22
 237 -180 237 -180 255.5 -186 c 128,-1,23
 274 -192 274 -192 290 -192 c 0,24,25
 322 -192 322 -192 340 -173.5 c 128,-1,26
 358 -155 358 -155 358 -130 c 0,27,28
 358 -108 358 -108 342 -91.5 c 128,-1,29
 326 -75 326 -75 300 -75 c 2,30,-1
 271 -75 l 1,31,-1
 292 -3 l 1,32,-1
 280 -3 l 2,33,34
 214 -3 214 -3 149.5 24 c 128,-1,35
 85 51 85 51 41 96 c 1,36,-1
 55 110 l 1,37,38
 95 67 95 67 156 42 c 128,-1,39
 217 17 217 17 280 17 c 0,40,41
 379 17 379 17 438 59 c 128,-1,42
 497 101 497 101 497 171 c 0,43,44
 497 226 497 226 469.5 259.5 c 128,-1,45
 442 293 442 293 402 311.5 c 128,-1,46
 362 330 362 330 293 351 c 0,47,48
 222 373 222 373 179.5 392.5 c 128,-1,49
 137 412 137 412 108 449 c 128,-1,50
 79 486 79 486 79 547 c 0,51,52
 79 618 79 618 140 660.5 c 128,-1,53
 201 703 201 703 302 703 c 0,54,55
 351 703 351 703 401.5 689 c 128,-1,56
 452 675 452 675 488 652 c 1,57,-1
 478 636 l 1,58,59
 444 658 444 658 396.5 670.5 c 128,-1,60
 349 683 349 683 302 683 c 0,61,62
 210 683 210 683 154.5 645.5 c 128,-1,63
 99 608 99 608 99 546 c 0,64,0
 99 492 99 492 126 459 c 128,-1,1
EndSplineSet
EndChar

StartChar: scedilla
Encoding: 351 351 290
Width: 427
Flags: W
LayerCount: 2
Fore
SplineSet
340 35.5 m 128,-1,1
 291 1 291 1 220 0 c 1,2,-1
 204 -56 l 1,3,4
 242 -57 242 -57 263.5 -78.5 c 128,-1,5
 285 -100 285 -100 285 -130 c 0,6,7
 285 -163 285 -163 261.5 -188 c 128,-1,8
 238 -213 238 -213 196 -213 c 0,9,10
 177 -213 177 -213 156.5 -207 c 128,-1,11
 136 -201 136 -201 123 -191 c 1,12,-1
 131 -171 l 1,13,14
 143 -180 143 -180 161.5 -186 c 128,-1,15
 180 -192 180 -192 196 -192 c 0,16,17
 228 -192 228 -192 246 -173.5 c 128,-1,18
 264 -155 264 -155 264 -130 c 0,19,20
 264 -108 264 -108 248 -91.5 c 128,-1,21
 232 -75 232 -75 206 -75 c 2,22,-1
 177 -75 l 1,23,-1
 199 0 l 1,24,25
 149 3 149 3 105.5 21.5 c 128,-1,26
 62 40 62 40 30 72 c 1,27,-1
 43 87 l 1,28,29
 76 55 76 55 120 37.5 c 128,-1,30
 164 20 164 20 215 20 c 0,31,32
 281 20 281 20 325 49 c 128,-1,33
 369 78 369 78 369 133 c 0,34,35
 369 168 369 168 349 190.5 c 128,-1,36
 329 213 329 213 299.5 226 c 128,-1,37
 270 239 270 239 220 254 c 0,38,39
 167 271 167 271 134.5 285.5 c 128,-1,40
 102 300 102 300 80 326 c 128,-1,41
 58 352 58 352 58 393 c 0,42,43
 58 454 58 454 104.5 485.5 c 128,-1,44
 151 517 151 517 222 517 c 0,45,46
 296 517 296 517 360 480 c 1,47,-1
 350 463 l 1,48,49
 297 497 297 497 223 497 c 0,50,51
 159 497 159 497 118.5 471 c 128,-1,52
 78 445 78 445 78 395 c 0,53,54
 78 360 78 360 97.5 338 c 128,-1,55
 117 316 117 316 145.5 304 c 128,-1,56
 174 292 174 292 225 276 c 0,57,58
 279 260 279 260 311.5 245.5 c 128,-1,59
 344 231 344 231 366.5 204 c 128,-1,60
 389 177 389 177 389 134 c 0,61,0
 389 70 389 70 340 35.5 c 128,-1,1
EndSplineSet
Substitution2: "<3,3> Small Caps in Latin lookup 11 subtable" scedilla.sc
EndChar

StartChar: uni0162
Encoding: 354 354 293
Width: 526
Flags: W
LayerCount: 2
Fore
SplineSet
273 679 m 1,0,-1
 273 2 l 1,1,-1
 280 0 l 1,2,-1
 264 -56 l 1,3,4
 302 -57 302 -57 323.5 -78.5 c 128,-1,5
 345 -100 345 -100 345 -130 c 0,6,7
 345 -163 345 -163 321.5 -188 c 128,-1,8
 298 -213 298 -213 256 -213 c 0,9,10
 237 -213 237 -213 216.5 -207 c 128,-1,11
 196 -201 196 -201 183 -191 c 1,12,-1
 191 -171 l 1,13,14
 203 -180 203 -180 221.5 -186 c 128,-1,15
 240 -192 240 -192 256 -192 c 0,16,17
 289 -192 289 -192 306.5 -173.5 c 128,-1,18
 324 -155 324 -155 324 -130 c 0,19,20
 324 -108 324 -108 308 -91.5 c 128,-1,21
 292 -75 292 -75 266 -75 c 2,22,-1
 237 -75 l 1,23,-1
 259 0 l 1,24,-1
 253 0 l 1,25,-1
 253 679 l 1,26,-1
 13 679 l 1,27,-1
 13 699 l 1,28,-1
 513 699 l 1,29,-1
 513 679 l 1,30,-1
 273 679 l 1,0,-1
EndSplineSet
EndChar

StartChar: uni0163
Encoding: 355 355 294
Width: 362
Flags: W
LayerCount: 2
Fore
SplineSet
288.5 -78.5 m 128,-1,1
 310 -100 310 -100 310 -130 c 0,2,3
 310 -163 310 -163 286.5 -188 c 128,-1,4
 263 -213 263 -213 221 -213 c 0,5,6
 202 -213 202 -213 181.5 -207 c 128,-1,7
 161 -201 161 -201 148 -191 c 1,8,-1
 156 -171 l 1,9,10
 168 -180 168 -180 186.5 -186 c 128,-1,11
 205 -192 205 -192 221 -192 c 0,12,13
 254 -192 254 -192 271.5 -173.5 c 128,-1,14
 289 -155 289 -155 289 -130 c 0,15,16
 289 -108 289 -108 273 -91.5 c 128,-1,17
 257 -75 257 -75 231 -75 c 2,18,-1
 202 -75 l 1,19,-1
 224 0 l 1,20,21
 176 4 176 4 151 40 c 128,-1,22
 126 76 126 76 126 142 c 2,23,-1
 126 487 l 1,24,-1
 50 487 l 1,25,-1
 50 507 l 1,26,-1
 126 507 l 1,27,-1
 126 630 l 1,28,-1
 146 630 l 1,29,-1
 146 507 l 1,30,-1
 328 507 l 1,31,-1
 328 487 l 1,32,-1
 146 487 l 1,33,-1
 146 142 l 2,34,35
 146 82 146 82 168.5 51 c 128,-1,36
 191 20 191 20 234 20 c 0,37,38
 284 20 284 20 326 53 c 1,39,-1
 338 37 l 1,40,41
 295 4 295 4 244 0 c 1,42,-1
 245 0 l 1,43,-1
 229 -56 l 1,44,0
 267 -57 267 -57 288.5 -78.5 c 128,-1,1
EndSplineSet
Substitution2: "<3,3> Small Caps in Latin lookup 11 subtable" uni0163.sc
EndChar

StartChar: Tbar
Encoding: 358 358 297
Width: 526
Flags: W
LayerCount: 2
Fore
SplineSet
513 679 m 1,0,-1
 273 679 l 1,1,-1
 273 360 l 1,2,-1
 441 360 l 1,3,-1
 441 340 l 1,4,-1
 273 340 l 1,5,-1
 273 0 l 1,6,-1
 253 0 l 1,7,-1
 253 340 l 1,8,-1
 85 340 l 1,9,-1
 85 360 l 1,10,-1
 253 360 l 1,11,-1
 253 679 l 1,12,-1
 13 679 l 1,13,-1
 13 699 l 1,14,-1
 513 699 l 1,15,-1
 513 679 l 1,0,-1
EndSplineSet
EndChar

StartChar: tbar
Encoding: 359 359 298
Width: 362
Flags: W
LayerCount: 2
Fore
SplineSet
338 37 m 1,0,1
 288 0 288 0 234 0 c 0,2,3
 181 0 181 0 153.5 36 c 128,-1,4
 126 72 126 72 126 142 c 2,5,-1
 126 297 l 1,6,-1
 49 297 l 1,7,-1
 49 317 l 1,8,-1
 126 317 l 1,9,-1
 126 487 l 1,10,-1
 50 487 l 1,11,-1
 50 507 l 1,12,-1
 126 507 l 1,13,-1
 126 630 l 1,14,-1
 146 630 l 1,15,-1
 146 507 l 1,16,-1
 328 507 l 1,17,-1
 328 487 l 1,18,-1
 146 487 l 1,19,-1
 146 317 l 1,20,-1
 327 317 l 1,21,-1
 327 297 l 1,22,-1
 146 297 l 1,23,-1
 146 142 l 2,24,25
 146 82 146 82 168.5 51 c 128,-1,26
 191 20 191 20 234 20 c 0,27,28
 284 20 284 20 326 53 c 1,29,-1
 338 37 l 1,0,1
EndSplineSet
Substitution2: "<3,3> Small Caps in Latin lookup 11 subtable" tbar.sc
EndChar

StartChar: Uogonek
Encoding: 370 370 309
Width: 774
Flags: W
LayerCount: 2
Fore
SplineSet
664 699 m 1,0,-1
 664 281 l 2,1,2
 664 201 664 201 638.5 141.5 c 128,-1,3
 613 82 613 82 563 47 c 1,4,5
 497 -7 497 -7 461 -55 c 128,-1,6
 425 -103 425 -103 425 -140 c 0,7,8
 425 -166 425 -166 439.5 -179.5 c 128,-1,9
 454 -193 454 -193 477 -193 c 0,10,11
 507 -193 507 -193 536 -173 c 1,12,-1
 546 -189 l 1,13,14
 512 -213 512 -213 476 -213 c 0,15,16
 444 -213 444 -213 424 -193 c 128,-1,17
 404 -173 404 -173 404 -139 c 0,18,19
 404 -74 404 -74 496 13 c 1,20,21
 449 -3 449 -3 387 -3 c 0,22,23
 255 -3 255 -3 182.5 71 c 128,-1,24
 110 145 110 145 110 281 c 2,25,-1
 110 699 l 1,26,-1
 130 699 l 1,27,-1
 130 281 l 2,28,29
 130 155 130 155 197.5 86 c 128,-1,30
 265 17 265 17 387 17 c 256,31,32
 509 17 509 17 576.5 86 c 128,-1,33
 644 155 644 155 644 281 c 2,34,-1
 644 699 l 1,35,-1
 664 699 l 1,0,-1
EndSplineSet
EndChar

StartChar: uogonek
Encoding: 371 371 310
Width: 637
Flags: W
LayerCount: 2
Fore
SplineSet
433.5 -73.5 m 128,-1,1
 405 -104 405 -104 405 -139 c 0,2,3
 405 -166 405 -166 419.5 -179.5 c 128,-1,4
 434 -193 434 -193 457 -193 c 0,5,6
 487 -193 487 -193 516 -173 c 1,7,-1
 526 -189 l 1,8,9
 492 -213 492 -213 456 -213 c 0,10,11
 423 -213 423 -213 403.5 -193 c 128,-1,12
 384 -173 384 -173 384 -139 c 0,13,14
 384 -98 384 -98 413.5 -65 c 128,-1,15
 443 -32 443 -32 507 9 c 1,16,-1
 507 151 l 1,17,18
 483 79 483 79 428 40 c 128,-1,19
 373 1 373 1 292 0 c 0,20,21
 198 0 198 0 145 54 c 128,-1,22
 92 108 92 108 92 204 c 2,23,-1
 92 517 l 1,24,-1
 112 517 l 1,25,-1
 112 204 l 2,26,27
 112 117 112 117 159.5 68.5 c 128,-1,28
 207 20 207 20 292 20 c 0,29,30
 393 22 393 22 450 86.5 c 128,-1,31
 507 151 507 151 507 264 c 2,32,-1
 507 517 l 1,33,-1
 527 517 l 1,34,-1
 527 0 l 1,35,0
 462 -43 462 -43 433.5 -73.5 c 128,-1,1
EndSplineSet
Substitution2: "<3,3> Small Caps in Latin lookup 11 subtable" uogonek.sc
EndChar

StartChar: uni018F
Encoding: 399 399 322
Width: 790
Flags: W
LayerCount: 2
Fore
SplineSet
216.5 45 m 128,-1,1
 136 93 136 93 89 174 c 128,-1,2
 42 255 42 255 42 350 c 1,3,-1
 720 350 l 1,4,5
 720 440 720 440 675.5 516.5 c 128,-1,6
 631 593 631 593 555.5 638 c 128,-1,7
 480 683 480 683 391 683 c 0,8,9
 316 683 316 683 249.5 652.5 c 128,-1,10
 183 622 183 622 135 568 c 1,11,-1
 122 583 l 1,12,13
 172 639 172 639 242 671 c 128,-1,14
 312 703 312 703 391 703 c 0,15,16
 485 703 485 703 565.5 655.5 c 128,-1,17
 646 608 646 608 693 527 c 128,-1,18
 740 446 740 446 740 351 c 256,19,20
 740 256 740 256 693 174.5 c 128,-1,21
 646 93 646 93 565.5 45 c 128,-1,22
 485 -3 485 -3 391 -3 c 256,23,0
 297 -3 297 -3 216.5 45 c 128,-1,1
549.5 59 m 128,-1,25
 623 101 623 101 668.5 173 c 128,-1,26
 714 245 714 245 719 330 c 1,27,-1
 63 330 l 1,28,29
 68 245 68 245 113.5 173 c 128,-1,30
 159 101 159 101 232.5 59 c 128,-1,31
 306 17 306 17 391 17 c 256,32,24
 476 17 476 17 549.5 59 c 128,-1,25
EndSplineSet
EndChar

StartChar: florin
Encoding: 402 402 323
Width: 310
Flags: W
LayerCount: 2
Fore
SplineSet
201.5 696 m 128,-1,1
 168 660 168 660 161 600 c 2,2,-1
 144 462 l 1,3,-1
 313 462 l 1,4,-1
 311 442 l 1,5,-1
 142 442 l 1,6,-1
 83 -42 l 2,7,8
 63 -194 63 -194 -40 -194 c 0,9,10
 -62 -194 -62 -194 -86 -183.5 c 128,-1,11
 -110 -173 -110 -173 -129 -157 c 1,12,-1
 -115 -141 l 1,13,14
 -101 -155 -101 -155 -79.5 -164.5 c 128,-1,15
 -58 -174 -58 -174 -38 -174 c 0,16,17
 7 -174 7 -174 31 -140 c 128,-1,18
 55 -106 55 -106 63 -42 c 2,19,-1
 122 442 l 1,20,-1
 58 442 l 1,21,-1
 60 462 l 1,22,-1
 124 462 l 1,23,-1
 141 600 l 2,24,25
 150 669 150 669 189 710.5 c 128,-1,26
 228 752 228 752 284 752 c 0,27,28
 310 752 310 752 337 741.5 c 128,-1,29
 364 731 364 731 384 715 c 1,30,-1
 370 699 l 1,31,32
 352 714 352 714 327.5 723 c 128,-1,33
 303 732 303 732 282 732 c 0,34,0
 235 732 235 732 201.5 696 c 128,-1,1
EndSplineSet
EndChar

StartChar: Ohorn
Encoding: 416 416 324
Width: 846
Flags: W
LayerCount: 2
Fore
SplineSet
726 515.5 m 128,-1,1
 768 439 768 439 768 351 c 0,2,3
 768 256 768 256 719.5 174.5 c 128,-1,4
 671 93 671 93 588.5 45 c 128,-1,5
 506 -3 506 -3 409 -3 c 256,6,7
 312 -3 312 -3 229.5 45 c 128,-1,8
 147 93 147 93 98.5 174.5 c 128,-1,9
 50 256 50 256 50 351 c 256,10,11
 50 446 50 446 98.5 527 c 128,-1,12
 147 608 147 608 229.5 655.5 c 128,-1,13
 312 703 312 703 409 703 c 0,14,15
 495 703 495 703 569 666 c 1,16,17
 594 659 594 659 615 659 c 0,18,19
 651 659 651 659 673 684.5 c 128,-1,20
 695 710 695 710 695 745 c 0,21,22
 695 779 695 779 675 806 c 1,23,-1
 695 816 l 1,24,25
 717 784 717 784 717 746 c 0,26,27
 717 703 717 703 689 672 c 128,-1,28
 661 641 661 641 617 641 c 2,29,-1
 611 641 l 1,30,0
 684 592 684 592 726 515.5 c 128,-1,1
578 62 m 128,-1,32
 656 107 656 107 702 184 c 128,-1,33
 748 261 748 261 748 351 c 0,34,35
 748 440 748 440 702 516.5 c 128,-1,36
 656 593 656 593 578 638 c 128,-1,37
 500 683 500 683 409 683 c 256,38,39
 318 683 318 683 240 638 c 128,-1,40
 162 593 162 593 116 516.5 c 128,-1,41
 70 440 70 440 70 351 c 0,42,43
 70 261 70 261 116 184 c 128,-1,44
 162 107 162 107 240 62 c 128,-1,45
 318 17 318 17 409 17 c 256,46,31
 500 17 500 17 578 62 c 128,-1,32
EndSplineSet
EndChar

StartChar: ohorn
Encoding: 417 417 325
Width: 628
Flags: W
LayerCount: 2
Fore
SplineSet
530.5 373 m 128,-1,1
 554 321 554 321 554 259 c 0,2,3
 554 185 554 185 521.5 126 c 128,-1,4
 489 67 489 67 431.5 33.5 c 128,-1,5
 374 0 374 0 303 0 c 256,6,7
 232 0 232 0 174.5 33.5 c 128,-1,8
 117 67 117 67 84.5 126 c 128,-1,9
 52 185 52 185 52 259 c 256,10,11
 52 333 52 333 84.5 392 c 128,-1,12
 117 451 117 451 174.5 484 c 128,-1,13
 232 517 232 517 303 517 c 256,14,15
 374 517 374 517 430 485 c 1,16,17
 455 478 455 478 476 478 c 0,18,19
 512 478 512 478 534 503.5 c 128,-1,20
 556 529 556 529 556 564 c 0,21,22
 556 598 556 598 536 625 c 1,23,-1
 556 635 l 1,24,25
 578 603 578 603 578 565 c 0,26,27
 578 522 578 522 550 491 c 128,-1,28
 522 460 522 460 478 460 c 2,29,-1
 465 460 l 1,30,0
 507 425 507 425 530.5 373 c 128,-1,1
422 50.5 m 128,-1,32
 475 81 475 81 504.5 135.5 c 128,-1,33
 534 190 534 190 534 259 c 256,34,35
 534 328 534 328 504.5 382 c 128,-1,36
 475 436 475 436 422 466.5 c 128,-1,37
 369 497 369 497 303 497 c 256,38,39
 237 497 237 497 184 466.5 c 128,-1,40
 131 436 131 436 101.5 382 c 128,-1,41
 72 328 72 328 72 259 c 256,42,43
 72 190 72 190 101.5 135.5 c 128,-1,44
 131 81 131 81 184 50.5 c 128,-1,45
 237 20 237 20 303 20 c 256,46,31
 369 20 369 20 422 50.5 c 128,-1,32
EndSplineSet
Substitution2: "<3,3> Small Caps in Latin lookup 11 subtable" ohorn.sc
EndChar

StartChar: Uhorn
Encoding: 431 431 326
Width: 783
Flags: W
LayerCount: 2
Fore
SplineSet
733 761 m 0,1,2
 733 730 733 730 715 708.5 c 128,-1,3
 697 687 697 687 664 683 c 1,4,-1
 664 281 l 2,5,6
 664 145 664 145 591.5 71 c 128,-1,7
 519 -3 519 -3 387 -3 c 256,8,9
 255 -3 255 -3 182.5 71 c 128,-1,10
 110 145 110 145 110 281 c 2,11,-1
 110 699 l 1,12,-1
 130 699 l 1,13,-1
 130 281 l 2,14,15
 130 155 130 155 197.5 86 c 128,-1,16
 265 17 265 17 387 17 c 256,17,18
 509 17 509 17 576.5 86 c 128,-1,19
 644 155 644 155 644 281 c 2,20,-1
 644 699 l 1,21,-1
 651 699 l 2,22,23
 682 699 682 699 698 716 c 128,-1,24
 714 733 714 733 714 759 c 0,25,26
 714 782 714 782 701 808 c 1,27,-1
 720 816 l 1,28,0
 733 789 733 789 733 761 c 0,1,2
EndSplineSet
EndChar

StartChar: uhorn
Encoding: 432 432 327
Width: 635
Flags: W
LayerCount: 2
Fore
SplineSet
596 579 m 0,1,2
 596 548 596 548 578 526.5 c 128,-1,3
 560 505 560 505 527 501 c 1,4,-1
 527 0 l 1,5,-1
 507 0 l 1,6,-1
 507 151 l 1,7,8
 483 79 483 79 428 40 c 128,-1,9
 373 1 373 1 292 0 c 0,10,11
 198 0 198 0 145 54 c 128,-1,12
 92 108 92 108 92 204 c 2,13,-1
 92 517 l 1,14,-1
 112 517 l 1,15,-1
 112 204 l 2,16,17
 112 117 112 117 159.5 68.5 c 128,-1,18
 207 20 207 20 292 20 c 0,19,20
 393 22 393 22 450 86.5 c 128,-1,21
 507 151 507 151 507 264 c 2,22,-1
 507 517 l 1,23,-1
 514 517 l 2,24,25
 545 517 545 517 561 534 c 128,-1,26
 577 551 577 551 577 577 c 0,27,28
 577 600 577 600 564 626 c 1,29,-1
 583 634 l 1,30,0
 596 607 596 607 596 579 c 0,1,2
EndSplineSet
Substitution2: "<3,3> Small Caps in Latin lookup 11 subtable" uhorn.sc
EndChar

StartChar: uni01EA
Encoding: 490 490 339
Width: 818
Flags: W
LayerCount: 2
Fore
SplineSet
450 -140 m 0,1,2
 450 -166 450 -166 464.5 -179.5 c 128,-1,3
 479 -193 479 -193 502 -193 c 0,4,5
 532 -193 532 -193 561 -173 c 1,6,-1
 571 -189 l 1,7,8
 536 -213 536 -213 501 -213 c 0,9,10
 469 -213 469 -213 449 -193 c 128,-1,11
 429 -173 429 -173 429 -139 c 0,12,13
 429 -73 429 -73 524 16 c 1,14,15
 467 -3 467 -3 409 -3 c 0,16,17
 312 -3 312 -3 229.5 45 c 128,-1,18
 147 93 147 93 98.5 174.5 c 128,-1,19
 50 256 50 256 50 351 c 256,20,21
 50 446 50 446 98.5 527 c 128,-1,22
 147 608 147 608 229.5 655.5 c 128,-1,23
 312 703 312 703 409 703 c 256,24,25
 506 703 506 703 588.5 655.5 c 128,-1,26
 671 608 671 608 719.5 527 c 128,-1,27
 768 446 768 446 768 351 c 0,28,29
 768 253 768 253 717 170 c 128,-1,30
 666 87 666 87 581 41 c 1,31,0
 450 -68 450 -68 450 -140 c 0,1,2
576 61 m 1,33,-1
 581 65 l 1,34,-1
 582 64 l 1,35,36
 658 109 658 109 703 185.5 c 128,-1,37
 748 262 748 262 748 351 c 256,38,39
 748 440 748 440 702 516.5 c 128,-1,40
 656 593 656 593 578 638 c 128,-1,41
 500 683 500 683 409 683 c 256,42,43
 318 683 318 683 240 638 c 128,-1,44
 162 593 162 593 116 516.5 c 128,-1,45
 70 440 70 440 70 351 c 0,46,47
 70 261 70 261 116 184 c 128,-1,48
 162 107 162 107 240 62 c 128,-1,49
 318 17 318 17 409 17 c 0,50,32
 497 17 497 17 576 61 c 1,33,-1
EndSplineSet
EndChar

StartChar: uni01EB
Encoding: 491 491 340
Width: 606
Flags: W
LayerCount: 2
Fore
SplineSet
314 -140 m 0,1,2
 314 -166 314 -166 328.5 -179.5 c 128,-1,3
 343 -193 343 -193 366 -193 c 0,4,5
 396 -193 396 -193 425 -173 c 1,6,-1
 435 -189 l 1,7,8
 400 -213 400 -213 365 -213 c 0,9,10
 333 -213 333 -213 313 -193 c 128,-1,11
 293 -173 293 -173 293 -139 c 0,12,13
 293 -74 293 -74 385 13 c 1,14,15
 347 0 347 0 303 0 c 0,16,17
 232 0 232 0 174.5 33.5 c 128,-1,18
 117 67 117 67 84.5 126 c 128,-1,19
 52 185 52 185 52 259 c 256,20,21
 52 333 52 333 84.5 392 c 128,-1,22
 117 451 117 451 174.5 484 c 128,-1,23
 232 517 232 517 303 517 c 256,24,25
 374 517 374 517 431.5 484 c 128,-1,26
 489 451 489 451 521.5 392 c 128,-1,27
 554 333 554 333 554 259 c 0,28,29
 554 191 554 191 527 136 c 128,-1,30
 500 81 500 81 452 46 c 0,31,0
 314 -66 314 -66 314 -140 c 0,1,2
101.5 135.5 m 128,-1,33
 131 81 131 81 184 50.5 c 128,-1,34
 237 20 237 20 303 20 c 256,35,36
 369 20 369 20 422 50.5 c 128,-1,37
 475 81 475 81 504.5 135.5 c 128,-1,38
 534 190 534 190 534 259 c 256,39,40
 534 328 534 328 504.5 382 c 128,-1,41
 475 436 475 436 422 466.5 c 128,-1,42
 369 497 369 497 303 497 c 256,43,44
 237 497 237 497 184 466.5 c 128,-1,45
 131 436 131 436 101.5 382 c 128,-1,46
 72 328 72 328 72 259 c 256,47,32
 72 190 72 190 101.5 135.5 c 128,-1,33
EndSplineSet
Substitution2: "<3,3> Small Caps in Latin lookup 11 subtable" uni01EB.sc
EndChar

StartChar: uni0237
Encoding: 567 567 383
Width: 219
Flags: W
LayerCount: 2
Fore
SplineSet
9 -173 m 0,1,2
 56 -174 56 -174 80.5 -138 c 128,-1,3
 105 -102 105 -102 105 -31 c 2,4,-1
 105 517 l 1,5,-1
 125 517 l 1,6,-1
 125 -31 l 2,7,8
 125 -111 125 -111 96 -152 c 128,-1,9
 67 -193 67 -193 11 -193 c 0,10,11
 -17 -193 -17 -193 -54 -179 c 1,12,-1
 -46 -161 l 1,13,0
 -19 -172 -19 -172 9 -173 c 0,1,2
EndSplineSet
EndChar

StartChar: uni0259
Encoding: 601 601 384
Width: 589
Flags: W
LayerCount: 2
Fore
SplineSet
415.5 483.5 m 128,-1,1
 472 450 472 450 504.5 391 c 128,-1,2
 537 332 537 332 537 258 c 256,3,4
 537 184 537 184 504.5 125 c 128,-1,5
 472 66 472 66 415.5 33 c 128,-1,6
 359 0 359 0 288 0 c 256,7,8
 217 0 217 0 162.5 33 c 128,-1,9
 108 66 108 66 78 125 c 128,-1,10
 48 184 48 184 48 258 c 1,11,-1
 517 258 l 1,12,13
 517 327 517 327 487.5 381.5 c 128,-1,14
 458 436 458 436 406 466.5 c 128,-1,15
 354 497 354 497 288 497 c 0,16,17
 232 497 232 497 184.5 477.5 c 128,-1,18
 137 458 137 458 105 422 c 1,19,-1
 91 436 l 1,20,21
 127 475 127 475 178 496 c 128,-1,22
 229 517 229 517 288 517 c 0,23,0
 359 517 359 517 415.5 483.5 c 128,-1,1
401.5 47.5 m 128,-1,25
 452 75 452 75 482 124.5 c 128,-1,26
 512 174 512 174 516 238 c 1,27,-1
 68 238 l 1,28,29
 75 140 75 140 134 80 c 128,-1,30
 193 20 193 20 288 20 c 0,31,24
 351 20 351 20 401.5 47.5 c 128,-1,25
EndSplineSet
Substitution2: "<3,3> Small Caps in Latin lookup 11 subtable" uni0259.sc
EndChar

StartChar: uni02BB
Encoding: 699 699 385
Width: 123
Flags: W
LayerCount: 2
Fore
SplineSet
73 520 m 1,0,-1
 50 525 l 1,1,-1
 58 700 l 1,2,-1
 73 700 l 1,3,-1
 73 520 l 1,0,-1
EndSplineSet
EndChar

StartChar: uni02BC
Encoding: 700 700 386
Width: 89
Flags: W
LayerCount: 2
Fore
SplineSet
35 699 m 1,0,-1
 55 699 l 1,1,-1
 48 440 l 1,2,-1
 30 440 l 1,3,-1
 35 699 l 1,0,-1
EndSplineSet
EndChar

StartChar: uni02BE
Encoding: 702 702 387
Width: 268
Flags: W
LayerCount: 2
Fore
SplineSet
70 579 m 1,0,1
 108 579 108 579 135.5 605 c 128,-1,2
 163 631 163 631 163 667 c 256,3,4
 163 703 163 703 135.5 729.5 c 128,-1,5
 108 756 108 756 70 756 c 1,6,-1
 70 776 l 1,7,8
 100 776 100 776 126 761 c 128,-1,9
 152 746 152 746 167.5 721 c 128,-1,10
 183 696 183 696 183 667 c 0,11,12
 183 623 183 623 149.5 591 c 128,-1,13
 116 559 116 559 70 559 c 1,14,-1
 70 579 l 1,0,1
EndSplineSet
EndChar

StartChar: uni02BF
Encoding: 703 703 388
Width: 267
Flags: W
LayerCount: 2
Fore
SplineSet
197 579 m 1,0,1
 159 579 159 579 132 605 c 128,-1,2
 105 631 105 631 105 667 c 256,3,4
 105 703 105 703 132.5 729.5 c 128,-1,5
 160 756 160 756 197 756 c 1,6,-1
 197 776 l 1,7,8
 151 776 151 776 118 743.5 c 128,-1,9
 85 711 85 711 85 667 c 256,10,11
 85 623 85 623 118 591 c 128,-1,12
 151 559 151 559 197 559 c 1,13,-1
 197 579 l 1,0,1
EndSplineSet
EndChar

StartChar: uni02C8
Encoding: 712 712 391
Width: 40
Flags: W
LayerCount: 2
Fore
SplineSet
10 519 m 1,0,-1
 10 699 l 1,1,-1
 30 699 l 1,2,-1
 30 519 l 1,3,-1
 10 519 l 1,0,-1
EndSplineSet
EndChar

StartChar: uni02CC
Encoding: 716 716 395
Width: 40
Flags: W
LayerCount: 2
Fore
SplineSet
10 -210 m 1,0,-1
 10 -30 l 1,1,-1
 30 -30 l 1,2,-1
 30 -210 l 1,3,-1
 10 -210 l 1,0,-1
EndSplineSet
EndChar

StartChar: gravecomb
Encoding: 768 768 402
Width: 0
Flags: W
LayerCount: 2
Fore
SplineSet
-192 739 m 1,0,-1
 -56 629 l 1,1,-1
 -82 624 l 1,2,-1
 -211 729 l 1,3,-1
 -192 739 l 1,0,-1
EndSplineSet
Substitution2: "<3,3> Small Caps in Latin lookup 11 subtable" gravecomb.sc
EndChar

StartChar: acutecomb
Encoding: 769 769 403
Width: 0
Flags: W
LayerCount: 2
Fore
SplineSet
-39 739 m 1,0,-1
 -20 729 l 1,1,-1
 -149 624 l 1,2,-1
 -175 629 l 1,3,-1
 -39 739 l 1,0,-1
EndSplineSet
Substitution2: "<3,3> Small Caps in Latin lookup 11 subtable" acutecomb.sc
EndChar

StartChar: uni0302
Encoding: 770 770 404
Width: 0
Flags: W
LayerCount: 2
Fore
SplineSet
-20 624 m 1,0,-1
 -46 624 l 1,1,-1
 -134 716 l 1,2,-1
 -222 624 l 1,3,-1
 -248 624 l 1,4,-1
 -150 734 l 1,5,-1
 -118 734 l 1,6,-1
 -20 624 l 1,0,-1
EndSplineSet
Substitution2: "<3,3> Small Caps in Latin lookup 11 subtable" uni0302.sc
EndChar

StartChar: tildecomb
Encoding: 771 771 405
Width: 0
Flags: W
LayerCount: 2
Fore
SplineSet
-39 651 m 128,-1,1
 -58 629 -58 629 -91 629 c 0,2,3
 -110 629 -110 629 -124.5 637.5 c 128,-1,4
 -139 646 -139 646 -159 663 c 0,5,6
 -175 678 -175 678 -188 686 c 128,-1,7
 -201 694 -201 694 -216 694 c 0,8,9
 -240 694 -240 694 -253 678 c 128,-1,10
 -266 662 -266 662 -266 633 c 1,11,-1
 -285 633 l 1,12,13
 -285 670 -285 670 -266 692 c 128,-1,14
 -247 714 -247 714 -214 714 c 0,15,16
 -195 714 -195 714 -180.5 705.5 c 128,-1,17
 -166 697 -166 697 -146 680 c 0,18,19
 -130 665 -130 665 -117 657 c 128,-1,20
 -104 649 -104 649 -89 649 c 0,21,22
 -65 649 -65 649 -52 665 c 128,-1,23
 -39 681 -39 681 -39 710 c 1,24,-1
 -20 710 l 1,25,0
 -20 673 -20 673 -39 651 c 128,-1,1
EndSplineSet
Substitution2: "<3,3> Small Caps in Latin lookup 11 subtable" tildecomb.sc
EndChar

StartChar: uni0304
Encoding: 772 772 406
Width: 0
Flags: W
LayerCount: 2
Fore
SplineSet
-257 677 m 1,0,-1
 0 677 l 1,1,-1
 0 657 l 1,2,-1
 -257 657 l 1,3,-1
 -257 677 l 1,0,-1
EndSplineSet
Substitution2: "<3,3> Small Caps in Latin lookup 11 subtable" uni0304.sc
EndChar

StartChar: uni0306
Encoding: 774 774 407
Width: 0
Flags: W
LayerCount: 2
Fore
SplineSet
-184 665.5 m 128,-1,1
 -160 641 -160 641 -125 641 c 256,2,3
 -90 641 -90 641 -66 665.5 c 128,-1,4
 -42 690 -42 690 -40 726 c 1,5,-1
 -20 726 l 1,6,7
 -21 681 -21 681 -51.5 651 c 128,-1,8
 -82 621 -82 621 -125 621 c 256,9,10
 -168 621 -168 621 -198.5 651 c 128,-1,11
 -229 681 -229 681 -230 726 c 1,12,-1
 -210 726 l 1,13,0
 -208 690 -208 690 -184 665.5 c 128,-1,1
EndSplineSet
Substitution2: "<3,3> Small Caps in Latin lookup 11 subtable" uni0306.sc
EndChar

StartChar: uni0307
Encoding: 775 775 408
Width: 0
Flags: W
LayerCount: 2
Fore
SplineSet
-58 684.5 m 128,-1,1
 -50 677 -50 677 -50 666 c 0,2,3
 -50 656 -50 656 -58 648 c 128,-1,4
 -66 640 -66 640 -76 640 c 0,5,6
 -87 640 -87 640 -94.5 648 c 128,-1,7
 -102 656 -102 656 -102 666 c 0,8,9
 -102 677 -102 677 -94.5 684.5 c 128,-1,10
 -87 692 -87 692 -76 692 c 0,11,0
 -66 692 -66 692 -58 684.5 c 128,-1,1
EndSplineSet
Substitution2: "<3,3> Small Caps in Latin lookup 11 subtable" uni0307.sc
EndChar

StartChar: uni0308
Encoding: 776 776 409
Width: 0
Flags: W
LayerCount: 2
Fore
SplineSet
-207 684.5 m 128,-1,1
 -199 677 -199 677 -199 666 c 0,2,3
 -199 656 -199 656 -207 648 c 128,-1,4
 -215 640 -215 640 -225 640 c 0,5,6
 -236 640 -236 640 -243.5 648 c 128,-1,7
 -251 656 -251 656 -251 666 c 0,8,9
 -251 677 -251 677 -243.5 684.5 c 128,-1,10
 -236 692 -236 692 -225 692 c 0,11,0
 -215 692 -215 692 -207 684.5 c 128,-1,1
-57 684.5 m 128,-1,13
 -49 677 -49 677 -49 666 c 0,14,15
 -49 656 -49 656 -57 648 c 128,-1,16
 -65 640 -65 640 -75 640 c 0,17,18
 -86 640 -86 640 -93.5 648 c 128,-1,19
 -101 656 -101 656 -101 666 c 0,20,21
 -101 677 -101 677 -93.5 684.5 c 128,-1,22
 -86 692 -86 692 -75 692 c 0,23,12
 -65 692 -65 692 -57 684.5 c 128,-1,13
EndSplineSet
Substitution2: "<3,3> Small Caps in Latin lookup 11 subtable" uni0308.sc
EndChar

StartChar: hookabovecomb
Encoding: 777 777 410
Width: 0
Flags: W
LayerCount: 2
Fore
SplineSet
-64.5 731 m 128,-1,1
 -45 711 -45 711 -45 680 c 0,2,3
 -45 656 -45 656 -59.5 631.5 c 128,-1,4
 -74 607 -74 607 -99 588 c 1,5,-1
 -119 596 l 1,6,7
 -94 614 -94 614 -79.5 636.5 c 128,-1,8
 -65 659 -65 659 -65 680 c 0,9,10
 -65 702 -65 702 -79.5 716.5 c 128,-1,11
 -94 731 -94 731 -119 731 c 256,12,13
 -144 731 -144 731 -172 713 c 1,14,-1
 -183 729 l 1,15,16
 -149 751 -149 751 -119 751 c 0,17,0
 -84 751 -84 751 -64.5 731 c 128,-1,1
EndSplineSet
Substitution2: "<3,3> Small Caps in Latin lookup 11 subtable" hookabovecomb.sc
EndChar

StartChar: uni030A
Encoding: 778 778 411
Width: 0
Flags: W
LayerCount: 2
Fore
SplineSet
-115.5 728 m 128,-1,1
 -89 702 -89 702 -89 667 c 256,2,3
 -89 632 -89 632 -115.5 606.5 c 128,-1,4
 -142 581 -142 581 -179 581 c 0,5,6
 -215 581 -215 581 -241.5 606.5 c 128,-1,7
 -268 632 -268 632 -268 667 c 256,8,9
 -268 702 -268 702 -241.5 728 c 128,-1,10
 -215 754 -215 754 -179 754 c 0,11,0
 -142 754 -142 754 -115.5 728 c 128,-1,1
-229.5 715.5 m 128,-1,13
 -251 695 -251 695 -251 667 c 256,14,15
 -251 639 -251 639 -229.5 619 c 128,-1,16
 -208 599 -208 599 -179 599 c 256,17,18
 -150 599 -150 599 -128 619 c 128,-1,19
 -106 639 -106 639 -106 667 c 256,20,21
 -106 695 -106 695 -128 715.5 c 128,-1,22
 -150 736 -150 736 -179 736 c 256,23,12
 -208 736 -208 736 -229.5 715.5 c 128,-1,13
EndSplineSet
EndChar

StartChar: uni030B
Encoding: 779 779 412
Width: 0
Flags: W
LayerCount: 2
Fore
SplineSet
-185 739 m 1,0,-1
 -168 728 l 1,1,-1
 -262 624 l 1,2,-1
 -284 629 l 1,3,-1
 -185 739 l 1,0,-1
-66 739 m 1,4,-1
 -49 728 l 1,5,-1
 -143 624 l 1,6,-1
 -165 629 l 1,7,-1
 -66 739 l 1,4,-1
EndSplineSet
Substitution2: "<3,3> Small Caps in Latin lookup 11 subtable" uni030B.sc
EndChar

StartChar: uni030C
Encoding: 780 780 413
Width: 0
Flags: W
LayerCount: 2
Fore
SplineSet
-76 734 m 1,0,-1
 -50 734 l 1,1,-1
 -148 624 l 1,2,-1
 -180 624 l 1,3,-1
 -278 734 l 1,4,-1
 -252 734 l 1,5,-1
 -164 642 l 1,6,-1
 -76 734 l 1,0,-1
EndSplineSet
Substitution2: "<3,3> Small Caps in Latin lookup 11 subtable" uni030C.sc
EndChar

StartChar: uni030F
Encoding: 783 783 414
Width: 0
Flags: W
LayerCount: 2
Fore
SplineSet
-273 739 m 1,0,-1
 -173 629 l 1,1,-1
 -196 624 l 1,2,-1
 -290 728 l 1,3,-1
 -273 739 l 1,0,-1
-154 739 m 1,4,-1
 -54 629 l 1,5,-1
 -77 624 l 1,6,-1
 -171 728 l 1,7,-1
 -154 739 l 1,4,-1
EndSplineSet
Substitution2: "<3,3> Small Caps in Latin lookup 11 subtable" uni030F.sc
EndChar

StartChar: uni0311
Encoding: 785 785 415
Width: 0
Flags: W
LayerCount: 2
Fore
SplineSet
-230 621 m 1,0,1
 -229 666 -229 666 -198.5 696 c 128,-1,2
 -168 726 -168 726 -125 726 c 256,3,4
 -82 726 -82 726 -51.5 696 c 128,-1,5
 -21 666 -21 666 -20 621 c 1,6,-1
 -40 621 l 1,7,8
 -42 657 -42 657 -66 681.5 c 128,-1,9
 -90 706 -90 706 -125 706 c 256,10,11
 -160 706 -160 706 -184 681.5 c 128,-1,12
 -208 657 -208 657 -210 621 c 1,13,-1
 -230 621 l 1,0,1
EndSplineSet
Substitution2: "<3,3> Small Caps in Latin lookup 11 subtable" uni0311.sc
EndChar

StartChar: uni0312
Encoding: 786 786 416
Width: 0
Flags: W
LayerCount: 2
Fore
SplineSet
-81 615 m 1,0,-1
 -102 615 l 1,1,-1
 -59 764 l 1,2,-1
 -41 764 l 1,3,-1
 -81 615 l 1,0,-1
EndSplineSet
EndChar

StartChar: uni031B
Encoding: 795 795 417
Width: 0
Flags: W
LayerCount: 2
Fore
SplineSet
-15 579 m 0,1,2
 -15 544 -15 544 -36.5 522 c 128,-1,3
 -58 500 -58 500 -98 500 c 1,4,-1
 -97 517 l 1,5,6
 -66 517 -66 517 -50 534 c 128,-1,7
 -34 551 -34 551 -34 577 c 0,8,9
 -34 600 -34 600 -47 626 c 1,10,-1
 -28 634 l 1,11,0
 -15 607 -15 607 -15 579 c 0,1,2
EndSplineSet
EndChar

StartChar: dotbelowcomb
Encoding: 803 803 418
Width: 0
Flags: W
LayerCount: 2
Fore
SplineSet
-58 -88 m 128,-1,1
 -50 -96 -50 -96 -50 -106 c 0,2,3
 -50 -117 -50 -117 -58 -124.5 c 128,-1,4
 -66 -132 -66 -132 -76 -132 c 0,5,6
 -87 -132 -87 -132 -94.5 -124.5 c 128,-1,7
 -102 -117 -102 -117 -102 -106 c 0,8,9
 -102 -96 -102 -96 -94.5 -88 c 128,-1,10
 -87 -80 -87 -80 -76 -80 c 0,11,0
 -66 -80 -66 -80 -58 -88 c 128,-1,1
EndSplineSet
Substitution2: "<3,3> Small Caps in Latin lookup 11 subtable" dotbelowcomb.sc
EndChar

StartChar: uni0324
Encoding: 804 804 419
Width: 0
Flags: W
LayerCount: 2
Fore
SplineSet
-201 -87 m 128,-1,1
 -193 -95 -193 -95 -193 -105 c 0,2,3
 -193 -116 -193 -116 -201 -123.5 c 128,-1,4
 -209 -131 -209 -131 -219 -131 c 0,5,6
 -230 -131 -230 -131 -237.5 -123.5 c 128,-1,7
 -245 -116 -245 -116 -245 -105 c 0,8,9
 -245 -95 -245 -95 -237.5 -87 c 128,-1,10
 -230 -79 -230 -79 -219 -79 c 0,11,0
 -209 -79 -209 -79 -201 -87 c 128,-1,1
-51 -87 m 128,-1,13
 -43 -95 -43 -95 -43 -105 c 0,14,15
 -43 -116 -43 -116 -51 -123.5 c 128,-1,16
 -59 -131 -59 -131 -69 -131 c 0,17,18
 -80 -131 -80 -131 -87.5 -123.5 c 128,-1,19
 -95 -116 -95 -116 -95 -105 c 0,20,21
 -95 -95 -95 -95 -87.5 -87 c 128,-1,22
 -80 -79 -80 -79 -69 -79 c 0,23,12
 -59 -79 -59 -79 -51 -87 c 128,-1,13
EndSplineSet
Substitution2: "<3,3> Small Caps in Latin lookup 11 subtable" uni0324.sc
EndChar

StartChar: uni0326
Encoding: 806 806 420
Width: 0
Flags: W
LayerCount: 2
Fore
SplineSet
-91 -65 m 1,0,-1
 -70 -65 l 1,1,-1
 -113 -214 l 1,2,-1
 -131 -214 l 1,3,-1
 -91 -65 l 1,0,-1
EndSplineSet
EndChar

StartChar: uni0327
Encoding: 807 807 421
Width: 0
Flags: W
LayerCount: 2
Fore
SplineSet
-108 0 m 1,0,-1
 -124 -56 l 1,1,2
 -86 -57 -86 -57 -64.5 -78.5 c 128,-1,3
 -43 -100 -43 -100 -43 -130 c 0,4,5
 -43 -163 -43 -163 -66.5 -188 c 128,-1,6
 -90 -213 -90 -213 -132 -213 c 0,7,8
 -151 -213 -151 -213 -171.5 -207 c 128,-1,9
 -192 -201 -192 -201 -205 -191 c 1,10,-1
 -197 -171 l 1,11,12
 -185 -180 -185 -180 -166.5 -186 c 128,-1,13
 -148 -192 -148 -192 -132 -192 c 0,14,15
 -100 -192 -100 -192 -82 -173.5 c 128,-1,16
 -64 -155 -64 -155 -64 -130 c 0,17,18
 -64 -108 -64 -108 -80 -91.5 c 128,-1,19
 -96 -75 -96 -75 -122 -75 c 2,20,-1
 -151 -75 l 1,21,-1
 -128 5 l 1,22,-1
 -108 0 l 1,0,-1
EndSplineSet
Substitution2: "<3,3> Small Caps in Latin lookup 11 subtable" uni0327.sc
EndChar

StartChar: uni0328
Encoding: 808 808 422
Width: 0
Flags: W
LayerCount: 2
Fore
SplineSet
-32 0 m 1,0,1
 -97 -43 -97 -43 -125.5 -73.5 c 128,-1,2
 -154 -104 -154 -104 -154 -139 c 0,3,4
 -154 -166 -154 -166 -139.5 -179.5 c 128,-1,5
 -125 -193 -125 -193 -102 -193 c 0,6,7
 -72 -193 -72 -193 -43 -173 c 1,8,-1
 -33 -189 l 1,9,10
 -68 -213 -68 -213 -103 -213 c 0,11,12
 -136 -213 -136 -213 -155.5 -193 c 128,-1,13
 -175 -173 -175 -173 -175 -139 c 0,14,15
 -175 -96 -175 -96 -143.5 -62 c 128,-1,16
 -112 -28 -112 -28 -41 16 c 1,17,-1
 -32 0 l 1,0,1
EndSplineSet
EndChar

StartChar: uni032E
Encoding: 814 814 423
Width: 0
Flags: W
LayerCount: 2
Fore
SplineSet
-184 -110.5 m 128,-1,1
 -160 -135 -160 -135 -125 -135 c 256,2,3
 -90 -135 -90 -135 -66 -110.5 c 128,-1,4
 -42 -86 -42 -86 -40 -50 c 1,5,-1
 -20 -50 l 1,6,7
 -21 -95 -21 -95 -51.5 -125 c 128,-1,8
 -82 -155 -82 -155 -125 -155 c 256,9,10
 -168 -155 -168 -155 -198.5 -125 c 128,-1,11
 -229 -95 -229 -95 -230 -50 c 1,12,-1
 -210 -50 l 1,13,0
 -208 -86 -208 -86 -184 -110.5 c 128,-1,1
EndSplineSet
EndChar

StartChar: uni0331
Encoding: 817 817 424
Width: 0
Flags: W
LayerCount: 2
Fore
SplineSet
-287 -90 m 1,0,-1
 -30 -90 l 1,1,-1
 -30 -110 l 1,2,-1
 -287 -110 l 1,3,-1
 -287 -90 l 1,0,-1
EndSplineSet
EndChar

StartChar: uni0335
Encoding: 821 821 425
Width: 0
Flags: W
LayerCount: 2
Fore
SplineSet
-278 451 m 1,0,-1
 0 451 l 1,1,-1
 0 431 l 1,2,-1
 -278 431 l 1,3,-1
 -278 451 l 1,0,-1
EndSplineSet
EndChar

StartChar: uni0336
Encoding: 822 822 426
Width: 0
Flags: W
LayerCount: 2
Fore
SplineSet
-480 451 m 1,0,-1
 -124 451 l 1,1,-1
 -124 431 l 1,2,-1
 -480 431 l 1,3,-1
 -480 451 l 1,0,-1
EndSplineSet
EndChar

StartChar: uni0337
Encoding: 823 823 427
Width: 0
Flags: W
LayerCount: 2
Fore
SplineSet
-48 560 m 1,0,-1
 -202 80 l 1,1,-1
 -223 80 l 1,2,-1
 -69 560 l 1,3,-1
 -48 560 l 1,0,-1
EndSplineSet
EndChar

StartChar: uni0338
Encoding: 824 824 428
Width: 0
Flags: W
LayerCount: 2
Fore
SplineSet
-248 0 m 1,0,-1
 -11 742 l 1,1,-1
 10 742 l 1,2,-1
 -227 0 l 1,3,-1
 -248 0 l 1,0,-1
EndSplineSet
EndChar

StartChar: uni0394
Encoding: 916 916 429
Width: 686
Flags: W
LayerCount: 2
Fore
SplineSet
352 699 m 1,0,-1
 676 0 l 1,1,-1
 10 0 l 1,2,-1
 330 699 l 1,3,-1
 352 699 l 1,0,-1
43 20 m 1,4,-1
 644 20 l 1,5,-1
 341 676 l 1,6,-1
 43 20 l 1,4,-1
EndSplineSet
EndChar

StartChar: uni03A9
Encoding: 937 937 430
Width: 926
Flags: W
LayerCount: 2
Fore
SplineSet
708 102.5 m 128,-1,1
 752 155 752 155 777 220.5 c 128,-1,2
 802 286 802 286 802 353 c 0,3,4
 802 446 802 446 758 520.5 c 128,-1,5
 714 595 714 595 637 637 c 128,-1,6
 560 679 560 679 463 679 c 256,7,8
 366 679 366 679 289 637 c 128,-1,9
 212 595 212 595 168 520.5 c 128,-1,10
 124 446 124 446 124 353 c 0,11,12
 124 286 124 286 149 220 c 128,-1,13
 174 154 174 154 218 101.5 c 128,-1,14
 262 49 262 49 318 20 c 1,15,-1
 318 0 l 1,16,-1
 13 0 l 1,17,-1
 13 20 l 1,18,-1
 279 20 l 1,19,20
 201 72 201 72 152.5 164.5 c 128,-1,21
 104 257 104 257 104 353 c 0,22,23
 104 451 104 451 150.5 530 c 128,-1,24
 197 609 197 609 279 654 c 128,-1,25
 361 699 361 699 463 699 c 256,26,27
 565 699 565 699 647 654 c 128,-1,28
 729 609 729 609 775.5 530 c 128,-1,29
 822 451 822 451 822 353 c 0,30,31
 822 257 822 257 773.5 164.5 c 128,-1,32
 725 72 725 72 647 20 c 1,33,-1
 913 20 l 1,34,-1
 913 0 l 1,35,-1
 609 0 l 1,36,-1
 609 21 l 1,37,0
 664 50 664 50 708 102.5 c 128,-1,1
EndSplineSet
EndChar

StartChar: uni03BC
Encoding: 956 956 431
Width: 660
Flags: W
LayerCount: 2
Fore
SplineSet
550 517 m 1,0,-1
 550 0 l 1,1,-1
 530 0 l 1,2,-1
 530 151 l 1,3,4
 506 79 506 79 451 40 c 128,-1,5
 396 1 396 1 315 0 c 0,6,7
 250 0 250 0 204.5 26 c 128,-1,8
 159 52 159 52 136 100 c 1,9,-1
 136 -194 l 1,10,-1
 116 -194 l 1,11,-1
 116 179 l 2,12,13
 115 187 115 187 115 204 c 2,14,-1
 115 517 l 1,15,-1
 136 517 l 1,16,-1
 136 180 l 1,17,18
 143 104 143 104 189.5 62 c 128,-1,19
 236 20 236 20 315 20 c 0,20,21
 416 22 416 22 473 86.5 c 128,-1,22
 530 151 530 151 530 264 c 2,23,-1
 530 517 l 1,24,-1
 550 517 l 1,0,-1
EndSplineSet
EndChar

StartChar: pi
Encoding: 960 960 432
Width: 718
Flags: W
LayerCount: 2
Fore
SplineSet
711 497 m 1,0,-1
 529 497 l 1,1,-1
 529 0 l 1,2,-1
 509 0 l 1,3,-1
 509 497 l 1,4,-1
 267 497 l 1,5,-1
 209 0 l 1,6,-1
 189 0 l 1,7,-1
 247 497 l 1,8,-1
 162 497 l 2,9,10
 101 497 101 497 60.5 461.5 c 128,-1,11
 20 426 20 426 20 373 c 0,12,13
 20 325 20 325 53 280 c 1,14,-1
 37 269 l 1,15,16
 20 290 20 290 10 318 c 128,-1,17
 0 346 0 346 0 373 c 0,18,19
 0 412 0 412 21.5 445 c 128,-1,20
 43 478 43 478 80 497.5 c 128,-1,21
 117 517 117 517 162 517 c 2,22,-1
 712 517 l 1,23,-1
 711 497 l 1,0,-1
EndSplineSet
EndChar

StartChar: uni1E08
Encoding: 7688 7688 433
Width: 705
Flags: W
LayerCount: 2
Fore
SplineSet
513 881 m 1,0,-1
 384 776 l 1,1,-1
 358 781 l 1,2,-1
 494 891 l 1,3,-1
 513 881 l 1,0,-1
457.5 -78.5 m 128,-1,5
 479 -100 479 -100 479 -130 c 0,6,7
 479 -163 479 -163 455.5 -188 c 128,-1,8
 432 -213 432 -213 390 -213 c 0,9,10
 371 -213 371 -213 350.5 -207 c 128,-1,11
 330 -201 330 -201 317 -191 c 1,12,-1
 325 -171 l 1,13,14
 337 -180 337 -180 355.5 -186 c 128,-1,15
 374 -192 374 -192 390 -192 c 0,16,17
 423 -192 423 -192 440.5 -173.5 c 128,-1,18
 458 -155 458 -155 458 -130 c 0,19,20
 458 -108 458 -108 442 -91.5 c 128,-1,21
 426 -75 426 -75 400 -75 c 2,22,-1
 371 -75 l 1,23,-1
 392 -3 l 1,24,25
 299 1 299 1 220.5 50 c 128,-1,26
 142 99 142 99 96 178.5 c 128,-1,27
 50 258 50 258 50 350 c 0,28,29
 50 445 50 445 98.5 526.5 c 128,-1,30
 147 608 147 608 229.5 655.5 c 128,-1,31
 312 703 312 703 409 703 c 0,32,33
 477 703 477 703 538.5 679 c 128,-1,34
 600 655 600 655 649 612 c 1,35,-1
 636 599 l 1,36,37
 591 640 591 640 532.5 662 c 128,-1,38
 474 684 474 684 409 684 c 0,39,40
 317 684 317 684 239 639 c 128,-1,41
 161 594 161 594 115 517 c 128,-1,42
 69 440 69 440 69 350 c 256,43,44
 69 260 69 260 115 183 c 128,-1,45
 161 106 161 106 239 61 c 128,-1,46
 317 16 317 16 409 16 c 0,47,48
 473 16 473 16 531.5 38.5 c 128,-1,49
 590 61 590 61 636 102 c 1,50,-1
 650 89 l 1,51,52
 602 46 602 46 541 22 c 128,-1,53
 480 -2 480 -2 413 -3 c 1,54,-1
 398 -56 l 1,55,4
 436 -57 436 -57 457.5 -78.5 c 128,-1,5
EndSplineSet
EndChar

StartChar: uni1E09
Encoding: 7689 7689 434
Width: 557
Flags: W
LayerCount: 2
Fore
SplineSet
416 780 m 1,0,-1
 287 675 l 1,1,-1
 261 680 l 1,2,-1
 397 790 l 1,3,-1
 416 780 l 1,0,-1
407.5 21 m 128,-1,5
 359 0 359 0 303 0 c 2,6,-1
 299 0 l 1,7,-1
 299 0 l 1,8,-1
 283 -56 l 1,9,10
 321 -57 321 -57 342.5 -78.5 c 128,-1,11
 364 -100 364 -100 364 -130 c 0,12,13
 364 -163 364 -163 340.5 -188 c 128,-1,14
 317 -213 317 -213 275 -213 c 0,15,16
 256 -213 256 -213 235.5 -207 c 128,-1,17
 215 -201 215 -201 202 -191 c 1,18,-1
 210 -171 l 1,19,20
 222 -180 222 -180 240.5 -186 c 128,-1,21
 259 -192 259 -192 275 -192 c 0,22,23
 308 -192 308 -192 325.5 -173.5 c 128,-1,24
 343 -155 343 -155 343 -130 c 0,25,26
 343 -108 343 -108 327 -91.5 c 128,-1,27
 311 -75 311 -75 285 -75 c 2,28,-1
 256 -75 l 1,29,-1
 278 1 l 1,30,31
 213 7 213 7 161.5 41.5 c 128,-1,32
 110 76 110 76 81 132.5 c 128,-1,33
 52 189 52 189 52 259 c 0,34,35
 52 333 52 333 84.5 392 c 128,-1,36
 117 451 117 451 174.5 484 c 128,-1,37
 232 517 232 517 303 517 c 0,38,39
 354 517 354 517 399.5 499 c 128,-1,40
 445 481 445 481 479 448 c 1,41,-1
 466 434 l 1,42,43
 397 497 397 497 303 497 c 0,44,45
 237 497 237 497 184 466.5 c 128,-1,46
 131 436 131 436 101 382 c 128,-1,47
 71 328 71 328 71 259 c 256,48,49
 71 190 71 190 101 135.5 c 128,-1,50
 131 81 131 81 184 50.5 c 128,-1,51
 237 20 237 20 303 20 c 0,52,53
 356 20 356 20 400.5 39.5 c 128,-1,54
 445 59 445 59 477 95 c 1,55,-1
 490 81 l 1,56,4
 456 42 456 42 407.5 21 c 128,-1,5
EndSplineSet
Substitution2: "<3,3> Small Caps in Latin lookup 11 subtable" uni1E09.sc
EndChar

StartChar: uni1E1C
Encoding: 7708 7708 443
Width: 644
Flags: W
LayerCount: 2
Fore
SplineSet
269.5 806 m 128,-1,1
 239 836 239 836 238 881 c 1,2,-1
 258 881 l 1,3,4
 260 845 260 845 284 820.5 c 128,-1,5
 308 796 308 796 343 796 c 256,6,7
 378 796 378 796 402 820.5 c 128,-1,8
 426 845 426 845 428 881 c 1,9,-1
 448 881 l 1,10,11
 447 836 447 836 416.5 806 c 128,-1,12
 386 776 386 776 343 776 c 256,13,0
 300 776 300 776 269.5 806 c 128,-1,1
371 0 m 1,14,-1
 355 -56 l 1,15,16
 393 -57 393 -57 414.5 -78.5 c 128,-1,17
 436 -100 436 -100 436 -130 c 0,18,19
 436 -163 436 -163 412.5 -188 c 128,-1,20
 389 -213 389 -213 347 -213 c 0,21,22
 328 -213 328 -213 307.5 -207 c 128,-1,23
 287 -201 287 -201 274 -191 c 1,24,-1
 282 -171 l 1,25,26
 294 -180 294 -180 312.5 -186 c 128,-1,27
 331 -192 331 -192 347 -192 c 0,28,29
 380 -192 380 -192 397.5 -173.5 c 128,-1,30
 415 -155 415 -155 415 -130 c 0,31,32
 415 -108 415 -108 399 -91.5 c 128,-1,33
 383 -75 383 -75 357 -75 c 2,34,-1
 328 -75 l 1,35,-1
 350 0 l 1,36,-1
 128 0 l 1,37,-1
 128 699 l 1,38,-1
 565 699 l 1,39,-1
 565 679 l 1,40,-1
 148 679 l 1,41,-1
 148 370 l 1,42,-1
 519 370 l 1,43,-1
 519 350 l 1,44,-1
 148 350 l 1,45,-1
 148 20 l 1,46,-1
 579 20 l 1,47,-1
 579 0 l 1,48,-1
 371 0 l 1,14,-1
EndSplineSet
EndChar

StartChar: uni1E1D
Encoding: 7709 7709 444
Width: 589
Flags: W
LayerCount: 2
Fore
SplineSet
221.5 702 m 128,-1,1
 191 732 191 732 190 777 c 1,2,-1
 210 777 l 1,3,4
 212 741 212 741 236 716.5 c 128,-1,5
 260 692 260 692 295 692 c 256,6,7
 330 692 330 692 354 716.5 c 128,-1,8
 378 741 378 741 380 777 c 1,9,-1
 400 777 l 1,10,11
 399 732 399 732 368.5 702 c 128,-1,12
 338 672 338 672 295 672 c 256,13,0
 252 672 252 672 221.5 702 c 128,-1,1
404.5 39.5 m 128,-1,15
 452 59 452 59 484 95 c 1,16,-1
 498 81 l 1,17,18
 463 43 463 43 413 22 c 128,-1,19
 363 1 363 1 305 0 c 1,20,-1
 289 -56 l 1,21,22
 327 -57 327 -57 348.5 -78.5 c 128,-1,23
 370 -100 370 -100 370 -130 c 0,24,25
 370 -163 370 -163 346.5 -188 c 128,-1,26
 323 -213 323 -213 281 -213 c 0,27,28
 262 -213 262 -213 241.5 -207 c 128,-1,29
 221 -201 221 -201 208 -191 c 1,30,-1
 216 -171 l 1,31,32
 228 -180 228 -180 246.5 -186 c 128,-1,33
 265 -192 265 -192 281 -192 c 0,34,35
 314 -192 314 -192 331.5 -173.5 c 128,-1,36
 349 -155 349 -155 349 -130 c 0,37,38
 349 -108 349 -108 333 -91.5 c 128,-1,39
 317 -75 317 -75 291 -75 c 2,40,-1
 262 -75 l 1,41,-1
 284 1 l 1,42,43
 218 5 218 5 165 39 c 128,-1,44
 112 73 112 73 82 130.5 c 128,-1,45
 52 188 52 188 52 259 c 0,46,47
 52 333 52 333 84.5 392 c 128,-1,48
 117 451 117 451 173.5 484 c 128,-1,49
 230 517 230 517 301 517 c 256,50,51
 372 517 372 517 426.5 484 c 128,-1,52
 481 451 481 451 511 392 c 128,-1,53
 541 333 541 333 541 259 c 1,54,-1
 72 259 l 1,55,56
 72 190 72 190 101.5 135.5 c 128,-1,57
 131 81 131 81 183 50.5 c 128,-1,58
 235 20 235 20 301 20 c 0,59,14
 357 20 357 20 404.5 39.5 c 128,-1,15
187.5 469.5 m 128,-1,61
 137 442 137 442 107 392.5 c 128,-1,62
 77 343 77 343 73 279 c 1,63,-1
 521 279 l 1,64,65
 514 377 514 377 455 437 c 128,-1,66
 396 497 396 497 301 497 c 0,67,60
 238 497 238 497 187.5 469.5 c 128,-1,61
EndSplineSet
Substitution2: "<3,3> Small Caps in Latin lookup 11 subtable" uni1E1D.sc
EndChar

StartChar: uni1E9E
Encoding: 7838 7838 506
Width: 670
Flags: W
LayerCount: 2
Fore
SplineSet
549.5 328.5 m 128,-1,1
 608 276 608 276 608 197 c 0,2,3
 608 138 608 138 579 93 c 128,-1,4
 550 48 550 48 496 24 c 128,-1,5
 442 0 442 0 370 0 c 2,6,-1
 285 0 l 1,7,-1
 285 20 l 1,8,-1
 370 20 l 2,9,10
 469 20 469 20 528.5 68.5 c 128,-1,11
 588 117 588 117 588 197 c 0,12,13
 588 274 588 274 528 319.5 c 128,-1,14
 468 365 468 365 361 365 c 2,15,-1
 356 365 l 1,16,-1
 356 385 l 1,17,-1
 553 630 l 1,18,19
 471 679 471 679 361 679 c 0,20,21
 250 679 250 679 185 621 c 128,-1,22
 120 563 120 563 120 456 c 2,23,-1
 120 0 l 1,24,-1
 100 0 l 1,25,-1
 100 456 l 2,26,27
 100 572 100 572 170.5 635.5 c 128,-1,28
 241 699 241 699 361 699 c 0,29,30
 480 699 480 699 569 640 c 1,31,-1
 569 620 l 1,32,-1
 379 385 l 1,33,0
 491 381 491 381 549.5 328.5 c 128,-1,1
EndSplineSet
EndChar

StartChar: figuredash
Encoding: 8210 8210 603
Width: 617
Flags: W
LayerCount: 2
Fore
SplineSet
0 310 m 1,0,-1
 617 310 l 1,1,-1
 617 290 l 1,2,-1
 0 290 l 1,3,-1
 0 310 l 1,0,-1
EndSplineSet
EndChar

StartChar: endash
Encoding: 8211 8211 604
Width: 400
Flags: W
LayerCount: 2
Fore
SplineSet
0 310 m 1,0,-1
 400 310 l 1,1,-1
 400 290 l 1,2,-1
 0 290 l 1,3,-1
 0 310 l 1,0,-1
EndSplineSet
EndChar

StartChar: emdash
Encoding: 8212 8212 605
Width: 760
Flags: W
LayerCount: 2
Fore
SplineSet
0 310 m 1,0,-1
 760 310 l 1,1,-1
 760 290 l 1,2,-1
 0 290 l 1,3,-1
 0 310 l 1,0,-1
EndSplineSet
EndChar

StartChar: quoteleft
Encoding: 8216 8216 607
Width: 170
Flags: W
LayerCount: 2
Fore
SplineSet
89 629 m 128,-1,1
 95 622 95 622 95 613 c 0,2,3
 95 603 95 603 87.5 595 c 128,-1,4
 80 587 80 587 69 587 c 0,5,6
 59 587 59 587 51 595 c 128,-1,7
 43 603 43 603 43 613 c 0,8,9
 43 622 43 622 50 639 c 2,10,-1
 93 752 l 1,11,-1
 113 752 l 1,12,-1
 75 638 l 1,13,0
 83 636 83 636 89 629 c 128,-1,1
EndSplineSet
Substitution2: "<3,3> Small Caps in Latin lookup 11 subtable" quoteleft.sc
EndChar

StartChar: quoteright
Encoding: 8217 8217 608
Width: 170
Flags: W
LayerCount: 2
Fore
SplineSet
105.5 734.5 m 128,-1,1
 113 727 113 727 113 716 c 0,2,3
 113 708 113 708 106 690 c 2,4,-1
 63 577 l 1,5,-1
 43 577 l 1,6,-1
 81 691 l 1,7,8
 73 693 73 693 67 700 c 128,-1,9
 61 707 61 707 61 716 c 0,10,11
 61 727 61 727 69 734.5 c 128,-1,12
 77 742 77 742 87 742 c 0,13,0
 98 742 98 742 105.5 734.5 c 128,-1,1
EndSplineSet
Substitution2: "<3,3> Small Caps in Latin lookup 11 subtable" quoteright.sc
EndChar

StartChar: quotesinglbase
Encoding: 8218 8218 609
Width: 170
Flags: W
LayerCount: 2
Fore
SplineSet
105.5 37.5 m 128,-1,1
 113 30 113 30 113 19 c 0,2,3
 113 11 113 11 106 -7 c 2,4,-1
 63 -120 l 1,5,-1
 43 -120 l 1,6,-1
 81 -6 l 1,7,8
 73 -4 73 -4 67 3 c 128,-1,9
 61 10 61 10 61 19 c 0,10,11
 61 30 61 30 69 37.5 c 128,-1,12
 77 45 77 45 87 45 c 0,13,0
 98 45 98 45 105.5 37.5 c 128,-1,1
EndSplineSet
EndChar

StartChar: dagger
Encoding: 8224 8224 613
Width: 480
Flags: W
LayerCount: 2
Fore
SplineSet
230 699 m 1,0,-1
 250 699 l 1,1,-1
 250 461 l 1,2,-1
 470 461 l 1,3,-1
 470 441 l 1,4,-1
 250 441 l 1,5,-1
 250 -194 l 1,6,-1
 230 -194 l 1,7,-1
 230 441 l 1,8,-1
 10 441 l 1,9,-1
 10 461 l 1,10,-1
 230 461 l 1,11,-1
 230 699 l 1,0,-1
EndSplineSet
EndChar

StartChar: daggerdbl
Encoding: 8225 8225 614
Width: 480
Flags: W
LayerCount: 2
Fore
SplineSet
470 441 m 1,0,-1
 250 441 l 1,1,-1
 250 101 l 1,2,-1
 470 101 l 1,3,-1
 470 81 l 1,4,-1
 250 81 l 1,5,-1
 250 -194 l 1,6,-1
 230 -194 l 1,7,-1
 230 81 l 1,8,-1
 10 81 l 1,9,-1
 10 101 l 1,10,-1
 230 101 l 1,11,-1
 230 441 l 1,12,-1
 10 441 l 1,13,-1
 10 461 l 1,14,-1
 230 461 l 1,15,-1
 230 699 l 1,16,-1
 250 699 l 1,17,-1
 250 461 l 1,18,-1
 470 461 l 1,19,-1
 470 441 l 1,0,-1
EndSplineSet
EndChar

StartChar: bullet
Encoding: 8226 8226 615
Width: 196
Flags: W
LayerCount: 2
Fore
SplineSet
125.5 297.5 m 128,-1,1
 137 286 137 286 137 270 c 256,2,3
 137 254 137 254 125.5 242.5 c 128,-1,4
 114 231 114 231 98 231 c 256,5,6
 82 231 82 231 70.5 242.5 c 128,-1,7
 59 254 59 254 59 270 c 256,8,9
 59 286 59 286 70.5 297.5 c 128,-1,10
 82 309 82 309 98 309 c 256,11,0
 114 309 114 309 125.5 297.5 c 128,-1,1
EndSplineSet
EndChar

StartChar: minute
Encoding: 8242 8242 618
Width: 115
Flags: W
LayerCount: 2
Fore
SplineSet
49 699 m 1,0,-1
 69 699 l 1,1,-1
 48 459 l 1,2,-1
 32 459 l 1,3,-1
 49 699 l 1,0,-1
EndSplineSet
EndChar

StartChar: guilsinglleft
Encoding: 8249 8249 620
Width: 268
Flags: W
LayerCount: 2
Fore
SplineSet
167 403 m 1,0,-1
 191 403 l 1,1,-1
 83 247 l 1,2,-1
 191 94 l 1,3,-1
 167 94 l 1,4,-1
 58 247 l 1,5,-1
 167 403 l 1,0,-1
EndSplineSet
Substitution2: "<3,3> Small Caps in Latin lookup 11 subtable" guilsinglleft.sc
Substitution2: "'rtla' Right to Left Alternates in Latin lookup 0 subtable" guilsinglright
EndChar

StartChar: guilsinglright
Encoding: 8250 8250 621
Width: 268
Flags: W
LayerCount: 2
Fore
SplineSet
101 94 m 1,0,-1
 77 94 l 1,1,-1
 185 250 l 1,2,-1
 77 403 l 1,3,-1
 101 403 l 1,4,-1
 210 250 l 1,5,-1
 101 94 l 1,0,-1
EndSplineSet
Substitution2: "<3,3> Small Caps in Latin lookup 11 subtable" guilsinglright.sc
Substitution2: "'rtla' Right to Left Alternates in Latin lookup 0 subtable" guilsinglleft
EndChar

StartChar: fraction
Encoding: 8260 8260 622
Width: 20
Flags: W
LayerCount: 2
Fore
SplineSet
258 699 m 1,0,-1
 284 699 l 1,1,-1
 -254 0 l 1,2,-1
 -280 0 l 1,3,-1
 258 699 l 1,0,-1
EndSplineSet
EndChar

StartChar: colonmonetary
Encoding: 8353 8353 640
Width: 705
Flags: W
LayerCount: 2
Fore
SplineSet
476 3 m 1,1,-1
 457 -119 l 1,2,-1
 437 -119 l 1,3,-1
 455 0 l 1,4,5
 433 -3 433 -3 409 -3 c 0,6,7
 388 -3 388 -3 365 0 c 1,8,-1
 347 -119 l 1,9,-1
 327 -119 l 1,10,-1
 346 3 l 1,11,12
 263 17 263 17 195.5 67 c 128,-1,13
 128 117 128 117 89 191 c 128,-1,14
 50 265 50 265 50 350 c 256,15,16
 50 435 50 435 89.5 510 c 128,-1,17
 129 585 129 585 197 634.5 c 128,-1,18
 265 684 265 684 349 698 c 1,19,-1
 367 804 l 1,20,-1
 387 804 l 1,21,-1
 369 701 l 1,22,23
 395 703 395 703 409 703 c 0,24,25
 435 703 435 703 459 700 c 1,26,-1
 477 804 l 1,27,-1
 497 804 l 1,28,-1
 479 696 l 1,29,30
 575 678 575 678 649 612 c 1,31,-1
 636 599 l 1,32,33
 591 640 591 640 532.5 662 c 128,-1,34
 474 684 474 684 409 684 c 0,35,36
 317 684 317 684 239 639 c 128,-1,37
 161 594 161 594 115 517 c 128,-1,38
 69 440 69 440 69 350 c 256,39,40
 69 260 69 260 115 183 c 128,-1,41
 161 106 161 106 239 61 c 128,-1,42
 317 16 317 16 409 16 c 0,43,44
 473 16 473 16 531.5 38.5 c 128,-1,45
 590 61 590 61 636 102 c 1,46,-1
 650 89 l 1,47,0
 576 23 576 23 476 3 c 1,1,-1
EndSplineSet
EndChar

StartChar: franc
Encoding: 8355 8355 641
Width: 545
Flags: W
LayerCount: 2
Fore
SplineSet
535 679 m 1,0,-1
 148 679 l 1,1,-1
 148 343 l 1,2,-1
 489 343 l 1,3,-1
 489 323 l 1,4,-1
 148 323 l 1,5,-1
 148 176 l 1,6,-1
 380 176 l 1,7,-1
 380 156 l 1,8,-1
 148 156 l 1,9,-1
 148 0 l 1,10,-1
 128 0 l 1,11,-1
 128 156 l 1,12,-1
 38 156 l 1,13,-1
 38 176 l 1,14,-1
 128 176 l 1,15,-1
 128 699 l 1,16,-1
 535 699 l 1,17,-1
 535 679 l 1,0,-1
EndSplineSet
EndChar

StartChar: lira
Encoding: 8356 8356 642
Width: 532
Flags: W
LayerCount: 2
Fore
SplineSet
482 20 m 1,0,-1
 482 0 l 1,1,-1
 52 0 l 1,2,-1
 52 20 l 1,3,-1
 146 20 l 1,4,-1
 146 278 l 1,5,-1
 52 278 l 1,6,-1
 52 298 l 1,7,-1
 146 298 l 1,8,-1
 146 388 l 1,9,-1
 52 388 l 1,10,-1
 52 408 l 1,11,-1
 146 408 l 1,12,-1
 146 502 l 2,13,14
 146 597 146 597 190.5 648 c 128,-1,15
 235 699 235 699 318 699 c 0,16,17
 369 699 369 699 414 673.5 c 128,-1,18
 459 648 459 648 492 601 c 1,19,-1
 478 587 l 1,20,21
 447 632 447 632 406 655.5 c 128,-1,22
 365 679 365 679 318 679 c 0,23,24
 244 679 244 679 205 633.5 c 128,-1,25
 166 588 166 588 166 502 c 2,26,-1
 166 408 l 1,27,-1
 357 408 l 1,28,-1
 357 388 l 1,29,-1
 166 388 l 1,30,-1
 166 298 l 1,31,-1
 357 298 l 1,32,-1
 357 278 l 1,33,-1
 166 278 l 1,34,-1
 166 20 l 1,35,-1
 482 20 l 1,0,-1
EndSplineSet
EndChar

StartChar: uni20A6
Encoding: 8358 8358 643
Width: 782
Flags: W
LayerCount: 2
Fore
SplineSet
747 388 m 1,0,-1
 657 388 l 1,1,-1
 657 298 l 1,2,-1
 747 298 l 1,3,-1
 747 278 l 1,4,-1
 657 278 l 1,5,-1
 657 0 l 1,6,-1
 627 0 l 1,7,-1
 429 278 l 1,8,-1
 144 278 l 1,9,-1
 144 0 l 1,10,-1
 124 0 l 1,11,-1
 124 278 l 1,12,-1
 23 278 l 1,13,-1
 23 298 l 1,14,-1
 124 298 l 1,15,-1
 124 388 l 1,16,-1
 23 388 l 1,17,-1
 23 408 l 1,18,-1
 124 408 l 1,19,-1
 124 699 l 1,20,-1
 154 699 l 1,21,-1
 361 408 l 1,22,-1
 637 408 l 1,23,-1
 637 699 l 1,24,-1
 657 699 l 1,25,-1
 657 408 l 1,26,-1
 747 408 l 1,27,-1
 747 388 l 1,0,-1
337 408 m 1,28,-1
 144 679 l 1,29,-1
 144 408 l 1,30,-1
 337 408 l 1,28,-1
144 298 m 1,31,-1
 415 298 l 1,32,-1
 351 388 l 1,33,-1
 144 388 l 1,34,-1
 144 298 l 1,31,-1
637 388 m 1,35,-1
 375 388 l 1,36,-1
 439 298 l 1,37,-1
 637 298 l 1,38,-1
 637 388 l 1,35,-1
453 278 m 1,39,-1
 637 20 l 1,40,-1
 637 278 l 1,41,-1
 453 278 l 1,39,-1
EndSplineSet
EndChar

StartChar: peseta
Encoding: 8359 8359 644
Width: 1341
Flags: W
LayerCount: 2
Fore
SplineSet
522 639.5 m 128,-1,1
 592 580 592 580 592 472 c 0,2,3
 592 362 592 362 522 301 c 128,-1,4
 452 240 452 240 325 240 c 2,5,-1
 148 240 l 1,6,-1
 148 0 l 1,7,-1
 128 0 l 1,8,-1
 128 699 l 1,9,-1
 325 699 l 2,10,0
 452 699 452 699 522 639.5 c 128,-1,1
507.5 315.5 m 128,-1,12
 572 371 572 371 572 472 c 0,13,14
 572 571 572 571 507.5 625 c 128,-1,15
 443 679 443 679 325 679 c 2,16,-1
 148 679 l 1,17,-1
 148 260 l 1,18,-1
 325 260 l 2,19,11
 443 260 443 260 507.5 315.5 c 128,-1,12
909 53 m 1,21,-1
 921 37 l 1,22,23
 871 0 871 0 817 0 c 0,24,25
 764 0 764 0 736.5 36 c 128,-1,26
 709 72 709 72 709 142 c 2,27,-1
 709 487 l 1,28,-1
 633 487 l 1,29,-1
 633 507 l 1,30,-1
 709 507 l 1,31,-1
 709 630 l 1,32,-1
 729 630 l 1,33,-1
 729 507 l 1,34,-1
 911 507 l 1,35,-1
 911 487 l 1,36,-1
 729 487 l 1,37,-1
 729 142 l 2,38,39
 729 82 729 82 751.5 51 c 128,-1,40
 774 20 774 20 817 20 c 0,41,20
 867 20 867 20 909 53 c 1,21,-1
1011.5 338 m 128,-1,43
 1031 316 1031 316 1059.5 304 c 128,-1,44
 1088 292 1088 292 1139 276 c 0,45,46
 1193 260 1193 260 1225.5 245.5 c 128,-1,47
 1258 231 1258 231 1280.5 204 c 128,-1,48
 1303 177 1303 177 1303 134 c 0,49,50
 1303 68 1303 68 1252.5 34 c 128,-1,51
 1202 0 1202 0 1129 0 c 0,52,53
 1075 0 1075 0 1026.5 19 c 128,-1,54
 978 38 978 38 944 72 c 1,55,-1
 957 87 l 1,56,57
 990 55 990 55 1034 37.5 c 128,-1,58
 1078 20 1078 20 1129 20 c 0,59,60
 1195 20 1195 20 1239 49 c 128,-1,61
 1283 78 1283 78 1283 133 c 0,62,63
 1283 168 1283 168 1263 190.5 c 128,-1,64
 1243 213 1243 213 1213.5 226 c 128,-1,65
 1184 239 1184 239 1134 254 c 0,66,67
 1081 271 1081 271 1048.5 285.5 c 128,-1,68
 1016 300 1016 300 994 326 c 128,-1,69
 972 352 972 352 972 393 c 0,70,71
 972 454 972 454 1018.5 485.5 c 128,-1,72
 1065 517 1065 517 1136 517 c 0,73,74
 1210 517 1210 517 1274 480 c 1,75,-1
 1264 463 l 1,76,77
 1211 497 1211 497 1137 497 c 0,78,79
 1073 497 1073 497 1032.5 471 c 128,-1,80
 992 445 992 445 992 395 c 0,81,42
 992 360 992 360 1011.5 338 c 128,-1,43
EndSplineSet
EndChar

StartChar: uni20A9
Encoding: 8361 8361 645
Width: 867
Flags: W
LayerCount: 2
Fore
SplineSet
857 699 m 1,0,-1
 771 408 l 1,1,-1
 847 408 l 1,2,-1
 847 388 l 1,3,-1
 765 388 l 1,4,-1
 738 298 l 1,5,-1
 837 298 l 1,6,-1
 837 278 l 1,7,-1
 732 278 l 1,8,-1
 650 0 l 1,9,-1
 629 0 l 1,10,-1
 548 278 l 1,11,-1
 319 278 l 1,12,-1
 238 0 l 1,13,-1
 217 0 l 1,14,-1
 135 278 l 1,15,-1
 30 278 l 1,16,-1
 30 298 l 1,17,-1
 129 298 l 1,18,-1
 102 388 l 1,19,-1
 20 388 l 1,20,-1
 20 408 l 1,21,-1
 96 408 l 1,22,-1
 10 699 l 1,23,-1
 33 699 l 1,24,-1
 117 408 l 1,25,-1
 339 408 l 1,26,-1
 422 699 l 1,27,-1
 445 699 l 1,28,-1
 529 408 l 1,29,-1
 751 408 l 1,30,-1
 834 699 l 1,31,-1
 857 699 l 1,0,-1
434 670 m 1,32,-1
 357 408 l 1,33,-1
 510 408 l 1,34,-1
 434 670 l 1,32,-1
122 388 m 1,35,-1
 148 298 l 1,36,-1
 307 298 l 1,37,-1
 333 388 l 1,38,-1
 122 388 l 1,35,-1
325 298 m 1,39,-1
 542 298 l 1,40,-1
 516 388 l 1,41,-1
 352 388 l 1,42,-1
 325 298 l 1,39,-1
719 298 m 1,43,-1
 745 388 l 1,44,-1
 534 388 l 1,45,-1
 560 298 l 1,46,-1
 719 298 l 1,43,-1
228 21 m 1,47,-1
 302 278 l 1,48,-1
 154 278 l 1,49,-1
 228 21 l 1,47,-1
640 21 m 1,50,-1
 714 278 l 1,51,-1
 566 278 l 1,52,-1
 640 21 l 1,50,-1
EndSplineSet
EndChar

StartChar: dong
Encoding: 8363 8363 646
Width: 669
Flags: W
LayerCount: 2
Fore
SplineSet
634 599 m 1,0,-1
 558 599 l 1,1,-1
 558 0 l 1,2,-1
 538 0 l 1,3,-1
 538 152 l 1,4,5
 509 81 509 81 447.5 39.5 c 128,-1,6
 386 -2 386 -2 305 -2 c 0,7,8
 233 -2 233 -2 175 31.5 c 128,-1,9
 117 65 117 65 84.5 124.5 c 128,-1,10
 52 184 52 184 52 258 c 256,11,12
 52 332 52 332 84.5 392 c 128,-1,13
 117 452 117 452 175 485.5 c 128,-1,14
 233 519 233 519 305 519 c 0,15,16
 386 519 386 519 447.5 477.5 c 128,-1,17
 509 436 509 436 538 365 c 1,18,-1
 538 599 l 1,19,-1
 358 599 l 1,20,-1
 358 619 l 1,21,-1
 538 619 l 1,22,-1
 538 742 l 1,23,-1
 558 742 l 1,24,-1
 558 619 l 1,25,-1
 634 619 l 1,26,-1
 634 599 l 1,0,-1
425 49 m 128,-1,28
 478 80 478 80 508 134.5 c 128,-1,29
 538 189 538 189 538 258 c 256,30,31
 538 327 538 327 508 382 c 128,-1,32
 478 437 478 437 425 468 c 128,-1,33
 372 499 372 499 305 499 c 256,34,35
 238 499 238 499 185 468 c 128,-1,36
 132 437 132 437 102 382 c 128,-1,37
 72 327 72 327 72 258 c 256,38,39
 72 189 72 189 102 134.5 c 128,-1,40
 132 80 132 80 185 49 c 128,-1,41
 238 18 238 18 305 18 c 256,42,27
 372 18 372 18 425 49 c 128,-1,28
132 -89 m 1,43,-1
 132 -69 l 1,44,-1
 532 -69 l 1,45,-1
 532 -89 l 1,46,-1
 132 -89 l 1,43,-1
EndSplineSet
EndChar

StartChar: Euro
Encoding: 8364 8364 647
Width: 797
Flags: W
LayerCount: 2
Fore
SplineSet
742 91 m 1,0,1
 693 48 693 48 631 24 c 128,-1,2
 569 0 569 0 501 0 c 0,3,4
 417 0 417 0 342.5 36.5 c 128,-1,5
 268 73 268 73 217.5 136.5 c 128,-1,6
 167 200 167 200 150 278 c 1,7,-1
 52 278 l 1,8,-1
 52 298 l 1,9,-1
 146 298 l 1,10,11
 142 321 142 321 142 350 c 0,12,13
 142 364 142 364 144 388 c 1,14,-1
 52 388 l 1,15,-1
 52 408 l 1,16,-1
 147 408 l 1,17,18
 161 490 161 490 211.5 556.5 c 128,-1,19
 262 623 262 623 338 661 c 128,-1,20
 414 699 414 699 501 699 c 0,21,22
 569 699 569 699 630.5 675.5 c 128,-1,23
 692 652 692 652 741 609 c 1,24,-1
 728 596 l 1,25,26
 682 636 682 636 624 658 c 128,-1,27
 566 680 566 680 501 680 c 0,28,29
 419 680 419 680 347.5 644.5 c 128,-1,30
 276 609 276 609 228 546.5 c 128,-1,31
 180 484 180 484 166 408 c 1,32,-1
 484 408 l 1,33,-1
 484 388 l 1,34,-1
 163 388 l 1,35,36
 161 364 161 364 161 350 c 0,37,38
 161 321 161 321 165 298 c 1,39,-1
 484 298 l 1,40,-1
 484 278 l 1,41,-1
 169 278 l 1,42,43
 186 205 186 205 234 145.5 c 128,-1,44
 282 86 282 86 351.5 52.5 c 128,-1,45
 421 19 421 19 501 19 c 0,46,47
 565 19 565 19 623.5 41.5 c 128,-1,48
 682 64 682 64 728 104 c 1,49,-1
 742 91 l 1,0,1
EndSplineSet
EndChar

StartChar: uni20AD
Encoding: 8365 8365 648
Width: 627
Flags: W
LayerCount: 2
Fore
SplineSet
597 0 m 1,0,-1
 564 0 l 1,1,-1
 105 340 l 1,2,-1
 105 0 l 1,3,-1
 85 0 l 1,4,-1
 85 340 l 1,5,-1
 -5 340 l 1,6,-1
 -5 360 l 1,7,-1
 85 360 l 1,8,-1
 85 699 l 1,9,-1
 105 699 l 1,10,-1
 105 360 l 1,11,-1
 543 699 l 1,12,-1
 575 699 l 1,13,-1
 133 360 l 1,14,-1
 466 360 l 1,15,-1
 466 340 l 1,16,-1
 134 340 l 1,17,-1
 597 0 l 1,0,-1
EndSplineSet
EndChar

StartChar: uni20B1
Encoding: 8369 8369 649
Width: 734
Flags: W
LayerCount: 2
Fore
SplineSet
708 517 m 1,0,-1
 625 517 l 1,1,2
 628 496 628 496 628 472 c 256,3,4
 628 448 628 448 625 427 c 1,5,-1
 708 427 l 1,6,-1
 708 407 l 1,7,-1
 621 407 l 1,8,9
 601 326 601 326 534.5 283 c 128,-1,10
 468 240 468 240 361 240 c 2,11,-1
 144 240 l 1,12,-1
 144 0 l 1,13,-1
 124 0 l 1,14,-1
 124 407 l 1,15,-1
 34 407 l 1,16,-1
 34 427 l 1,17,-1
 124 427 l 1,18,-1
 124 517 l 1,19,-1
 34 517 l 1,20,-1
 34 537 l 1,21,-1
 124 537 l 1,22,-1
 124 699 l 1,23,-1
 361 699 l 2,24,25
 468 699 468 699 534.5 657 c 128,-1,26
 601 615 601 615 620 537 c 1,27,-1
 708 537 l 1,28,-1
 708 517 l 1,0,-1
144 537 m 1,29,-1
 600 537 l 1,30,31
 580 605 580 605 518.5 642 c 128,-1,32
 457 679 457 679 361 679 c 2,33,-1
 144 679 l 1,34,-1
 144 537 l 1,29,-1
604 517 m 1,36,-1
 144 517 l 1,37,-1
 144 427 l 1,38,-1
 604 427 l 1,39,40
 608 446 608 446 608 472 c 256,41,35
 608 498 608 498 604 517 c 1,36,-1
519.5 298 m 128,-1,43
 581 336 581 336 600 407 c 1,44,-1
 144 407 l 1,45,-1
 144 260 l 1,46,-1
 361 260 l 2,47,42
 458 260 458 260 519.5 298 c 128,-1,43
EndSplineSet
EndChar

StartChar: uni20B2
Encoding: 8370 8370 650
Width: 730
Flags: W
LayerCount: 2
Fore
SplineSet
650 89 m 1,0,1
 601 46 601 46 539.5 22 c 128,-1,2
 478 -2 478 -2 411 -3 c 1,3,-1
 411 -119 l 1,4,-1
 391 -119 l 1,5,-1
 391 -3 l 1,6,7
 298 2 298 2 219.5 51 c 128,-1,8
 141 100 141 100 95.5 179.5 c 128,-1,9
 50 259 50 259 50 351 c 256,10,11
 50 443 50 443 95.5 522 c 128,-1,12
 141 601 141 601 219.5 649.5 c 128,-1,13
 298 698 298 698 391 703 c 1,14,-1
 391 804 l 1,15,-1
 411 804 l 1,16,-1
 411 703 l 1,17,18
 478 703 478 703 539 679 c 128,-1,19
 600 655 600 655 649 612 c 1,20,-1
 636 599 l 1,21,22
 591 640 591 640 532.5 662 c 128,-1,23
 474 684 474 684 409 684 c 0,24,25
 317 684 317 684 239 639 c 128,-1,26
 161 594 161 594 115 517.5 c 128,-1,27
 69 441 69 441 69 351 c 256,28,29
 69 261 69 261 115 184 c 128,-1,30
 161 107 161 107 239 61.5 c 128,-1,31
 317 16 317 16 409 16 c 0,32,33
 471 16 471 16 528 37 c 128,-1,34
 585 58 585 58 630 97 c 1,35,-1
 630 343 l 1,36,-1
 650 343 l 1,37,-1
 650 89 l 1,0,1
EndSplineSet
EndChar

StartChar: uni20B5
Encoding: 8373 8373 651
Width: 705
Flags: W
LayerCount: 2
Fore
SplineSet
539.5 22 m 128,-1,1
 478 -2 478 -2 411 -3 c 1,2,-1
 411 -119 l 1,3,-1
 391 -119 l 1,4,-1
 391 -3 l 1,5,6
 298 2 298 2 219.5 51 c 128,-1,7
 141 100 141 100 95.5 179 c 128,-1,8
 50 258 50 258 50 350 c 256,9,10
 50 442 50 442 95.5 521.5 c 128,-1,11
 141 601 141 601 219.5 649.5 c 128,-1,12
 298 698 298 698 391 703 c 1,13,-1
 391 804 l 1,14,-1
 411 804 l 1,15,-1
 411 703 l 1,16,17
 478 703 478 703 539 679 c 128,-1,18
 600 655 600 655 649 612 c 1,19,-1
 636 599 l 1,20,21
 591 640 591 640 532.5 662 c 128,-1,22
 474 684 474 684 409 684 c 0,23,24
 317 684 317 684 239 639 c 128,-1,25
 161 594 161 594 115 517 c 128,-1,26
 69 440 69 440 69 350 c 256,27,28
 69 260 69 260 115 183 c 128,-1,29
 161 106 161 106 239 61 c 128,-1,30
 317 16 317 16 409 16 c 0,31,32
 473 16 473 16 531.5 38.5 c 128,-1,33
 590 61 590 61 636 102 c 1,34,-1
 650 89 l 1,35,0
 601 46 601 46 539.5 22 c 128,-1,1
EndSplineSet
EndChar

StartChar: uni20B9
Encoding: 8377 8377 652
Width: 634
Flags: W
LayerCount: 2
Fore
SplineSet
620 679 m 1,0,-1
 404 679 l 1,1,2
 470 656 470 656 506 605 c 128,-1,3
 542 554 542 554 544 480 c 1,4,-1
 620 480 l 1,5,-1
 620 460 l 1,6,-1
 544 460 l 1,7,8
 541 389 541 389 507.5 339 c 128,-1,9
 474 289 474 289 413 264 c 1,10,-1
 620 0 l 1,11,-1
 595 0 l 1,12,-1
 394 257 l 1,13,14
 341 240 341 240 277 240 c 2,15,-1
 40 240 l 1,16,-1
 40 260 l 1,17,-1
 277 260 l 2,18,19
 391 260 391 260 455.5 312 c 128,-1,20
 520 364 520 364 524 460 c 1,21,-1
 40 460 l 1,22,-1
 40 480 l 1,23,-1
 524 480 l 1,24,25
 521 575 521 575 456.5 627 c 128,-1,26
 392 679 392 679 277 679 c 2,27,-1
 40 679 l 1,28,-1
 40 699 l 1,29,-1
 620 699 l 1,30,-1
 620 679 l 1,0,-1
EndSplineSet
EndChar

StartChar: uni20BA
Encoding: 8378 8378 653
Width: 636
Flags: W
LayerCount: 2
Fore
SplineSet
612 349 m 1,0,1
 612 181 612 181 519 90.5 c 128,-1,2
 426 0 426 0 254 0 c 2,3,-1
 149 0 l 1,4,-1
 149 383 l 1,5,-1
 45 355 l 1,6,-1
 45 376 l 1,7,-1
 149 404 l 1,8,-1
 149 494 l 1,9,-1
 45 466 l 1,10,-1
 45 487 l 1,11,-1
 149 515 l 1,12,-1
 149 699 l 1,13,-1
 169 699 l 1,14,-1
 169 521 l 1,15,-1
 568 630 l 1,16,-1
 568 609 l 1,17,-1
 169 500 l 1,18,-1
 169 410 l 1,19,-1
 568 519 l 1,20,-1
 568 498 l 1,21,-1
 169 389 l 1,22,-1
 169 20 l 1,23,-1
 254 20 l 2,24,25
 417 20 417 20 504.5 105.5 c 128,-1,26
 592 191 592 191 592 349 c 1,27,-1
 612 349 l 1,0,1
EndSplineSet
EndChar

StartChar: uni20BC
Encoding: 8380 8380 654
Width: 718
Flags: W
LayerCount: 2
Fore
SplineSet
530.5 561 m 128,-1,1
 601 515 601 515 639.5 436 c 128,-1,2
 678 357 678 357 678 260 c 2,3,-1
 678 0 l 1,4,-1
 658 0 l 1,5,-1
 658 260 l 2,6,7
 658 352 658 352 622 426 c 128,-1,8
 586 500 586 500 520 543.5 c 128,-1,9
 454 587 454 587 369 589 c 1,10,-1
 369 0 l 1,11,-1
 349 0 l 1,12,-1
 349 589 l 1,13,14
 264 587 264 587 198 543.5 c 128,-1,15
 132 500 132 500 96 426 c 128,-1,16
 60 352 60 352 60 260 c 2,17,-1
 60 0 l 1,18,-1
 40 0 l 1,19,-1
 40 260 l 2,20,21
 40 357 40 357 78.5 436 c 128,-1,22
 117 515 117 515 187.5 561 c 128,-1,23
 258 607 258 607 349 609 c 1,24,-1
 349 699 l 1,25,-1
 369 699 l 1,26,-1
 369 609 l 1,27,0
 460 607 460 607 530.5 561 c 128,-1,1
EndSplineSet
EndChar

StartChar: uni20BD
Encoding: 8381 8381 655
Width: 662
Flags: W
LayerCount: 2
Fore
SplineSet
148 250 m 1,0,-1
 148 166 l 1,1,-1
 420 166 l 1,2,-1
 420 146 l 1,3,-1
 148 146 l 1,4,-1
 148 0 l 1,5,-1
 128 0 l 1,6,-1
 128 146 l 1,7,-1
 38 146 l 1,8,-1
 38 166 l 1,9,-1
 128 166 l 1,10,-1
 128 699 l 1,11,-1
 365 699 l 2,12,13
 492 699 492 699 562 641 c 128,-1,14
 632 583 632 583 632 477 c 0,15,16
 632 369 632 369 562 309.5 c 128,-1,17
 492 250 492 250 365 250 c 2,18,-1
 148 250 l 1,0,-1
547.5 626.5 m 128,-1,20
 483 679 483 679 365 679 c 2,21,-1
 148 679 l 1,22,-1
 148 270 l 1,23,-1
 365 270 l 2,24,25
 483 270 483 270 547.5 324 c 128,-1,26
 612 378 612 378 612 477 c 0,27,19
 612 574 612 574 547.5 626.5 c 128,-1,20
EndSplineSet
EndChar

StartChar: uni2113
Encoding: 8467 8467 656
Width: 462
Flags: W
LayerCount: 2
Fore
SplineSet
241 661 m 128,-1,1
 278 699 278 699 326 699 c 0,2,3
 364 699 364 699 390.5 673.5 c 128,-1,4
 417 648 417 648 417 598 c 0,5,6
 417 521 417 521 349.5 421 c 128,-1,7
 282 321 282 321 151 217 c 1,8,9
 141 159 141 159 141 126 c 0,10,11
 141 72 141 72 162.5 45 c 128,-1,12
 184 18 184 18 232 18 c 256,13,14
 280 18 280 18 322 43 c 128,-1,15
 364 68 364 68 407 118 c 1,16,-1
 421 107 l 1,17,18
 377 54 377 54 330.5 27 c 128,-1,19
 284 0 284 0 232 0 c 0,20,21
 174 0 174 0 148.5 33 c 128,-1,22
 123 66 123 66 123 129 c 0,23,24
 123 161 123 161 129 200 c 1,25,-1
 65 149 l 1,26,-1
 54 164 l 1,27,-1
 134 227 l 1,28,-1
 189 550 l 2,29,0
 204 623 204 623 241 661 c 128,-1,1
335.5 432 m 128,-1,31
 398 527 398 527 398 598 c 0,32,33
 398 640 398 640 377.5 660.5 c 128,-1,34
 357 681 357 681 326 681 c 0,35,36
 285 681 285 681 253 647 c 128,-1,37
 221 613 221 613 208 546 c 2,38,-1
 156 244 l 1,39,30
 273 337 273 337 335.5 432 c 128,-1,31
EndSplineSet
EndChar

StartChar: trademark
Encoding: 8482 8482 658
Width: 857
Flags: W
LayerCount: 2
Fore
SplineSet
0 699 m 1,0,-1
 302 699 l 1,1,-1
 302 679 l 1,2,-1
 161 679 l 1,3,-1
 161 280 l 1,4,-1
 141 280 l 1,5,-1
 141 679 l 1,6,-1
 0 679 l 1,7,-1
 0 699 l 1,0,-1
382 699 m 1,8,-1
 414 699 l 1,9,-1
 585 358 l 1,10,-1
 754 699 l 1,11,-1
 787 699 l 1,12,-1
 787 280 l 1,13,-1
 767 280 l 1,14,-1
 766 680 l 1,15,-1
 589 326 l 1,16,-1
 579 326 l 1,17,-1
 402 680 l 1,18,-1
 402 280 l 1,19,-1
 382 280 l 1,20,-1
 382 699 l 1,8,-1
EndSplineSet
EndChar

StartChar: estimated
Encoding: 8494 8494 660
Width: 809
Flags: W
LayerCount: 2
Fore
SplineSet
192 308 m 2,1,-1
 192 144 l 2,2,3
 192 135 192 135 200 125 c 0,4,5
 239 83 239 83 292.5 59.5 c 128,-1,6
 346 36 346 36 406 36 c 0,7,8
 469 36 469 36 525.5 62.5 c 128,-1,9
 582 89 582 89 621 135 c 1,10,-1
 670 135 l 1,11,12
 624 81 624 81 554 49.5 c 128,-1,13
 484 18 484 18 405 18 c 0,14,15
 314 18 314 18 237 58.5 c 128,-1,16
 160 99 160 99 115 168 c 128,-1,17
 70 237 70 237 70 319 c 256,18,19
 70 401 70 401 115 470.5 c 128,-1,20
 160 540 160 540 237 580.5 c 128,-1,21
 314 621 314 621 405 621 c 256,22,23
 496 621 496 621 573 580.5 c 128,-1,24
 650 540 650 540 695 470.5 c 128,-1,25
 740 401 740 401 740 319 c 2,26,-1
 740 312 l 1,27,-1
 197 312 l 2,28,0
 192 312 192 312 192 308 c 2,1,-1
609 518 m 0,30,31
 569 558 569 558 516.5 580.5 c 128,-1,32
 464 603 464 603 406 603 c 0,33,34
 347 603 347 603 294 579.5 c 128,-1,35
 241 556 241 556 201 515 c 0,36,37
 192 506 192 506 192 495 c 2,38,-1
 192 333 l 2,39,40
 192 328 192 328 197 328 c 2,41,-1
 613 328 l 2,42,43
 618 328 618 328 618 333 c 2,44,-1
 618 498 l 2,45,29
 618 509 618 509 609 518 c 0,30,31
EndSplineSet
EndChar

StartChar: arrowleft
Encoding: 8592 8592 667
Width: 600
Flags: W
LayerCount: 2
Fore
SplineSet
512 280 m 1,0,-1
 512 260 l 1,1,-1
 159 260 l 1,2,-1
 278 93 l 1,3,-1
 251 93 l 1,4,-1
 125 269 l 1,5,-1
 251 448 l 1,6,-1
 278 448 l 1,7,-1
 161 280 l 1,8,-1
 512 280 l 1,0,-1
EndSplineSet
EndChar

StartChar: arrowup
Encoding: 8593 8593 668
Width: 600
Flags: W
LayerCount: 2
Fore
SplineSet
478 341 m 1,0,-1
 478 314 l 1,1,-1
 310 431 l 1,2,-1
 310 79 l 1,3,-1
 288 79 l 1,4,-1
 288 432 l 1,5,-1
 122 314 l 1,6,-1
 122 341 l 1,7,-1
 298 467 l 1,8,-1
 478 341 l 1,0,-1
EndSplineSet
EndChar

StartChar: arrowright
Encoding: 8594 8594 669
Width: 600
Flags: W
LayerCount: 2
Fore
SplineSet
349 447 m 1,0,-1
 475 271 l 1,1,-1
 349 92 l 1,2,-1
 322 92 l 1,3,-1
 439 260 l 1,4,-1
 88 260 l 1,5,-1
 88 280 l 1,6,-1
 441 280 l 1,7,-1
 322 447 l 1,8,-1
 349 447 l 1,0,-1
EndSplineSet
EndChar

StartChar: arrowdown
Encoding: 8595 8595 670
Width: 600
Flags: W
LayerCount: 2
Fore
SplineSet
328 109 m 1,0,-1
 494 227 l 1,1,-1
 494 200 l 1,2,-1
 318 74 l 1,3,-1
 138 200 l 1,4,-1
 138 227 l 1,5,-1
 306 110 l 1,6,-1
 306 462 l 1,7,-1
 328 462 l 1,8,-1
 328 109 l 1,0,-1
EndSplineSet
EndChar

StartChar: arrowboth
Encoding: 8596 8596 671
Width: 600
Flags: W
LayerCount: 2
Fore
SplineSet
424 448 m 1,0,-1
 550 269 l 1,1,-1
 424 93 l 1,2,-1
 397 93 l 1,3,-1
 516 260 l 1,4,-1
 84 260 l 1,5,-1
 203 93 l 1,6,-1
 176 93 l 1,7,-1
 50 269 l 1,8,-1
 176 448 l 1,9,-1
 203 448 l 1,10,-1
 86 280 l 1,11,-1
 514 280 l 1,12,-1
 397 448 l 1,13,-1
 424 448 l 1,0,-1
EndSplineSet
EndChar

StartChar: arrowupdn
Encoding: 8597 8597 672
Width: 600
Flags: W
LayerCount: 2
Fore
SplineSet
478 447 m 1,0,-1
 310 564 l 1,1,-1
 310 109 l 1,2,-1
 476 227 l 1,3,-1
 476 200 l 1,4,-1
 300 74 l 1,5,-1
 120 200 l 1,6,-1
 120 227 l 1,7,-1
 288 110 l 1,8,-1
 288 565 l 1,9,-1
 122 447 l 1,10,-1
 122 474 l 1,11,-1
 298 600 l 1,12,-1
 478 474 l 1,13,-1
 478 447 l 1,0,-1
EndSplineSet
EndChar

StartChar: uni2196
Encoding: 8598 8598 673
Width: 600
Flags: W
LayerCount: 2
Fore
SplineSet
458 149 m 1,0,-1
 443 134 l 1,1,-1
 193 384 l 1,2,-1
 159 182 l 1,3,-1
 140 201 l 1,4,-1
 176 415 l 1,5,-1
 392 453 l 1,6,-1
 411 434 l 1,7,-1
 209 398 l 1,8,-1
 458 149 l 1,0,-1
EndSplineSet
EndChar

StartChar: uni2197
Encoding: 8599 8599 674
Width: 600
Flags: W
LayerCount: 2
Fore
SplineSet
474 195 m 1,0,-1
 455 176 l 1,1,-1
 419 378 l 1,2,-1
 170 129 l 1,3,-1
 155 144 l 1,4,-1
 405 394 l 1,5,-1
 203 428 l 1,6,-1
 222 447 l 1,7,-1
 436 411 l 1,8,-1
 474 195 l 1,0,-1
EndSplineSet
EndChar

StartChar: uni2198
Encoding: 8600 8600 675
Width: 600
Flags: W
LayerCount: 2
Fore
SplineSet
455 382 m 1,0,-1
 474 363 l 1,1,-1
 438 149 l 1,2,-1
 222 111 l 1,3,-1
 203 130 l 1,4,-1
 405 166 l 1,5,-1
 156 415 l 1,6,-1
 171 430 l 1,7,-1
 421 180 l 1,8,-1
 455 382 l 1,0,-1
EndSplineSet
EndChar

StartChar: uni2199
Encoding: 8601 8601 676
Width: 600
Flags: W
LayerCount: 2
Fore
SplineSet
459 420 m 1,0,-1
 209 170 l 1,1,-1
 411 136 l 1,2,-1
 392 117 l 1,3,-1
 178 153 l 1,4,-1
 140 369 l 1,5,-1
 159 388 l 1,6,-1
 195 186 l 1,7,-1
 444 435 l 1,8,-1
 459 420 l 1,0,-1
EndSplineSet
EndChar

StartChar: partialdiff
Encoding: 8706 8706 677
Width: 583
Flags: W
LayerCount: 2
Fore
SplineSet
171 684.5 m 128,-1,1
 219 699 219 699 261 699 c 0,2,3
 342 699 342 699 402.5 653.5 c 128,-1,4
 463 608 463 608 495 524.5 c 128,-1,5
 527 441 527 441 527 331 c 0,6,7
 527 171 527 171 459.5 85.5 c 128,-1,8
 392 0 392 0 271 0 c 0,9,10
 170 0 170 0 110 59.5 c 128,-1,11
 50 119 50 119 50 222 c 0,12,13
 50 323 50 323 108 380.5 c 128,-1,14
 166 438 166 438 267 438 c 0,15,16
 362 438 362 438 424 387.5 c 128,-1,17
 486 337 486 337 503 249 c 1,18,19
 506 290 506 290 506 326 c 0,20,21
 506 492 506 492 441 585.5 c 128,-1,22
 376 679 376 679 259 679 c 0,23,24
 218 679 218 679 173 665 c 128,-1,25
 128 651 128 651 90 627 c 1,26,-1
 80 645 l 1,27,0
 123 670 123 670 171 684.5 c 128,-1,1
123.5 365.5 m 128,-1,29
 70 313 70 313 70 224 c 0,30,31
 70 162 70 162 96 116 c 128,-1,32
 122 70 122 70 169 45 c 128,-1,33
 216 20 216 20 276 20 c 0,34,35
 345 20 345 20 392.5 51 c 128,-1,36
 440 82 440 82 463 127.5 c 128,-1,37
 486 173 486 173 486 216 c 0,38,39
 486 269 486 269 459.5 315.5 c 128,-1,40
 433 362 433 362 383 390 c 128,-1,41
 333 418 333 418 267 418 c 0,42,28
 177 418 177 418 123.5 365.5 c 128,-1,29
EndSplineSet
EndChar

StartChar: emptyset
Encoding: 8709 8709 678
Width: 517
Flags: W
LayerCount: 2
Fore
SplineSet
408 443 m 1,0,1
 452 389 452 389 452 320 c 0,2,3
 452 268 452 268 426 223.5 c 128,-1,4
 400 179 400 179 355.5 153 c 128,-1,5
 311 127 311 127 259 127 c 0,6,7
 220 127 220 127 186 141 c 128,-1,8
 152 155 152 155 125 181 c 1,9,-1
 42 103 l 1,10,-1
 28 117 l 1,11,-1
 112 195 l 1,12,13
 90 221 90 221 78 253 c 128,-1,14
 66 285 66 285 66 320 c 0,15,16
 66 373 66 373 92 417 c 128,-1,17
 118 461 118 461 162 487 c 128,-1,18
 206 513 206 513 259 513 c 0,19,20
 297 513 297 513 332 498.5 c 128,-1,21
 367 484 367 484 394 458 c 1,22,-1
 475 533 l 1,23,-1
 489 519 l 1,24,-1
 408 443 l 1,0,1
127 209 m 1,26,-1
 379 444 l 1,27,28
 355 467 355 467 324 480 c 128,-1,29
 293 493 293 493 259 493 c 0,30,31
 212 493 212 493 172 469.5 c 128,-1,32
 132 446 132 446 109 406.5 c 128,-1,33
 86 367 86 367 86 320 c 0,34,25
 86 256 86 256 127 209 c 1,26,-1
421.5 378.5 m 128,-1,36
 411 407 411 407 393 430 c 1,37,-1
 140 194 l 1,38,39
 164 172 164 172 194.5 159.5 c 128,-1,40
 225 147 225 147 259 147 c 0,41,42
 306 147 306 147 346 170.5 c 128,-1,43
 386 194 386 194 409 233.5 c 128,-1,44
 432 273 432 273 432 320 c 0,45,35
 432 350 432 350 421.5 378.5 c 128,-1,36
EndSplineSet
EndChar

StartChar: uni2206
Encoding: 8710 8710 679
Width: 657
Flags: W
LayerCount: 2
Fore
SplineSet
0 0 m 1,0,-1
 0 16 l 1,1,-1
 315 699 l 1,2,-1
 337 699 l 1,3,-1
 657 16 l 1,4,-1
 657 0 l 1,5,-1
 0 0 l 1,0,-1
24 20 m 1,6,-1
 633 20 l 1,7,-1
 326 676 l 1,8,-1
 24 20 l 1,6,-1
EndSplineSet
EndChar

StartChar: product
Encoding: 8719 8719 680
Width: 763
Flags: W
LayerCount: 2
Fore
SplineSet
128 742 m 1,0,-1
 635 742 l 1,1,-1
 635 -194 l 1,2,-1
 615 -194 l 1,3,-1
 615 722 l 1,4,-1
 148 722 l 1,5,-1
 148 -194 l 1,6,-1
 128 -194 l 1,7,-1
 128 742 l 1,0,-1
EndSplineSet
EndChar

StartChar: summation
Encoding: 8721 8721 681
Width: 603
Flags: W
LayerCount: 2
Fore
SplineSet
43 742 m 1,0,-1
 593 742 l 1,1,-1
 593 722 l 1,2,-1
 66 722 l 1,3,-1
 410 313 l 1,4,-1
 63 -118 l 1,5,-1
 603 -118 l 1,6,-1
 603 -138 l 1,7,-1
 40 -138 l 1,8,-1
 40 -114 l 1,9,-1
 384 313 l 1,10,-1
 43 718 l 1,11,-1
 43 742 l 1,0,-1
EndSplineSet
EndChar

StartChar: minus
Encoding: 8722 8722 682
Width: 480
Flags: W
LayerCount: 2
Fore
SplineSet
40 330 m 1,0,-1
 440 330 l 1,1,-1
 440 310 l 1,2,-1
 40 310 l 1,3,-1
 40 330 l 1,0,-1
EndSplineSet
EndChar

StartChar: uni2219
Encoding: 8729 8729 684
Width: 196
Flags: W
LayerCount: 2
Fore
SplineSet
125.5 297.5 m 128,-1,1
 137 286 137 286 137 270 c 256,2,3
 137 254 137 254 125.5 242.5 c 128,-1,4
 114 231 114 231 98 231 c 256,5,6
 82 231 82 231 70.5 242.5 c 128,-1,7
 59 254 59 254 59 270 c 256,8,9
 59 286 59 286 70.5 297.5 c 128,-1,10
 82 309 82 309 98 309 c 256,11,0
 114 309 114 309 125.5 297.5 c 128,-1,1
EndSplineSet
EndChar

StartChar: radical
Encoding: 8730 8730 685
Width: 658
Flags: W
LayerCount: 2
Fore
SplineSet
610 757 m 1,0,-1
 632 757 l 1,1,-1
 340 -146 l 1,2,-1
 318 -146 l 1,3,-1
 144 361 l 1,4,-1
 25 361 l 1,5,-1
 25 380 l 1,6,-1
 158 380 l 1,7,-1
 329 -120 l 1,8,-1
 610 757 l 1,0,-1
EndSplineSet
EndChar

StartChar: infinity
Encoding: 8734 8734 686
Width: 910
Flags: W
LayerCount: 2
Fore
SplineSet
771.5 460 m 128,-1,1
 812 437 812 437 835 396.5 c 128,-1,2
 858 356 858 356 858 307 c 256,3,4
 858 258 858 258 835 217.5 c 128,-1,5
 812 177 812 177 771.5 154 c 128,-1,6
 731 131 731 131 682 131 c 0,7,8
 623 131 623 131 581 152 c 128,-1,9
 539 173 539 173 512 204.5 c 128,-1,10
 485 236 485 236 455 286 c 1,11,12
 425 236 425 236 398 204 c 128,-1,13
 371 172 371 172 329.5 151 c 128,-1,14
 288 130 288 130 228 130 c 0,15,16
 179 130 179 130 138.5 153 c 128,-1,17
 98 176 98 176 75 216.5 c 128,-1,18
 52 257 52 257 52 306 c 256,19,20
 52 355 52 355 75 395.5 c 128,-1,21
 98 436 98 436 138.5 459 c 128,-1,22
 179 482 179 482 228 482 c 0,23,24
 287 482 287 482 329 461 c 128,-1,25
 371 440 371 440 398 408.5 c 128,-1,26
 425 377 425 377 455 327 c 1,27,28
 485 377 485 377 512 409 c 128,-1,29
 539 441 539 441 580.5 462 c 128,-1,30
 622 483 622 483 682 483 c 0,31,0
 731 483 731 483 771.5 460 c 128,-1,1
762 171 m 128,-1,33
 798 191 798 191 818 227 c 128,-1,34
 838 263 838 263 838 307 c 256,35,36
 838 351 838 351 818 387 c 128,-1,37
 798 423 798 423 762 443 c 128,-1,38
 726 463 726 463 682 463 c 0,39,40
 626 463 626 463 587.5 442 c 128,-1,41
 549 421 549 421 523.5 390 c 128,-1,42
 498 359 498 359 467 307 c 1,43,44
 498 255 498 255 523 224 c 128,-1,45
 548 193 548 193 587 172 c 128,-1,46
 626 151 626 151 682 151 c 0,47,32
 726 151 726 151 762 171 c 128,-1,33
322.5 171 m 128,-1,49
 361 192 361 192 386.5 223 c 128,-1,50
 412 254 412 254 443 306 c 1,51,52
 412 358 412 358 387 389 c 128,-1,53
 362 420 362 420 323 441 c 128,-1,54
 284 462 284 462 228 462 c 0,55,56
 184 462 184 462 148 442 c 128,-1,57
 112 422 112 422 92 386 c 128,-1,58
 72 350 72 350 72 306 c 256,59,60
 72 262 72 262 92 226 c 128,-1,61
 112 190 112 190 148 170 c 128,-1,62
 184 150 184 150 228 150 c 0,63,48
 284 150 284 150 322.5 171 c 128,-1,49
EndSplineSet
EndChar

StartChar: integral
Encoding: 8747 8747 687
Width: 265
Flags: W
LayerCount: 2
Fore
SplineSet
204 804 m 0,1,2
 167 804 167 804 151 771 c 128,-1,3
 135 738 135 738 135 659 c 0,4,5
 135 577 135 577 143 365 c 0,6,7
 151 147 151 147 151 56 c 0,8,9
 151 -33 151 -33 130.5 -71 c 128,-1,10
 110 -109 110 -109 62 -109 c 0,11,12
 39 -109 39 -109 10 -96 c 1,13,-1
 19 -78 l 1,14,15
 37 -89 37 -89 62 -89 c 0,16,17
 99 -89 99 -89 115 -56 c 128,-1,18
 131 -23 131 -23 131 56 c 0,19,20
 131 147 131 147 123 365 c 0,21,22
 115 577 115 577 115 659 c 0,23,24
 115 748 115 748 135.5 786 c 128,-1,25
 156 824 156 824 204 824 c 0,26,27
 226 824 226 824 255 811 c 1,28,-1
 246 793 l 1,29,0
 228 804 228 804 204 804 c 0,1,2
EndSplineSet
EndChar

StartChar: approxequal
Encoding: 8776 8776 688
Width: 480
Flags: W
LayerCount: 2
Fore
SplineSet
379.5 408 m 128,-1,1
 361 387 361 387 328 387 c 0,2,3
 304 387 304 387 282 397 c 128,-1,4
 260 407 260 407 231 425 c 0,5,6
 202 442 202 442 186 449.5 c 128,-1,7
 170 457 170 457 153 457 c 0,8,9
 129 457 129 457 116 441.5 c 128,-1,10
 103 426 103 426 103 397 c 1,11,-1
 83 397 l 1,12,13
 83 435 83 435 101.5 456 c 128,-1,14
 120 477 120 477 153 477 c 0,15,16
 173 477 173 477 194.5 467.5 c 128,-1,17
 216 458 216 458 245 441 c 0,18,19
 275 423 275 423 293 415 c 128,-1,20
 311 407 311 407 328 407 c 0,21,22
 352 407 352 407 365 422.5 c 128,-1,23
 378 438 378 438 378 467 c 1,24,-1
 398 467 l 1,25,0
 398 429 398 429 379.5 408 c 128,-1,1
379.5 207 m 128,-1,27
 361 186 361 186 328 186 c 0,28,29
 304 186 304 186 282 196 c 128,-1,30
 260 206 260 206 231 224 c 0,31,32
 202 241 202 241 186 248.5 c 128,-1,33
 170 256 170 256 153 256 c 0,34,35
 129 256 129 256 116 240.5 c 128,-1,36
 103 225 103 225 103 196 c 1,37,-1
 83 196 l 1,38,39
 83 234 83 234 101.5 255 c 128,-1,40
 120 276 120 276 153 276 c 0,41,42
 173 276 173 276 194.5 266.5 c 128,-1,43
 216 257 216 257 245 240 c 0,44,45
 275 222 275 222 293 214 c 128,-1,46
 311 206 311 206 328 206 c 0,47,48
 352 206 352 206 365 221.5 c 128,-1,49
 378 237 378 237 378 266 c 1,50,-1
 398 266 l 1,51,26
 398 228 398 228 379.5 207 c 128,-1,27
EndSplineSet
EndChar

StartChar: notequal
Encoding: 8800 8800 689
Width: 480
Flags: W
LayerCount: 2
Fore
SplineSet
440 410 m 1,0,-1
 272 410 l 1,1,-1
 214 230 l 1,2,-1
 440 230 l 1,3,-1
 440 210 l 1,4,-1
 208 210 l 1,5,-1
 156 49 l 1,6,-1
 137 49 l 1,7,-1
 189 210 l 1,8,-1
 40 210 l 1,9,-1
 40 230 l 1,10,-1
 195 230 l 1,11,-1
 253 410 l 1,12,-1
 40 410 l 1,13,-1
 40 430 l 1,14,-1
 259 430 l 1,15,-1
 309 586 l 1,16,-1
 328 586 l 1,17,-1
 278 430 l 1,18,-1
 440 430 l 1,19,-1
 440 410 l 1,0,-1
EndSplineSet
EndChar

StartChar: filledbox
Encoding: 9632 9632 692
Width: 600
Flags: W
LayerCount: 2
Fore
SplineSet
106 459 m 1,0,-1
 494 459 l 1,1,-1
 494 71 l 1,2,-1
 106 71 l 1,3,-1
 106 459 l 1,0,-1
EndSplineSet
EndChar

StartChar: uni25A1
Encoding: 9633 9633 693
Width: 600
Flags: W
LayerCount: 2
Fore
SplineSet
106 459 m 1,0,-1
 494 459 l 1,1,-1
 494 71 l 1,2,-1
 106 71 l 1,3,-1
 106 459 l 1,0,-1
126 439 m 1,4,-1
 126 91 l 1,5,-1
 474 91 l 1,6,-1
 474 439 l 1,7,-1
 126 439 l 1,4,-1
EndSplineSet
EndChar

StartChar: triagup
Encoding: 9650 9650 694
Width: 600
Flags: W
LayerCount: 2
Fore
SplineSet
300 478 m 1,0,-1
 513 52 l 1,1,-1
 87 52 l 1,2,-1
 300 478 l 1,0,-1
EndSplineSet
EndChar

StartChar: uni25B3
Encoding: 9651 9651 695
Width: 600
Flags: W
LayerCount: 2
Fore
SplineSet
300 478 m 1,0,-1
 513 52 l 1,1,-1
 87 52 l 1,2,-1
 300 478 l 1,0,-1
300 433 m 1,3,-1
 119 72 l 1,4,-1
 481 72 l 1,5,-1
 300 433 l 1,3,-1
EndSplineSet
EndChar

StartChar: uni25B6
Encoding: 9654 9654 696
Width: 600
Flags: W
LayerCount: 2
Fore
SplineSet
541 266 m 1,0,-1
 115 53 l 1,1,-1
 115 479 l 1,2,-1
 541 266 l 1,0,-1
EndSplineSet
EndChar

StartChar: uni25B7
Encoding: 9655 9655 697
Width: 600
Flags: W
LayerCount: 2
Fore
SplineSet
541 266 m 1,0,-1
 115 53 l 1,1,-1
 115 479 l 1,2,-1
 541 266 l 1,0,-1
496 266 m 1,3,-1
 135 447 l 1,4,-1
 135 85 l 1,5,-1
 496 266 l 1,3,-1
EndSplineSet
EndChar

StartChar: triagdn
Encoding: 9660 9660 698
Width: 600
Flags: W
LayerCount: 2
Fore
SplineSet
300 52 m 1,0,-1
 87 478 l 1,1,-1
 513 478 l 1,2,-1
 300 52 l 1,0,-1
EndSplineSet
EndChar

StartChar: uni25BD
Encoding: 9661 9661 699
Width: 600
Flags: W
LayerCount: 2
Fore
SplineSet
300 52 m 1,0,-1
 87 478 l 1,1,-1
 513 478 l 1,2,-1
 300 52 l 1,0,-1
300 97 m 1,3,-1
 481 458 l 1,4,-1
 119 458 l 1,5,-1
 300 97 l 1,3,-1
EndSplineSet
EndChar

StartChar: uni25C0
Encoding: 9664 9664 700
Width: 602
Flags: W
LayerCount: 2
Fore
SplineSet
58 265 m 1,0,-1
 484 478 l 1,1,-1
 484 52 l 1,2,-1
 58 265 l 1,0,-1
EndSplineSet
EndChar

StartChar: uni25C1
Encoding: 9665 9665 701
Width: 600
Flags: W
LayerCount: 2
Fore
SplineSet
58 265 m 1,0,-1
 484 478 l 1,1,-1
 484 52 l 1,2,-1
 58 265 l 1,0,-1
103 265 m 1,3,-1
 464 84 l 1,4,-1
 464 446 l 1,5,-1
 103 265 l 1,3,-1
EndSplineSet
EndChar

StartChar: uni25C6
Encoding: 9670 9670 702
Width: 600
Flags: W
LayerCount: 2
Fore
SplineSet
300 540 m 1,0,-1
 574 265 l 1,1,-1
 300 -9 l 1,2,-1
 25 265 l 1,3,-1
 300 540 l 1,0,-1
EndSplineSet
EndChar

StartChar: uni25C7
Encoding: 9671 9671 703
Width: 600
Flags: W
LayerCount: 2
Fore
SplineSet
300 540 m 1,0,-1
 574 265 l 1,1,-1
 300 -9 l 1,2,-1
 25 265 l 1,3,-1
 300 540 l 1,0,-1
300 511 m 1,4,-1
 53 265 l 1,5,-1
 300 19 l 1,6,-1
 546 265 l 1,7,-1
 300 511 l 1,4,-1
EndSplineSet
EndChar

StartChar: lozenge
Encoding: 9674 9674 704
Width: 499
Flags: W
LayerCount: 2
Fore
SplineSet
250 623 m 1,0,-1
 447 330 l 1,1,-1
 249 34 l 1,2,-1
 52 330 l 1,3,-1
 250 623 l 1,0,-1
250 589 m 1,4,-1
 76 330 l 1,5,-1
 249 70 l 1,6,-1
 423 330 l 1,7,-1
 250 589 l 1,4,-1
EndSplineSet
EndChar

StartChar: uniA78B
Encoding: 42891 42891 705
Width: 208
Flags: W
LayerCount: 2
Fore
SplineSet
94 699 m 1,0,-1
 114 699 l 1,1,-1
 114 298 l 1,2,-1
 94 298 l 1,3,-1
 94 699 l 1,0,-1
EndSplineSet
EndChar

StartChar: uniA78C
Encoding: 42892 42892 706
Width: 209
Flags: W
LayerCount: 2
Fore
SplineSet
95 633 m 1,0,-1
 115 633 l 1,1,-1
 114 298 l 1,2,-1
 94 298 l 1,3,-1
 95 633 l 1,0,-1
EndSplineSet
Substitution2: "<3,3> Small Caps in Latin lookup 11 subtable" uniA78C.sc
EndChar

StartChar: A.ss01
Encoding: 65538 -1 709
Width: 774
Flags: W
LayerCount: 2
Fore
SplineSet
183 628 m 128,-1,1
 256 703 256 703 387 703 c 256,2,3
 518 703 518 703 591 628 c 128,-1,4
 664 553 664 553 664 419 c 2,5,-1
 664 0 l 1,6,-1
 644 0 l 1,7,-1
 644 225 l 1,8,-1
 130 225 l 1,9,-1
 130 0 l 1,10,-1
 110 0 l 1,11,-1
 110 419 l 2,12,0
 110 553 110 553 183 628 c 128,-1,1
576 613.5 m 128,-1,14
 508 683 508 683 387 683 c 256,15,16
 266 683 266 683 198 613.5 c 128,-1,17
 130 544 130 544 130 419 c 2,18,-1
 130 245 l 1,19,-1
 644 245 l 1,20,-1
 644 419 l 2,21,13
 644 544 644 544 576 613.5 c 128,-1,14
EndSplineSet
EndChar

StartChar: Adieresis.alt
Encoding: 65553 -1 724
Width: 686
Flags: W
LayerCount: 2
Fore
SplineSet
186 661 m 128,-1,1
 178 669 178 669 178 679 c 0,2,3
 178 690 178 690 186 697.5 c 128,-1,4
 194 705 194 705 204 705 c 0,5,6
 215 705 215 705 222.5 697.5 c 128,-1,7
 230 690 230 690 230 679 c 0,8,9
 230 669 230 669 222.5 661 c 128,-1,10
 215 653 215 653 204 653 c 0,11,0
 194 653 194 653 186 661 c 128,-1,1
460 661 m 128,-1,13
 452 669 452 669 452 679 c 0,14,15
 452 690 452 690 460 697.5 c 128,-1,16
 468 705 468 705 478 705 c 0,17,18
 489 705 489 705 496.5 697.5 c 128,-1,19
 504 690 504 690 504 679 c 0,20,21
 504 669 504 669 496.5 661 c 128,-1,22
 489 653 489 653 478 653 c 0,23,12
 468 653 468 653 460 661 c 128,-1,13
653 0 m 1,24,-1
 555 213 l 1,25,-1
 131 213 l 1,26,-1
 34 0 l 1,27,-1
 10 0 l 1,28,-1
 330 699 l 1,29,-1
 352 699 l 1,30,-1
 676 0 l 1,31,-1
 653 0 l 1,24,-1
140 233 m 1,32,-1
 545 233 l 1,33,-1
 341 676 l 1,34,-1
 140 233 l 1,32,-1
EndSplineSet
EndChar

StartChar: Aogonek.ss01
Encoding: 65560 -1 731
Width: 774
Flags: W
LayerCount: 2
Fore
SplineSet
570.5 -73.5 m 128,-1,1
 542 -104 542 -104 542 -139 c 0,2,3
 542 -166 542 -166 556.5 -179.5 c 128,-1,4
 571 -193 571 -193 594 -193 c 0,5,6
 624 -193 624 -193 653 -173 c 1,7,-1
 663 -189 l 1,8,9
 628 -213 628 -213 593 -213 c 0,10,11
 560 -213 560 -213 540.5 -193 c 128,-1,12
 521 -173 521 -173 521 -139 c 0,13,14
 521 -98 521 -98 550.5 -65 c 128,-1,15
 580 -32 580 -32 644 9 c 1,16,-1
 644 225 l 1,17,-1
 130 225 l 1,18,-1
 130 0 l 1,19,-1
 110 0 l 1,20,-1
 110 419 l 2,21,22
 110 553 110 553 183 628 c 128,-1,23
 256 703 256 703 387 703 c 256,24,25
 518 703 518 703 591 628 c 128,-1,26
 664 553 664 553 664 419 c 2,27,-1
 664 0 l 1,28,0
 599 -43 599 -43 570.5 -73.5 c 128,-1,1
644 245 m 1,29,-1
 644 419 l 2,30,31
 644 544 644 544 576 613.5 c 128,-1,32
 508 683 508 683 387 683 c 256,33,34
 266 683 266 683 198 613.5 c 128,-1,35
 130 544 130 544 130 419 c 2,36,-1
 130 245 l 1,37,-1
 644 245 l 1,29,-1
EndSplineSet
EndChar

StartChar: E.ss01
Encoding: 65566 -1 737
Width: 528
Flags: W
LayerCount: 2
Fore
SplineSet
185 338.5 m 128,-1,1
 131 316 131 316 100.5 276.5 c 128,-1,2
 70 237 70 237 70 188 c 256,3,4
 70 139 70 139 100 100 c 128,-1,5
 130 61 130 61 183 39 c 128,-1,6
 236 17 236 17 303 17 c 0,7,8
 348 17 348 17 401.5 30.5 c 128,-1,9
 455 44 455 44 493 64 c 1,10,-1
 503 46 l 1,11,12
 467 25 467 25 410 11 c 128,-1,13
 353 -3 353 -3 303 -3 c 0,14,15
 231 -3 231 -3 173.5 22 c 128,-1,16
 116 47 116 47 83 90.5 c 128,-1,17
 50 134 50 134 50 188 c 0,18,19
 50 234 50 234 74.5 274 c 128,-1,20
 99 314 99 314 142 339.5 c 128,-1,21
 185 365 185 365 239 371 c 1,22,23
 170 381 170 381 125 426 c 128,-1,24
 80 471 80 471 80 530 c 0,25,26
 80 579 80 579 109 618.5 c 128,-1,27
 138 658 138 658 189.5 680.5 c 128,-1,28
 241 703 241 703 305 703 c 0,29,30
 347 703 347 703 394 693 c 128,-1,31
 441 683 441 683 471 668 c 1,32,-1
 461 650 l 1,33,34
 434 664 434 664 389.5 673.5 c 128,-1,35
 345 683 345 683 305 683 c 0,36,37
 246 683 246 683 199.5 663 c 128,-1,38
 153 643 153 643 126.5 608 c 128,-1,39
 100 573 100 573 100 530 c 256,40,41
 100 487 100 487 126.5 453 c 128,-1,42
 153 419 153 419 200.5 400 c 128,-1,43
 248 381 248 381 307 381 c 2,44,-1
 416 381 l 1,45,-1
 416 361 l 1,46,-1
 307 361 l 2,47,0
 239 361 239 361 185 338.5 c 128,-1,1
EndSplineSet
EndChar

StartChar: uni1E1C.ss01
Encoding: 65570 -1 741
Width: 528
Flags: W
LayerCount: 2
Fore
SplineSet
217.5 806 m 128,-1,1
 187 836 187 836 186 881 c 1,2,-1
 206 881 l 1,3,4
 208 845 208 845 232 820.5 c 128,-1,5
 256 796 256 796 291 796 c 256,6,7
 326 796 326 796 350 820.5 c 128,-1,8
 374 845 374 845 376 881 c 1,9,-1
 396 881 l 1,10,11
 395 836 395 836 364.5 806 c 128,-1,12
 334 776 334 776 291 776 c 256,13,0
 248 776 248 776 217.5 806 c 128,-1,1
362.5 -78.5 m 128,-1,15
 384 -100 384 -100 384 -130 c 0,16,17
 384 -163 384 -163 360.5 -188 c 128,-1,18
 337 -213 337 -213 295 -213 c 0,19,20
 276 -213 276 -213 255.5 -207 c 128,-1,21
 235 -201 235 -201 222 -191 c 1,22,-1
 230 -171 l 1,23,24
 242 -180 242 -180 260.5 -186 c 128,-1,25
 279 -192 279 -192 295 -192 c 0,26,27
 328 -192 328 -192 345.5 -173.5 c 128,-1,28
 363 -155 363 -155 363 -130 c 0,29,30
 363 -108 363 -108 347 -91.5 c 128,-1,31
 331 -75 331 -75 305 -75 c 2,32,-1
 276 -75 l 1,33,-1
 297 -3 l 1,34,35
 226 -2 226 -2 170 23 c 128,-1,36
 114 48 114 48 82 91.5 c 128,-1,37
 50 135 50 135 50 188 c 0,38,39
 50 234 50 234 74.5 274 c 128,-1,40
 99 314 99 314 142 339.5 c 128,-1,41
 185 365 185 365 239 371 c 1,42,43
 170 381 170 381 125 426 c 128,-1,44
 80 471 80 471 80 530 c 0,45,46
 80 579 80 579 109 618.5 c 128,-1,47
 138 658 138 658 189.5 680.5 c 128,-1,48
 241 703 241 703 305 703 c 0,49,50
 347 703 347 703 394 693 c 128,-1,51
 441 683 441 683 471 668 c 1,52,-1
 461 650 l 1,53,54
 434 664 434 664 389.5 673.5 c 128,-1,55
 345 683 345 683 305 683 c 0,56,57
 246 683 246 683 199.5 663 c 128,-1,58
 153 643 153 643 126.5 608 c 128,-1,59
 100 573 100 573 100 530 c 256,60,61
 100 487 100 487 126.5 453 c 128,-1,62
 153 419 153 419 200.5 400 c 128,-1,63
 248 381 248 381 307 381 c 2,64,-1
 416 381 l 1,65,-1
 416 361 l 1,66,-1
 307 361 l 2,67,68
 239 361 239 361 185 338.5 c 128,-1,69
 131 316 131 316 100.5 276.5 c 128,-1,70
 70 237 70 237 70 188 c 256,71,72
 70 139 70 139 100 100 c 128,-1,73
 130 61 130 61 183 39 c 128,-1,74
 236 17 236 17 303 17 c 0,75,76
 348 17 348 17 401.5 30.5 c 128,-1,77
 455 44 455 44 493 64 c 1,78,-1
 503 46 l 1,79,80
 470 27 470 27 418 13 c 128,-1,81
 366 -1 366 -1 318 -3 c 1,82,-1
 303 -56 l 1,83,14
 341 -57 341 -57 362.5 -78.5 c 128,-1,15
EndSplineSet
EndChar

StartChar: Eogonek.ss01
Encoding: 65587 -1 758
Width: 528
Flags: W
LayerCount: 2
Fore
SplineSet
362 -140 m 0,1,2
 362 -166 362 -166 376.5 -179.5 c 128,-1,3
 391 -193 391 -193 414 -193 c 0,4,5
 444 -193 444 -193 473 -173 c 1,6,-1
 483 -189 l 1,7,8
 449 -213 449 -213 413 -213 c 0,9,10
 381 -213 381 -213 361 -193 c 128,-1,11
 341 -173 341 -173 341 -139 c 0,12,13
 341 -72 341 -72 440 19 c 1,14,15
 367 -3 367 -3 303 -3 c 0,16,17
 231 -3 231 -3 173.5 22 c 128,-1,18
 116 47 116 47 83 90.5 c 128,-1,19
 50 134 50 134 50 188 c 0,20,21
 50 234 50 234 74.5 274 c 128,-1,22
 99 314 99 314 142 339.5 c 128,-1,23
 185 365 185 365 239 371 c 1,24,25
 170 381 170 381 125 426 c 128,-1,26
 80 471 80 471 80 530 c 0,27,28
 80 579 80 579 109 618.5 c 128,-1,29
 138 658 138 658 189.5 680.5 c 128,-1,30
 241 703 241 703 305 703 c 0,31,32
 347 703 347 703 394 693 c 128,-1,33
 441 683 441 683 471 668 c 1,34,-1
 461 650 l 1,35,36
 434 664 434 664 389.5 673.5 c 128,-1,37
 345 683 345 683 305 683 c 0,38,39
 246 683 246 683 199.5 663 c 128,-1,40
 153 643 153 643 126.5 608 c 128,-1,41
 100 573 100 573 100 530 c 256,42,43
 100 487 100 487 126.5 453 c 128,-1,44
 153 419 153 419 200.5 400 c 128,-1,45
 248 381 248 381 307 381 c 2,46,-1
 416 381 l 1,47,-1
 416 361 l 1,48,-1
 307 361 l 2,49,50
 239 361 239 361 185 338.5 c 128,-1,51
 131 316 131 316 100.5 276.5 c 128,-1,52
 70 237 70 237 70 188 c 256,53,54
 70 139 70 139 100 100 c 128,-1,55
 130 61 130 61 183 39 c 128,-1,56
 236 17 236 17 303 17 c 0,57,58
 347 17 347 17 399 29.5 c 128,-1,59
 451 42 451 42 489 62 c 1,60,-1
 493 65 l 1,61,-1
 503 49 l 1,62,-1
 502 48 l 1,63,-1
 503 46 l 1,64,-1
 492 40 l 1,65,0
 362 -69 362 -69 362 -140 c 0,1,2
EndSplineSet
EndChar

StartChar: F.ss01
Encoding: 65589 -1 760
Width: 490
Flags: W
LayerCount: 2
Fore
SplineSet
176 630.5 m 128,-1,1
 129 582 129 582 129 502 c 2,2,-1
 129 342 l 1,3,-1
 423 342 l 1,4,-1
 423 322 l 1,5,-1
 129 322 l 1,6,-1
 129 0 l 1,7,-1
 110 0 l 1,8,-1
 110 502 l 2,9,10
 110 592 110 592 162 645.5 c 128,-1,11
 214 699 214 699 301 699 c 0,12,13
 345 699 345 699 391 688 c 128,-1,14
 437 677 437 677 475 659 c 1,15,-1
 466 639 l 1,16,17
 431 657 431 657 386 668 c 128,-1,18
 341 679 341 679 301 679 c 0,19,0
 223 679 223 679 176 630.5 c 128,-1,1
EndSplineSet
EndChar

StartChar: G.ss01
Encoding: 65590 -1 761
Width: 760
Flags: W
LayerCount: 2
Fore
SplineSet
650 343 m 1,0,-1
 650 0 l 1,1,-1
 630 0 l 1,2,-1
 630 81 l 1,3,4
 583 41 583 41 526.5 19 c 128,-1,5
 470 -3 470 -3 409 -3 c 0,6,7
 312 -3 312 -3 229.5 45 c 128,-1,8
 147 93 147 93 98.5 174.5 c 128,-1,9
 50 256 50 256 50 351 c 256,10,11
 50 446 50 446 98.5 527 c 128,-1,12
 147 608 147 608 229.5 655.5 c 128,-1,13
 312 703 312 703 409 703 c 0,14,15
 477 703 477 703 538.5 679 c 128,-1,16
 600 655 600 655 649 612 c 1,17,-1
 636 599 l 1,18,19
 591 640 591 640 532.5 662 c 128,-1,20
 474 684 474 684 409 684 c 0,21,22
 317 684 317 684 239 639 c 128,-1,23
 161 594 161 594 115 517.5 c 128,-1,24
 69 441 69 441 69 351 c 256,25,26
 69 261 69 261 115 184 c 128,-1,27
 161 107 161 107 239 61.5 c 128,-1,28
 317 16 317 16 409 16 c 0,29,30
 471 16 471 16 528 39.5 c 128,-1,31
 585 63 585 63 630 106 c 1,32,-1
 630 343 l 1,33,-1
 650 343 l 1,0,-1
EndSplineSet
EndChar

StartChar: I.ss01
Encoding: 65597 -1 768
Width: 448
Flags: W
LayerCount: 2
Fore
SplineSet
388 679 m 1,0,-1
 234 679 l 1,1,-1
 234 20 l 1,2,-1
 388 20 l 1,3,-1
 388 0 l 1,4,-1
 60 0 l 1,5,-1
 60 20 l 1,6,-1
 214 20 l 1,7,-1
 214 679 l 1,8,-1
 60 679 l 1,9,-1
 60 699 l 1,10,-1
 388 699 l 1,11,-1
 388 679 l 1,0,-1
EndSplineSet
EndChar

StartChar: Iogonek.ss01
Encoding: 65613 -1 784
Width: 448
Flags: W
LayerCount: 2
Fore
SplineSet
234 679 m 1,0,-1
 234 20 l 1,1,-1
 388 20 l 1,2,-1
 388 0 l 1,3,-1
 234 0 l 1,4,5
 169 -43 169 -43 140.5 -73.5 c 128,-1,6
 112 -104 112 -104 112 -139 c 0,7,8
 112 -166 112 -166 126.5 -179.5 c 128,-1,9
 141 -193 141 -193 164 -193 c 0,10,11
 194 -193 194 -193 223 -173 c 1,12,-1
 233 -189 l 1,13,14
 199 -213 199 -213 163 -213 c 0,15,16
 130 -213 130 -213 110.5 -193 c 128,-1,17
 91 -173 91 -173 91 -139 c 0,18,19
 91 -100 91 -100 117.5 -68.5 c 128,-1,20
 144 -37 144 -37 200 0 c 1,21,-1
 60 0 l 1,22,-1
 60 20 l 1,23,-1
 214 20 l 1,24,-1
 214 679 l 1,25,-1
 60 679 l 1,26,-1
 60 699 l 1,27,-1
 388 699 l 1,28,-1
 388 679 l 1,29,-1
 234 679 l 1,0,-1
EndSplineSet
EndChar

StartChar: J.ss01
Encoding: 65615 -1 786
Width: 458
Flags: W
LayerCount: 2
Fore
SplineSet
304 -49 m 128,-1,1
 260 -100 260 -100 177 -100 c 0,2,3
 126 -100 126 -100 81 -74.5 c 128,-1,4
 36 -49 36 -49 3 -2 c 1,5,-1
 17 12 l 1,6,7
 48 -33 48 -33 89 -56.5 c 128,-1,8
 130 -80 130 -80 177 -80 c 0,9,10
 251 -80 251 -80 290 -34.5 c 128,-1,11
 329 11 329 11 329 97 c 2,12,-1
 329 679 l 1,13,-1
 67 679 l 1,14,-1
 67 699 l 1,15,-1
 348 699 l 1,16,-1
 348 97 l 2,17,0
 348 2 348 2 304 -49 c 128,-1,1
EndSplineSet
EndChar

StartChar: M.ss01
Encoding: 65620 -1 791
Width: 1227
Flags: W
LayerCount: 2
Fore
SplineSet
1005.5 670 m 128,-1,1
 1058 637 1058 637 1087.5 579.5 c 128,-1,2
 1117 522 1117 522 1117 449 c 2,3,-1
 1117 0 l 1,4,-1
 1097 0 l 1,5,-1
 1097 449 l 2,6,7
 1097 516 1097 516 1070 569 c 128,-1,8
 1043 622 1043 622 995 652.5 c 128,-1,9
 947 683 947 683 887 683 c 0,10,11
 815 683 815 683 756.5 649.5 c 128,-1,12
 698 616 698 616 665 558 c 128,-1,13
 632 500 632 500 632 429 c 2,14,-1
 632 0 l 1,15,-1
 612 0 l 1,16,-1
 612 449 l 2,17,18
 612 516 612 516 585 569 c 128,-1,19
 558 622 558 622 510 652.5 c 128,-1,20
 462 683 462 683 402 683 c 0,21,22
 334 683 334 683 278 653 c 128,-1,23
 222 623 222 623 187.5 570.5 c 128,-1,24
 153 518 153 518 148 453 c 1,25,-1
 148 0 l 1,26,-1
 128 0 l 1,27,-1
 128 703 l 1,28,-1
 148 703 l 1,29,-1
 148 533 l 1,30,31
 178 610 178 610 246 656.5 c 128,-1,32
 314 703 314 703 402 703 c 0,33,34
 486 703 486 703 547 650.5 c 128,-1,35
 608 598 608 598 626 512 c 1,36,37
 651 597 651 597 721.5 650 c 128,-1,38
 792 703 792 703 887 703 c 0,39,0
 953 703 953 703 1005.5 670 c 128,-1,1
EndSplineSet
EndChar

StartChar: N.ss01
Encoding: 65622 -1 793
Width: 792
Flags: W
LayerCount: 2
Fore
SplineSet
561 670 m 128,-1,1
 618 637 618 637 650 579.5 c 128,-1,2
 682 522 682 522 682 449 c 2,3,-1
 682 0 l 1,4,-1
 662 0 l 1,5,-1
 662 449 l 2,6,7
 662 516 662 516 632.5 569 c 128,-1,8
 603 622 603 622 550.5 652.5 c 128,-1,9
 498 683 498 683 432 683 c 0,10,11
 355 683 355 683 292.5 652.5 c 128,-1,12
 230 622 230 622 192 569.5 c 128,-1,13
 154 517 154 517 148 451 c 1,14,-1
 148 0 l 1,15,-1
 128 0 l 1,16,-1
 128 699 l 1,17,-1
 148 699 l 1,18,-1
 148 528 l 1,19,20
 180 607 180 607 256 655 c 128,-1,21
 332 703 332 703 432 703 c 0,22,0
 504 703 504 703 561 670 c 128,-1,1
EndSplineSet
EndChar

StartChar: Eng.ss01
Encoding: 65629 -1 800
Width: 792
Flags: W
LayerCount: 2
Fore
SplineSet
561 666 m 128,-1,1
 618 633 618 633 650 575.5 c 128,-1,2
 682 518 682 518 682 445 c 2,3,-1
 682 0 l 2,4,5
 682 -95 682 -95 637.5 -145.5 c 128,-1,6
 593 -196 593 -196 510 -196 c 0,7,8
 459 -196 459 -196 414 -170.5 c 128,-1,9
 369 -145 369 -145 336 -98 c 1,10,-1
 350 -84 l 1,11,12
 381 -129 381 -129 422 -152.5 c 128,-1,13
 463 -176 463 -176 510 -176 c 0,14,15
 584 -176 584 -176 623 -130 c 128,-1,16
 662 -84 662 -84 662 3 c 2,17,-1
 662 445 l 2,18,19
 662 512 662 512 632.5 565 c 128,-1,20
 603 618 603 618 550.5 648.5 c 128,-1,21
 498 679 498 679 432 679 c 0,22,23
 355 677 355 677 292.5 647 c 128,-1,24
 230 617 230 617 192 564.5 c 128,-1,25
 154 512 154 512 148 447 c 1,26,-1
 148 0 l 1,27,-1
 128 0 l 1,28,-1
 128 699 l 1,29,-1
 148 699 l 1,30,-1
 148 524 l 1,31,32
 180 602 180 602 256 649.5 c 128,-1,33
 332 697 332 697 432 699 c 0,34,0
 504 699 504 699 561 666 c 128,-1,1
EndSplineSet
EndChar

StartChar: Q.ss01
Encoding: 65633 -1 804
Width: 818
Flags: W
LayerCount: 2
Fore
SplineSet
721 176.5 m 128,-1,1
 674 96 674 96 594 47.5 c 128,-1,2
 514 -1 514 -1 419 -3 c 1,3,-1
 419 -135 l 1,4,-1
 399 -135 l 1,5,-1
 399 -3 l 1,6,7
 304 -1 304 -1 224 47.5 c 128,-1,8
 144 96 144 96 97 176.5 c 128,-1,9
 50 257 50 257 50 351 c 0,10,11
 50 446 50 446 98.5 527 c 128,-1,12
 147 608 147 608 229.5 655.5 c 128,-1,13
 312 703 312 703 409 703 c 256,14,15
 506 703 506 703 588.5 655.5 c 128,-1,16
 671 608 671 608 719.5 527 c 128,-1,17
 768 446 768 446 768 351 c 0,18,0
 768 257 768 257 721 176.5 c 128,-1,1
583.5 65 m 128,-1,20
 659 111 659 111 703.5 187 c 128,-1,21
 748 263 748 263 748 351 c 0,22,23
 748 440 748 440 702 516.5 c 128,-1,24
 656 593 656 593 578 638 c 128,-1,25
 500 683 500 683 409 683 c 256,26,27
 318 683 318 683 240 638 c 128,-1,28
 162 593 162 593 116 516.5 c 128,-1,29
 70 440 70 440 70 351 c 0,30,31
 70 263 70 263 114.5 187 c 128,-1,32
 159 111 159 111 234.5 65 c 128,-1,33
 310 19 310 19 399 17 c 1,34,-1
 399 224 l 1,35,-1
 419 224 l 1,36,-1
 419 17 l 1,37,19
 508 19 508 19 583.5 65 c 128,-1,20
EndSplineSet
EndChar

